<?xml version="1.0" encoding="utf-8"?>
<!-- Generator: Adobe Illustrator 21.0.2, SVG Export Plug-In . SVG Version: 6.00 Build 0)  -->
<svg version="1.1" id="Слой_1" xmlns="http://www.w3.org/2000/svg" xmlns:xlink="http://www.w3.org/1999/xlink" x="0px" y="0px"
	 viewBox="0 0 1280 800" style="enable-background:new 0 0 1280 800;" xml:space="preserve">
<style type="text/css">
	.st0{fill:#1181A8;}
	.st1{fill:#239ED7;}
	.st2{fill:#995250;}
	.st3{fill:#B8716D;}
</style>
<polyline class="st0" points="458,333.5 412.3,310.4 420.9,305.9 430,303.6 602.6,313 449.3,420.7 437.6,423.5 428,416.4 
	461.6,379.9 463.6,372.9 "/>
<polyline class="st1" points="456,330.5 412.3,310.4 418.9,302.9 428,300.6 602.6,313 447.3,417.7 435.6,420.5 428,416.4 
	459.6,376.9 461.6,369.9 "/>
<g>
	<polygon class="st2" points="391.8,345.5 427.2,350 438.8,336.1 484.1,329.1 584.6,316.1 488,356 455.5,379 446.5,378.7 
		374.6,350.9 	"/>
	<polygon class="st3" points="388.8,342.5 424.2,347 435.8,333.1 481.1,326.1 584.6,316.1 485,353 452.5,376 443.5,375.7 
		374.6,350.9 	"/>
</g>
</svg>
