<?xml version="1.0" encoding="utf-8"?>
<!-- Generator: Adobe Illustrator 21.0.2, SVG Export Plug-In . SVG Version: 6.00 Build 0)  -->
<svg version="1.1" id="Слой_1" xmlns="http://www.w3.org/2000/svg" xmlns:xlink="http://www.w3.org/1999/xlink" x="0px" y="0px"
	 viewBox="0 0 210 150" style="enable-background:new 0 0 210 150;" xml:space="preserve">
<style type="text/css">
	.st0{fill:#1181A8;}
	.st1{fill:#239ED7;}
	.st2{fill:#995250;}
	.st3{fill:#B8716D;}
</style>
<polyline class="st0" points="75.9,57.8 25.7,47.6 32.9,41 40.9,36.4 210,0 90.4,144.2 79.8,150 68.7,145.7 91.5,101.7 91.6,94.4 
	"/>
<polyline class="st1" points="73.2,55.5 25.7,47.6 30.1,38.6 38.2,34 210,0 87.7,141.9 77.1,147.6 68.7,145.7 88.8,99.3 88.9,92.1 
	"/>
<g>
	<polygon class="st2" points="15.1,86.9 50.5,81.9 58,65.4 99.9,46.8 193.4,7.8 110.7,71.7 85.4,102.4 76.7,104.5 0,96.6 	"/>
	<polygon class="st3" points="11.5,84.8 46.8,79.8 54.3,63.3 96.2,44.7 193.4,7.8 107,69.6 81.7,100.3 73,102.4 0,96.6 	"/>
</g>
</svg>
