<?xml version="1.0" encoding="utf-8"?>
<!-- Generator: Adobe Illustrator 21.0.2, SVG Export Plug-In . SVG Version: 6.00 Build 0)  -->
<svg version="1.1" id="Слой_1" xmlns="http://www.w3.org/2000/svg" xmlns:xlink="http://www.w3.org/1999/xlink" x="0px" y="0px"
	 viewBox="0 0 228 122.9" style="enable-background:new 0 0 228 122.9;" xml:space="preserve">
<style type="text/css">
	.st0{fill:#1181A8;}
	.st1{fill:#239ED7;}
	.st2{fill:#995250;}
	.st3{fill:#B8716D;}
</style>
<polyline class="st0" points="83.4,32.9 37.7,9.9 46.3,5.4 55.3,3 228,12.4 74.6,120.1 62.9,122.9 53.3,115.8 86.9,79.4 88.9,72.4 
	"/>
<polyline class="st1" points="81.4,29.9 37.7,9.9 44.3,2.4 53.3,0 228,12.4 72.6,117.1 60.9,119.9 53.3,115.8 84.9,76.4 86.9,69.4 
	"/>
<g>
	<polygon class="st2" points="17.2,44.9 52.5,49.4 64.1,35.5 109.5,28.6 209.9,15.6 113.4,55.4 80.9,78.4 71.8,78.2 0,50.3 	"/>
	<polygon class="st3" points="14.2,41.9 49.5,46.4 61.1,32.5 106.5,25.6 209.9,15.6 110.4,52.4 77.9,75.4 68.8,75.2 0,50.3 	"/>
</g>
</svg>
