<?xml version="1.0" encoding="iso-8859-1"?>
<!-- Generator: Adobe Illustrator 21.0.2, SVG Export Plug-In . SVG Version: 6.00 Build 0)  -->
<svg version="1.1" id="&#x421;&#x43B;&#x43E;&#x439;_1"
	 xmlns="http://www.w3.org/2000/svg" xmlns:xlink="http://www.w3.org/1999/xlink" x="0px" y="0px" viewBox="0 0 42 77"
	 style="enable-background:new 0 0 42 77;" xml:space="preserve">
<g>
	<g>
		<defs>
			<rect id="SVGID_1_" y="0.098" width="42" height="76.902"/>
		</defs>
		<clipPath id="SVGID_2_">
			<use xlink:href="#SVGID_1_"  style="overflow:visible;"/>
		</clipPath>
		<path style="clip-path:url(#SVGID_2_);fill:#FDD74E;" d="M40.012,0.015L30.039,0C18.836,0,11.594,7.429,11.594,18.925v8.727H1.566
			C0.703,27.652,0,28.351,0,29.218v12.645c0,0.863,0.703,1.566,1.566,1.566h10.028v31.903c0,0.863,0.703,1.566,1.57,1.566h13.078
			c0.867,0,1.57-0.703,1.57-1.566V43.429h11.723c0.867,0,1.567-0.703,1.567-1.566l0.007-12.645c0-0.414-0.168-0.812-0.461-1.109
			c-0.293-0.293-0.691-0.457-1.109-0.457H27.812v-7.398c0-3.555,0.848-5.36,5.477-5.36l6.719-0.004c0.867,0,1.566-0.703,1.566-1.566
			V1.586C41.574,0.718,40.875,0.019,40.012,0.015L40.012,0.015z M40.012,0.015"/>
	</g>
</g>
</svg>
