<?xml version="1.0" encoding="iso-8859-1"?>
<!-- Generator: Adobe Illustrator 21.0.2, SVG Export Plug-In . SVG Version: 6.00 Build 0)  -->
<svg version="1.1" id="&#x421;&#x43B;&#x43E;&#x439;_1"
	 xmlns="http://www.w3.org/2000/svg" xmlns:xlink="http://www.w3.org/1999/xlink" x="0px" y="0px" viewBox="0 0 288 560"
	 style="enable-background:new 0 0 288 560;" xml:space="preserve">
<g>
	<g>
		<defs>
			<path id="SVGID_1_" d="M232.504,60H54.324C-18.09,60-77,118.91-77,191.324v178.18c0,72.41,58.91,131.324,131.324,131.324h178.18
				c72.41,0,131.324-58.914,131.324-131.324v-178.18C363.828,118.91,304.914,60,232.504,60L232.504,60z M319.48,369.504
				c0,48.035-38.941,86.976-86.976,86.976H54.324c-48.035,0-86.976-38.941-86.976-86.976v-178.18
				c0-48.035,38.941-86.977,86.976-86.977h178.18c48.035,0,86.976,38.942,86.976,86.977V369.504z M319.48,369.504"/>
		</defs>
		<defs>
			<rect id="SVGID_2_" x="-77" y="59.947" width="440.88" height="441.84"/>
		</defs>
		<clipPath id="SVGID_3_">
			<use xlink:href="#SVGID_1_"  style="overflow:visible;"/>
		</clipPath>
		<clipPath id="SVGID_4_" style="clip-path:url(#SVGID_3_);">
			<use xlink:href="#SVGID_2_"  style="overflow:visible;"/>
		</clipPath>
		<g style="clip-path:url(#SVGID_4_);">
			<defs>
				<rect id="SVGID_5_" x="-77" y="59.947" width="440.88" height="441.12"/>
			</defs>
			<clipPath id="SVGID_6_">
				<use xlink:href="#SVGID_5_"  style="overflow:visible;"/>
			</clipPath>
			<g transform="matrix(1 0 0 1 0 3.051758e-05)" style="clip-path:url(#SVGID_6_);">
				
					<image style="overflow:visible;" width="924" height="922" xlink:href="8CC87BBC.jpg"  transform="matrix(0.48 0 0 -0.48 -77.5712 501.9406)">
				</image>
			</g>
		</g>
	</g>
	<g>
		<defs>
			<path id="SVGID_7_" d="M143.414,166.398c-62.867,0-114.016,51.149-114.016,114.016c0,62.863,51.149,114.012,114.016,114.012
				s114.012-51.145,114.012-114.012S206.281,166.398,143.414,166.398L143.414,166.398z M143.414,350.078
				c-38.476,0-69.668-31.188-69.668-69.664c0-38.477,31.192-69.668,69.668-69.668c38.477,0,69.664,31.191,69.664,69.668
				C213.078,318.89,181.891,350.078,143.414,350.078L143.414,350.078z M143.414,350.078"/>
		</defs>
		<defs>
			<rect id="SVGID_8_" x="-77" y="59.947" width="440.88" height="441.84"/>
		</defs>
		<clipPath id="SVGID_9_">
			<use xlink:href="#SVGID_7_"  style="overflow:visible;"/>
		</clipPath>
		<clipPath id="SVGID_10_" style="clip-path:url(#SVGID_9_);">
			<use xlink:href="#SVGID_8_"  style="overflow:visible;"/>
		</clipPath>
		<g style="clip-path:url(#SVGID_10_);">
			<defs>
				<rect id="SVGID_11_" x="29.32" y="166.267" width="228.24" height="228.24"/>
			</defs>
			<clipPath id="SVGID_12_">
				<use xlink:href="#SVGID_11_"  style="overflow:visible;"/>
			</clipPath>
			<g style="clip-path:url(#SVGID_12_);">
				
					<image style="overflow:visible;" width="480" height="479" xlink:href="8CC87BBF.jpg"  transform="matrix(0.48 0 0 -0.48 28.5088 395.3182)">
				</image>
			</g>
		</g>
	</g>
	<g>
		<defs>
			<path id="SVGID_13_" d="M284.965,167.258c0,15.086-12.231,27.32-27.32,27.32c-15.086,0-27.321-12.234-27.321-27.32
				c0-15.09,12.235-27.321,27.321-27.321C272.734,139.937,284.965,152.168,284.965,167.258L284.965,167.258z M284.965,167.258"/>
		</defs>
		<defs>
			<rect id="SVGID_14_" x="-77" y="59.947" width="440.88" height="441.84"/>
		</defs>
		<clipPath id="SVGID_15_">
			<use xlink:href="#SVGID_13_"  style="overflow:visible;"/>
		</clipPath>
		<clipPath id="SVGID_16_" style="clip-path:url(#SVGID_15_);">
			<use xlink:href="#SVGID_14_"  style="overflow:visible;"/>
		</clipPath>
		<g style="clip-path:url(#SVGID_16_);">
			<defs>
				<rect id="SVGID_17_" x="230.2" y="139.867" width="54.96" height="54.72"/>
			</defs>
			<clipPath id="SVGID_18_">
				<use xlink:href="#SVGID_17_"  style="overflow:visible;"/>
			</clipPath>
			<g style="clip-path:url(#SVGID_18_);">
				
					<image style="overflow:visible;" width="120" height="118" xlink:href="8CC87BBA.jpg"  transform="matrix(0.48 0 0 -0.48 229.0336 195.835)">
				</image>
			</g>
		</g>
	</g>
</g>
</svg>
