<?xml version="1.0" encoding="iso-8859-1"?>
<!-- Generator: Adobe Illustrator 21.0.2, SVG Export Plug-In . SVG Version: 6.00 Build 0)  -->
<svg version="1.1" id="Layer_1" xmlns="http://www.w3.org/2000/svg" xmlns:xlink="http://www.w3.org/1999/xlink" x="0px" y="0px"
	 viewBox="-49 201.558 512 390.884" style="enable-background:new -49 201.558 512 390.884;" xml:space="preserve">
<path style="fill:#FDD74E;" d="M274.102,202.5c-42.016,21.012-92.197,21.012-134.204,0c-3.918-1.964-8.663-0.773-11.204,2.781
	L-49,454.053l14.455,10.324l173.385-242.731c43.189,19.173,93.112,19.173,136.309,0l173.394,242.74L463,454.062L285.306,205.29
	C282.764,201.736,278.02,200.554,274.102,202.5z"/>
<path style="fill:#FDD74E;" d="M433.156,486.562l11.959,13.141c4.469-4.06,8.858-8.263,13.158-12.572l-12.599-12.545
	C441.579,478.699,437.403,482.698,433.156,486.562z"/>
<path style="fill:#FDD74E;" d="M420.051,497.899c-4.478,3.687-9.036,7.241-13.647,10.671l10.599,14.26
	c4.842-3.598,9.622-7.33,14.34-11.213L420.051,497.899z"/>
<path style="fill:#FDD74E;" d="M3.367,505.38c-4.567-3.501-9.062-7.117-13.478-10.875l-11.497,13.558
	c4.656,3.945,9.382,7.756,14.189,11.426L3.367,505.38z"/>
<path style="fill:#FDD74E;" d="M38.319,549.306c5.357,2.932,10.751,5.713,16.206,8.334l7.721-16.001
	c-5.18-2.505-10.315-5.144-15.388-7.925L38.319,549.306z"/>
<path style="fill:#FDD74E;" d="M354.455,560.004c5.482-2.541,10.919-5.233,16.312-8.058l-8.263-15.735
	c-5.126,2.692-10.306,5.26-15.531,7.676L354.455,560.004z"/>
<path style="fill:#FDD74E;" d="M7.294,530.195c5.029,3.465,10.12,6.788,15.264,9.951l9.32-15.131
	c-4.887-3.012-9.729-6.157-14.5-9.444L7.294,530.195z"/>
<path style="fill:#FDD74E;" d="M386.68,543.025c5.198-3.092,10.342-6.326,15.415-9.711l-9.853-14.784
	c-4.816,3.207-9.702,6.29-14.633,9.222L386.68,543.025z"/>
<path style="fill:#FDD74E;" d="M285.599,583.575c5.908-1.359,11.79-2.87,17.627-4.54l-4.86-17.094
	c-5.562,1.581-11.15,3.021-16.766,4.309L285.599,583.575z"/>
<path style="fill:#FDD74E;" d="M249.704,589.883c6.024-0.737,12.03-1.635,18.018-2.683l-3.074-17.512
	c-5.686,0.995-11.39,1.857-17.121,2.559L249.704,589.883z"/>
<path style="fill:#FDD74E;" d="M71.139,565.13c5.624,2.363,11.284,4.567,16.97,6.619l6.042-16.712
	c-5.411-1.955-10.795-4.051-16.117-6.29L71.139,565.13z"/>
<path style="fill:#FDD74E;" d="M105.434,577.471c5.828,1.759,11.683,3.376,17.583,4.824l4.256-17.245
	c-5.597-1.377-11.159-2.905-16.694-4.585L105.434,577.471z"/>
<path style="fill:#FDD74E;" d="M-35.389,470.819l-12.776,12.359c4.256,4.389,8.583,8.654,12.972,12.767l12.145-12.963
	C-27.224,479.046-31.346,474.995-35.389,470.819z"/>
<path style="fill:#FDD74E;" d="M320.631,573.579c5.74-1.972,11.426-4.087,17.085-6.361l-6.628-16.481
	c-5.366,2.15-10.777,4.167-16.215,6.033L320.631,573.579z"/>
<path style="fill:#FDD74E;" d="M213.339,592.442c6.077-0.107,12.145-0.373,18.214-0.809l-1.253-17.716
	c-5.748,0.4-11.515,0.649-17.272,0.755L213.339,592.442z"/>
<path style="fill:#FDD74E;" d="M140.822,586.196c5.971,1.146,11.968,2.132,17.974,2.967l2.443-17.592
	c-5.704-0.8-11.399-1.733-17.076-2.825L140.822,586.196z"/>
<path style="fill:#FDD74E;" d="M176.912,591.198c6.059,0.533,12.128,0.897,18.196,1.093l0.604-17.752
	c-5.748-0.195-11.515-0.551-17.254-1.039L176.912,591.198z"/>
<path style="fill:#FDD74E;" d="M393.957,428.945c-4.736,3.332-9.542,6.513-14.393,9.551l9.427,15.06
	c5.126-3.207,10.191-6.566,15.193-10.075L393.957,428.945z"/>
<path style="fill:#FDD74E;" d="M333.594,462.272c-5.34,2.212-10.706,4.282-16.108,6.184l5.899,16.766
	c5.722-2.026,11.399-4.202,17.032-6.548L333.594,462.272z"/>
<path style="fill:#FDD74E;" d="M301.049,473.733c-5.535,1.608-11.106,3.056-16.703,4.345l3.989,17.316
	c5.926-1.368,11.826-2.896,17.672-4.611L301.049,473.733z"/>
<path style="fill:#FDD74E;" d="M267.412,481.489c-5.677,0.977-11.364,1.786-17.076,2.434l2.017,17.645
	c6.042-0.684,12.074-1.546,18.08-2.577L267.412,481.489z"/>
<path style="fill:#FDD74E;" d="M233.126,485.39c-5.748,0.329-11.497,0.489-17.245,0.489v17.769c6.086,0,12.172-0.178,18.258-0.524
	L233.126,485.39z"/>
<path style="fill:#FDD74E;" d="M364.664,447.256c-5.047,2.799-10.164,5.437-15.326,7.934l7.721,16.001
	c5.455-2.63,10.866-5.42,16.206-8.378L364.664,447.256z"/>
<path style="fill:#FDD74E;" d="M66.839,474.435c5.58,2.426,11.213,4.7,16.872,6.841l6.264-16.623
	c-5.384-2.035-10.742-4.202-16.064-6.504L66.839,474.435z"/>
<path style="fill:#FDD74E;" d="M3.455,438.665c4.975,3.518,10.013,6.895,15.104,10.146l9.542-14.997
	c-4.851-3.092-9.649-6.308-14.393-9.658L3.455,438.665z"/>
<path style="fill:#FDD74E;" d="M34.223,458.176c5.313,2.994,10.671,5.837,16.081,8.547l7.952-15.895
	c-5.144-2.568-10.244-5.278-15.299-8.13L34.223,458.176z"/>
<path style="fill:#FDD74E;" d="M47.852,376.641c5.18,2.63,10.413,5.135,15.69,7.499l7.25-16.224
	c-4.993-2.239-9.969-4.611-14.891-7.117L47.852,376.641z"/>
<path style="fill:#FDD74E;" d="M284.55,406.12c5.642-1.288,11.257-2.71,16.837-4.265l-4.771-17.112
	c-5.304,1.475-10.635,2.825-16.001,4.043L284.55,406.12z"/>
<path style="fill:#FDD74E;" d="M343.136,367.943l7.25,16.224c5.278-2.363,10.502-4.86,15.682-7.49l-8.05-15.841
	C353.096,363.34,348.138,365.704,343.136,367.943z"/>
<path style="fill:#FDD74E;" d="M250.326,412.108c5.74-0.711,11.488-1.573,17.201-2.577l-3.092-17.494
	c-5.411,0.951-10.848,1.759-16.295,2.434L250.326,412.108z"/>
<path style="fill:#FDD74E;" d="M215.676,414.694c5.793-0.151,11.586-0.435,17.361-0.862l-1.315-17.716
	c-5.482,0.409-10.973,0.675-16.472,0.809L215.676,414.694z"/>
<path style="fill:#FDD74E;" d="M180.919,413.832c5.775,0.426,11.559,0.711,17.343,0.871l0.471-17.769
	c-5.509-0.142-11.008-0.409-16.49-0.817L180.919,413.832z"/>
<path style="fill:#FDD74E;" d="M79.562,390.847c5.411,2.106,10.857,4.078,16.339,5.908l5.642-16.845
	c-5.206-1.741-10.386-3.607-15.522-5.615L79.562,390.847z"/>
<path style="fill:#FDD74E;" d="M112.542,401.847c5.597,1.573,11.221,2.994,16.863,4.265l3.9-17.334
	c-5.357-1.208-10.679-2.559-15.984-4.043L112.542,401.847z"/>
<path style="fill:#FDD74E;" d="M312.404,379.91l5.606,16.863c5.491-1.83,10.937-3.803,16.357-5.908l-6.459-16.552
	C322.772,376.321,317.602,378.187,312.404,379.91z"/>
<path style="fill:#FDD74E;" d="M146.446,409.541c5.713,0.995,11.435,1.848,17.165,2.568l2.221-17.627
	c-5.446-0.684-10.902-1.502-16.33-2.443L146.446,409.541z"/>
<path style="fill:#FDD74E;" d="M231.642,307.26l1.315,17.716c5.757-0.426,11.523-0.995,17.272-1.706l-2.186-17.627
	C242.597,306.318,237.133,306.86,231.642,307.26z"/>
<path style="fill:#FDD74E;" d="M198.679,308.068l-0.435,17.769c2.905,0.071,5.828,0.107,8.743,0.107c2.87,0,5.748-0.036,8.618-0.107
	l-0.435-17.769C209.688,308.211,204.188,308.211,198.679,308.068z"/>
<path style="fill:#FDD74E;" d="M264.355,303.191l3.074,17.512c5.695-0.995,11.372-2.141,17.023-3.421l-3.918-17.334
	C275.159,301.174,269.766,302.249,264.355,303.191z"/>
<path style="fill:#FDD74E;" d="M296.509,295.923l4.771,17.112c5.562-1.546,11.106-3.234,16.606-5.073l-5.624-16.845
	C307.046,292.84,301.796,294.448,296.509,295.923z"/>
<path style="fill:#FDD74E;" d="M163.62,323.243c5.74,0.711,11.506,1.288,17.263,1.715l1.333-17.716
	c-5.482-0.418-10.946-0.951-16.419-1.635L163.62,323.243z"/>
<path style="fill:#FDD74E;" d="M129.423,317.255c5.651,1.279,11.328,2.417,17.014,3.421l3.074-17.512
	c-5.402-0.942-10.795-2.026-16.161-3.243L129.423,317.255z"/>
<path style="fill:#FDD74E;" d="M95.972,307.917c5.5,1.839,11.026,3.518,16.579,5.091l4.824-17.112
	c-5.295-1.484-10.555-3.101-15.779-4.833L95.972,307.917z"/>
<path style="fill:#FDD74E;" d="M153.687,432.57c-29.4,0-53.308,23.909-53.308,53.308s23.909,53.308,53.308,53.308
	s53.308-23.909,53.308-53.308S183.087,432.57,153.687,432.57z M153.687,521.417c-19.6,0-35.539-15.939-35.539-35.539
	c0-19.6,15.939-35.539,35.539-35.539s35.539,15.939,35.539,35.539C189.226,505.478,173.287,521.417,153.687,521.417z"/>
</svg>
