<?xml version="1.0" encoding="iso-8859-1"?>
<!-- Generator: Adobe Illustrator 21.0.2, SVG Export Plug-In . SVG Version: 6.00 Build 0)  -->
<svg version="1.1" id="&#x421;&#x43B;&#x43E;&#x439;_1"
	 xmlns="http://www.w3.org/2000/svg" xmlns:xlink="http://www.w3.org/1999/xlink" x="0px" y="0px" viewBox="0 0 44.801 44.469"
	 style="enable-background:new 0 0 44.801 44.469;" xml:space="preserve">
<g>
	<path style="fill:#FDD74E;" d="M44.801,25.265c0-1.761-1.438-3.199-3.199-3.199H28.527c0-0.012,0.008-0.023,0.008-0.039
		c0-5.07-3.656-9.39-8.597-10.273c-0.805-3.094-3.602-5.285-6.848-5.285C9.18,6.469,6,9.648,6,13.554
		c0,0.301,0.023,0.61,0.062,0.918c-3.792,1.883-3.718,5.071-3.671,7.012c0.004,0.203,0.007,0.399,0.007,0.582
		c0,0.039,0.02,0.071,0.024,0.11C1.035,22.523,0,23.773,0,25.265c0,1.489,1.023,2.731,2.398,3.09v1.114
		c0,5.367,3.664,10.066,8.801,11.414v0.785c0,1.543,1.258,2.801,2.801,2.801c1.406,0,2.578-1.047,2.773-2.403h12.055
		c0.195,1.356,1.363,2.403,2.774,2.403c1.543,0,2.796-1.258,2.796-2.801v-0.785c5.137-1.348,8.801-6.047,8.801-11.414v-1.446
		C44.152,27.465,44.801,26.445,44.801,25.265L44.801,25.265z M7.266,15.683l0.621-0.257l-0.149-0.657
		c-0.09-0.414-0.136-0.824-0.136-1.215c0-3.027,2.46-5.488,5.488-5.488c2.664,0,4.937,1.906,5.398,4.535l0.102,0.582l0.586,0.071
		c4.422,0.543,7.758,4.316,7.758,8.773c0,0.012,0.007,0.024,0.007,0.039H4c0-0.199-0.004-0.406-0.012-0.621
		C3.945,19.504,3.887,17.094,7.266,15.683L7.266,15.683z M41.602,29.469c0,4.828-3.434,9.031-8.161,9.992l-0.64,0.133v2.074
		c0,0.66-0.539,1.199-1.199,1.199c-0.664,0-1.204-0.539-1.204-1.199v-1.199H15.199v1.199c0,0.66-0.539,1.199-1.199,1.199
		s-1.199-0.539-1.199-1.199v-2.074l-0.641-0.133C7.43,38.5,4,34.297,4,29.469v-1h37.602V29.469z M41.602,26.867H3.199
		c-0.883,0-1.597-0.719-1.597-1.602c0-0.878,0.714-1.597,1.597-1.597h38.403c0.878,0,1.597,0.719,1.597,1.597
		C43.199,26.148,42.48,26.867,41.602,26.867L41.602,26.867z M41.602,26.867"/>
	<path style="fill:#FDD74E;" d="M8.602,35.683c0.144,0.114,0.316,0.164,0.484,0.164c0.242,0,0.48-0.105,0.637-0.312
		c0.269-0.348,0.203-0.852-0.149-1.121c-0.605-0.461-1.012-1.067-1.148-1.695c-0.094-0.43-0.524-0.707-0.953-0.614
		c-0.43,0.094-0.703,0.52-0.61,0.953C7.078,34.058,7.695,34.992,8.602,35.683L8.602,35.683z M8.602,35.683"/>
	<path style="fill:#FDD74E;" d="M11.789,37.547c2.277,0.691,4.652,0.871,6.992,0.871c1.012,0,2.016-0.031,3-0.074
		c0.446-0.02,0.785-0.391,0.766-0.836c-0.016-0.442-0.422-0.774-0.832-0.766c-3.133,0.133-6.442,0.187-9.465-0.727
		c-0.422-0.128-0.867,0.11-0.996,0.532C11.125,36.972,11.363,37.418,11.789,37.547L11.789,37.547z M11.789,37.547"/>
	<path style="fill:#FDD74E;" d="M24.016,10c1.691,0,3.066-1.375,3.066-3.067c0-1.691-1.375-3.066-3.066-3.066
		c-1.688,0-3.067,1.375-3.067,3.066C20.949,8.625,22.324,10,24.016,10L24.016,10z M24.016,5.469c0.808,0,1.468,0.656,1.468,1.464
		c0,0.809-0.66,1.465-1.468,1.465c-0.809,0-1.465-0.656-1.465-1.465C22.551,6.125,23.207,5.469,24.016,5.469L24.016,5.469z
		 M24.016,5.469"/>
	<path style="fill:#FDD74E;" d="M4,7.867c2.168,0,3.934-1.766,3.934-3.934C7.934,1.765,6.168,0,4,0S0.066,1.765,0.066,3.933
		C0.066,6.101,1.832,7.867,4,7.867L4,7.867z M4,1.601c1.285,0,2.332,1.043,2.332,2.332c0,1.289-1.047,2.332-2.332,2.332
		c-1.285,0-2.332-1.043-2.332-2.332C1.668,2.644,2.715,1.601,4,1.601L4,1.601z M4,1.601"/>
	<path style="fill:#FDD74E;" d="M18.398,18.066c0,0.442-0.355,0.801-0.796,0.801c-0.446,0-0.801-0.359-0.801-0.801
		c0-0.441,0.355-0.801,0.801-0.801C18.043,17.265,18.398,17.625,18.398,18.066L18.398,18.066z M18.398,18.066"/>
	<path style="fill:#FDD74E;" d="M32.801,14.867c0,0.441-0.36,0.801-0.801,0.801s-0.801-0.36-0.801-0.801
		c0-0.441,0.36-0.801,0.801-0.801S32.801,14.426,32.801,14.867L32.801,14.867z M32.801,14.867"/>
	<path style="fill:#FDD74E;" d="M15.199,3.668c0,0.441-0.355,0.801-0.801,0.801c-0.441,0-0.796-0.36-0.796-0.801
		c0-0.442,0.355-0.801,0.796-0.801C14.844,2.867,15.199,3.226,15.199,3.668L15.199,3.668z M15.199,3.668"/>
</g>
</svg>
