<?xml version="1.0" encoding="iso-8859-1"?>
<!-- Generator: Adobe Illustrator 21.0.2, SVG Export Plug-In . SVG Version: 6.00 Build 0)  -->
<svg version="1.1" id="Layer_1" xmlns="http://www.w3.org/2000/svg" xmlns:xlink="http://www.w3.org/1999/xlink" x="0px" y="0px"
	 viewBox="-41.688 141 497.376 511.999" style="enable-background:new -41.688 141 497.376 511.999;" xml:space="preserve">
<path style="fill:#FDD74E;" d="M328.815,287.724c5.995,3.461,12.553,5.106,19.228,5.106c17.235,0,35.228-10.972,46.19-29.958
	c15.205-26.336,10.292-56.679-11.185-69.078c-21.476-12.401-50.212-1.484-65.416,24.851l0,0
	C302.423,244.98,307.337,275.323,328.815,287.724z M346.192,235.137L346.192,235.137c5.247-9.091,13.002-13.381,17.751-13.381
	c1.031,0,1.921,0.202,2.611,0.601c3.877,2.238,5.5,12.962-0.886,24.024c-6.386,11.063-16.487,15.018-20.362,12.78
	C341.429,256.922,339.804,246.199,346.192,235.137z"/>
<path style="fill:#FDD74E;" d="M299.547,323.098c16.453,11.333,35.908,17.419,56.382,17.419c55.007,0,99.758-44.752,99.758-99.758
	S410.936,141,355.929,141c-42.327,0-80.051,26.728-94.1,66.581c-22.199,50.485-36.887,66.369-54.831,84.539
	c-17.942-18.17-32.631-34.054-54.83-84.539C138.121,167.728,100.397,141,58.071,141c-55.007,0-99.758,44.752-99.758,99.758
	s44.752,99.758,99.758,99.758c20.474,0,39.93-6.086,56.382-17.419c9.44,14.939,14.47,25.6,19.374,35.99
	c2.234,4.734,4.519,9.571,7.175,14.71c-24.631,35.033-65.205,93.018-99.743,142.42c-14.088,20.152-19.395,44.567-14.94,68.748
	c4.455,24.182,18.112,45.104,38.456,58.915l13.433,9.117l9.327-13.286c1.009-1.438,71.412-101.716,119.465-169.591
	c48.028,67.836,118.687,168.481,119.465,169.591l9.327,13.286l13.432-9.117c20.345-13.811,34.003-34.735,38.456-58.916
	c4.454-24.18-0.852-48.595-14.941-68.747C340.638,470.3,298.472,410.031,273,373.804c2.6-5.037,4.868-9.834,7.171-14.715
	C285.076,348.698,290.107,338.037,299.547,323.098z M131.456,289.17l-11.466-16.398l-13.906,14.386
	c-12.7,13.139-29.753,20.375-48.015,20.375c-36.82,0-66.776-29.956-66.776-66.776c0.001-36.819,29.957-66.775,66.777-66.775
	c28.493,0,53.871,18.089,63.149,45.012l0.489,1.251c25.084,57.197,42.602,75.613,62.566,95.803
	c-6.527,7.425-13.633,16.157-21.533,27.031C156.282,329.416,148.622,313.717,131.456,289.17z M71.174,605.622
	c-6.3-7.568-10.583-16.666-12.419-26.63c-2.842-15.432,0.544-31.014,9.534-43.875c48.153-68.878,108.041-154.444,119.889-170.93
	c16.158-22.484,28.365-34.818,40.17-46.748c20.542-20.758,38.284-38.686,63.944-97.195l0.489-1.251
	c9.276-26.922,34.653-45.011,63.148-45.011c36.82,0,66.776,29.956,66.776,66.776s-29.956,66.776-66.776,66.776
	c-18.262,0-35.314-7.236-48.015-20.375l-13.905-14.386l-11.466,16.398c-17.98,25.711-25.534,41.719-32.198,55.842
	c-6.596,13.977-12.293,26.047-27.505,46.268C207.867,411.181,106.182,555.794,71.174,605.622z M345.709,535.117
	c8.991,12.861,12.377,28.443,9.535,43.874c-1.835,9.964-6.119,19.062-12.419,26.631c-23.004-32.742-78.295-111.382-115.599-164.003
	c10.675-14.997,18.626-26.065,21.968-30.508c1.768-2.351,3.399-4.587,4.957-6.762C279.822,440.908,316.837,493.817,345.709,535.117z
	"/>
<path style="fill:#FDD74E;" d="M68.337,192.74c-12.841-5.633-26.466-5.25-37.382,1.053c-10.916,6.302-18.061,17.911-19.604,31.847
	c-1.356,12.258,1.633,25.481,8.417,37.232c10.962,18.987,28.953,29.959,46.19,29.958c6.671-0.001,13.234-1.646,19.226-5.106
	c21.478-12.4,26.391-42.743,11.187-69.078C89.587,206.895,79.631,197.696,68.337,192.74z M68.694,259.16
	c-3.877,2.235-13.975-1.716-20.362-12.78c-3.249-5.627-4.779-11.865-4.198-17.113c0.178-1.605,0.855-5.493,3.313-6.911
	c0.785-0.453,1.697-0.623,2.625-0.623c1.972,0,4.008,0.768,5.016,1.21c4.835,2.122,9.473,6.566,12.721,12.192
	C74.194,246.199,72.571,256.922,68.694,259.16z"/>
<path style="fill:#FDD74E;" d="M220.674,365.688c-2.964-4.387-7.983-7.27-13.674-7.27s-10.712,2.884-13.674,7.27
	c-1.778,2.632-2.817,5.805-2.817,9.221c0,3.416,1.038,6.589,2.817,9.221c2.964,4.387,7.983,7.27,13.674,7.27
	s10.712-2.884,13.674-7.27c1.778-2.632,2.817-5.805,2.817-9.221C223.491,371.493,222.453,368.32,220.674,365.688z"/>
</svg>
