<?xml version="1.0" encoding="iso-8859-1"?>
<!-- Generator: Adobe Illustrator 21.0.2, SVG Export Plug-In . SVG Version: 6.00 Build 0)  -->
<svg version="1.1" id="&#x421;&#x43B;&#x43E;&#x439;_1"
	 xmlns="http://www.w3.org/2000/svg" xmlns:xlink="http://www.w3.org/1999/xlink" x="0px" y="0px" viewBox="0 0 272 394"
	 style="enable-background:new 0 0 272 394;" xml:space="preserve">
<g>
	<g>
		<defs>
			<rect id="SVGID_1_" width="271.92" height="394"/>
		</defs>
		<clipPath id="SVGID_2_">
			<use xlink:href="#SVGID_1_"  style="overflow:visible;"/>
		</clipPath>
		<path style="clip-path:url(#SVGID_2_);fill:#FDD74E;" d="M265.602,8c-4.27-4.801-9.602-7.465-16-8h-68.801
			c-3.199,0-5.469,1.332-6.801,4c-1.332,2.668-1.332,5.332,0,8c1.332,2.668,3.602,4,6.801,4h56.801v7.199h-56.801
			c-3.199,0-5.469,1.336-6.801,4c-1.332,2.668-1.332,5.199,0,7.601c1.332,2.399,3.602,3.598,6.801,3.598h56.801v8h-56.801
			c-3.199,0-5.469,1.336-6.801,4c-1.332,2.668-1.332,5.203,0,7.602c1.332,2.398,3.602,3.601,6.801,3.601h56.801v8h-56.801
			c-3.199,0-5.469,1.332-6.801,4c-1.332,2.664-1.332,5.199,0,7.598c1.332,2.402,3.602,3.601,6.801,3.601h56.801v8h-56.801
			c-3.199,0-5.469,1.332-6.801,4c-1.332,2.664-1.332,5.2,0,7.598c1.332,2.402,3.602,3.602,6.801,3.602h56.801v8h-56.801
			c-4.801,0-7.199,2.535-7.199,7.601c0,5.067,2.398,7.598,7.199,7.598h56.801v8h-56.801c-3.199,0-5.469,1.199-6.801,3.601
			c-1.332,2.399-1.332,4.934,0,7.598c1.332,2.668,3.602,4,6.801,4h56.801v7.203h-56.801c-3.199,0-5.469,1.332-6.801,4
			c-1.332,2.664-1.332,5.332,0,8c1.332,2.664,3.602,4,6.801,4h56.801v7.199h-56.801c-3.199,0-5.469,1.332-6.801,4
			c-1.332,2.664-1.332,5.2,0,7.598c1.332,2.402,3.602,3.602,6.801,3.602h56.801v8h-56.801v15.199h56.801V372
			c0,6.933,2.933,11.867,8.796,14.8c5.868,2.934,11.602,2.934,17.204,0c5.597-2.933,8.398-7.867,8.398-14.8V24
			C272,18.132,269.867,12.8,265.602,8L265.602,8z M265.602,8"/>
		<path style="clip-path:url(#SVGID_2_);fill:#FDD74E;" d="M158.398,274.8c-12.265-9.336-26.132-9.734-41.597-1.199V172.8
			L95.199,5.601C95.199,1.867,93.066,0,88.801,0C83.465,0.535,80.535,2.398,80,5.601L59.199,172.8v100.801
			C43.734,265.066,30,265.464,18,274.8C6,284.132,0,296,0,310.398C0,322.132,4,332,12,340c8,8,18.133,12,30.398,12
			C54.133,352,64,347.734,72,339.199c8-8.531,12-18.133,12-28.801V204.8h8v105.598c0,11.203,3.734,20.801,11.199,28.801
			c7.469,8,16.535,12.265,27.199,12.801c-0.531,18.132,3.469,30.933,12,38.398c4.27,3.734,8.536,4,12.801,0.801
			c4.266-3.199,5.067-7.199,2.403-12c-3.204-5.867-5.067-9.867-5.602-12c-0.535-2.133-0.266-8.531,0.801-19.199
			c16-7.465,24-20,24-37.602C176.801,296,170.668,284.132,158.398,274.8L158.398,274.8z M57.199,325.199c-4,4-8.801,6-14.398,6
			c-5.602,0-10.403-2-14.403-6c-4-4-6-8.934-6-14.801c0-5.863,2-10.797,6-14.797c4-4,8.801-6,14.403-6c5.597,0,10.398,2,14.398,6
			c4,4,6,8.934,6,14.797C63.199,316.265,61.199,321.199,57.199,325.199L57.199,325.199z M148.398,325.199c-4,4-8.796,6-14.398,6
			s-10.398-2-14.398-6c-4-4-6-8.934-6-14.801c0-5.863,2-10.797,6-14.797c4-4,8.796-6,14.398-6s10.398,2,14.398,6
			c4,4,6,8.934,6,14.797C154.398,316.265,152.398,321.199,148.398,325.199L148.398,325.199z M148.398,325.199"/>
	</g>
</g>
</svg>
