<?xml version="1.0" encoding="utf-8"?>
<!-- Generator: Adobe Illustrator 21.0.2, SVG Export Plug-In . SVG Version: 6.00 Build 0)  -->
<svg version="1.1" id="Режим_изоляции"
	 xmlns="http://www.w3.org/2000/svg" xmlns:xlink="http://www.w3.org/1999/xlink" x="0px" y="0px" viewBox="0 0 108.1 89.8"
	 style="enable-background:new 0 0 108.1 89.8;" xml:space="preserve">
<style type="text/css">
	.st0{fill:#FDD74E;}
</style>
<g>
	<path class="st0" d="M85.3,73c-5.7-5.3-14.5-7.4-19.6-1.9c-5.8-7.7-17.4-7.4-22.7,0.6c-5.2-6.2-14.4-4-20.1,1.3
		c0.3,1.7,0.4,7.3,0.4,9.2h61.6C84.9,80.3,85,74.7,85.3,73z M32.2,78.6c-1.4,0-2.6-1.1-2.6-2.6c0-1.4,1.1-2.6,2.6-2.6
		c1.4,0,2.6,1.1,2.6,2.6C34.7,77.4,33.6,78.6,32.2,78.6z M54.1,79.7c-2.7,0-4.9-2.2-4.9-4.9c0-2.7,2.2-4.9,4.9-4.9
		c2.7,0,4.9,2.2,4.9,4.9C58.9,77.5,56.7,79.7,54.1,79.7z M75.9,78.6c-1.4,0-2.6-1.1-2.6-2.6c0-1.4,1.1-2.6,2.6-2.6
		c1.4,0,2.6,1.1,2.6,2.6C78.5,77.4,77.3,78.6,75.9,78.6z"/>
	<path class="st0" d="M97.7,46.9c-0.4,0-0.9,0-1.3,0.1c0.1-0.4,0.1-0.9,0.1-1.3c0-5.9-4.5-10.6-10.1-10.6c-0.7,0-1.4,0.1-2.1,0.2
		c-0.3,0.1-0.5,0.3-0.5,0.5c-0.1,0.3,0.1,0.5,0.3,0.7c2.2,1.5,3.7,4.1,3.7,7.1c0,4.6-3.5,8.1-7.2,8.2c-6.4,0.3-10-3.9-10-8.7
		c0-4.8,4.5-8.7,10-8.7c0,0,0,0,0,0c0.3,0,0.5-0.1,0.6-0.4c0.1-0.2,0.1-0.5-0.1-0.7c-8.4-11.9-24.6-6.7-27,9.4
		c-1.4-9-7.7-15.8-15.4-15.8c-4.6,0-8.8,2.5-11.7,6.5c-0.1,0.2-0.2,0.5-0.1,0.7c0.1,0.2,0.3,0.4,0.6,0.4c0,0,0,0,0,0
		c5.5,0,10,3.9,10,8.7c0,4.8-3.6,9-10,8.7c-3.7-0.2-7.2-3.7-7.2-8.2c0-2.9,1.4-5.4,3.5-7c0.3-0.2,0.4-0.5,0.3-0.9
		c-0.1-0.3-0.3-0.6-0.7-0.6c-0.6-0.1-1.2-0.2-1.8-0.2c-5.6,0-10.1,4.8-10.1,10.6c0,0.4,0,0.9,0.1,1.3c-0.4-0.1-0.9-0.1-1.3-0.1
		C4.7,46.9,0,51.6,0,57.3c0,0.6,0.1,1.2,0.2,1.8c0.1,0.3,0.3,0.6,0.6,0.7c0.3,0.1,0.7-0.1,0.9-0.3c1.5-2.1,4-3.5,6.8-3.5
		c4.7,0,10.1,3.9,12.9,11.3c3.9-7.6,14.2-9.7,20.1-4.5c2-5.3,7.1-9.1,13.1-9.1c5.8,0,10.7,3.5,12.8,8.5c6-4.6,16-2.4,19.4,5.1
		c2.8-7.4,8.2-11.3,12.9-11.3c2.9,0,5.5,1.5,7,3.7c0.2,0.2,0.4,0.3,0.7,0.3c0.3-0.1,0.5-0.3,0.6-0.5c0.1-0.7,0.2-1.4,0.2-2.1
		C108.1,51.6,103.4,46.9,97.7,46.9z"/>
	<path class="st0" d="M54.1,35.9c0.8-3.8,3.3-7.1,6.8-9.2c-0.3-6.8-2.6-18.8-6-26.2C54.7,0.2,54.4,0,54.1,0c-0.4,0-0.7,0.2-0.8,0.5
		c-3.4,7.4-5.7,19.4-6,26.2C50.7,28.8,53.2,32.1,54.1,35.9z"/>
	<path class="st0" d="M45.8,24.8c0.1-1.3,0.4-3.4,0.7-4.6c-3-0.7-6.2,1.2-6.8,4.3c2.2,0.1,4.2,0.6,6,1.5
		C45.7,25.9,45.8,24.8,45.8,24.8z"/>
	<path class="st0" d="M62.4,26c1.8-0.8,3.9-1.4,6-1.5c-0.7-3.1-3.8-5.1-6.8-4.3c0.3,1.3,0.6,3.5,0.7,4.6
		C62.3,24.8,62.4,25.9,62.4,26z"/>
	<rect x="22.8" y="84.4" class="st0" width="62.4" height="5.4"/>
</g>
</svg>
