<?xml version="1.0" encoding="iso-8859-1"?>
<!-- Generator: Adobe Illustrator 21.0.2, SVG Export Plug-In . SVG Version: 6.00 Build 0)  -->
<svg version="1.1" id="&#x421;&#x43B;&#x43E;&#x439;_1"
	 xmlns="http://www.w3.org/2000/svg" xmlns:xlink="http://www.w3.org/1999/xlink" x="0px" y="0px" viewBox="0 0 243.84 138.96"
	 style="enable-background:new 0 0 243.84 138.96;" xml:space="preserve">
<g>
	<g>
		<defs>
			<rect id="SVGID_1_" x="0" width="243.84" height="138.96"/>
		</defs>
		<clipPath id="SVGID_2_">
			<use xlink:href="#SVGID_1_"  style="overflow:visible;"/>
		</clipPath>
		<path style="clip-path:url(#SVGID_2_);fill-rule:evenodd;clip-rule:evenodd;fill:#FDD74E;" d="M209.555,87.821
			c8.078,7.887,16.601,15.305,23.847,23.989c3.2,3.855,6.231,7.836,8.547,12.312c3.285,6.363,0.309,13.367-5.398,13.75
			l-35.469-0.019c-9.152,0.761-16.449-2.922-22.586-9.176c-4.91-5.004-9.461-10.328-14.18-15.5
			c-1.937-2.113-3.964-4.102-6.386-5.672c-4.84-3.145-9.043-2.184-11.813,2.867c-2.816,5.137-3.457,10.824-3.734,16.551
			c-0.379,8.351-2.903,10.547-11.293,10.93c-17.934,0.847-34.949-1.868-50.758-10.911c-13.937-7.976-24.746-19.234-34.152-31.976
			c-18.317-24.82-32.344-52.09-44.95-80.121c-2.839-6.317-0.761-9.707,6.208-9.828c11.57-0.223,23.14-0.207,34.726-0.016
			c4.703,0.07,7.816,2.766,9.633,7.211c6.262,15.394,13.922,30.039,23.539,43.617c2.559,3.613,5.172,7.227,8.891,9.774
			c4.113,2.816,7.242,1.882,9.179-2.7c1.227-2.906,1.766-6.035,2.043-9.148c0.914-10.707,1.035-21.395-0.57-32.063
			c-0.988-6.66-4.738-10.968-11.383-12.23c-3.391-0.641-2.887-1.902-1.242-3.84c2.848-3.336,5.531-5.414,10.875-5.414h40.09
			c6.312,1.246,7.715,4.082,8.578,10.43l0.035,44.531c-0.07,2.461,1.227,9.754,5.656,11.383c3.543,1.156,5.879-1.68,8.004-3.926
			c9.598-10.187,16.449-22.227,22.57-34.691c2.715-5.485,5.051-11.176,7.313-16.864c1.68-4.222,4.309-6.297,9.063-6.207
			l38.585,0.035c1.141,0,2.301,0.016,3.407,0.207c6.504,1.11,8.285,3.907,6.277,10.254c-3.164,9.961-9.32,18.262-15.34,26.602
			c-6.433,8.902-13.316,17.5-19.695,26.457C201.809,76.599,202.273,80.72,209.555,87.821L209.555,87.821z M209.555,87.821"/>
	</g>
</g>
</svg>
