<svg xmlns="http://www.w3.org/2000/svg" viewBox="0 0 283.871 309.322"><style>.st0{fill:#998373}.st1{fill:#fcd27f}.st2{fill:#e8edee}.st3{fill:#13303a}.st4{fill:#fff}.st5{fill:#1f2449}.st6{fill:#f5b897}.st7{fill:#ba1e4d}.st8{fill:#062231}.st9{font-family:&amp;apos;MyriadPro-Bold&amp;apos;}.st10{font-size:75px}</style><g id="Слой_5"><g id="XMLID_1_"><path id="XMLID_25_" class="st0" d="M60.666 228.162h157.353V0H60.666v228.162z"/><path id="XMLID_24_" class="st1" d="M76.401 228.162h125.882V15.735H76.401v212.427z"/><path id="XMLID_23_" class="st3" d="M102.641 159.638h7.303v1.867h-7.303z"/><path id="XMLID_45_" class="st4" d="M191.341 228.162c.032-.543.054-1.089.054-1.639v-46.134c0-15.127-12.377-27.503-27.503-27.503h-26.444c-15.127 0-27.504 12.377-27.504 27.503v46.134c0 .551.021 1.096.054 1.639h81.343z"/><g id="XMLID_29_"><g id="XMLID_3_"><path id="XMLID_4_" class="st5" d="M196.144 191.565v34.585h-.235l-2.223 1.13c-1.13.567 10.593-2.049-20.758-2.049-7.336 0-15.42-.523-24.144-1.726 18.246-12.825 24.272-29.206 37.851-58.749 5.942 7.329 9.509 16.657 9.509 26.809zm-15.363-32.761c-7.404-6.179-16.922-9.903-27.3-9.903h-28.274c-11.822 0-22.532 4.842-30.268 12.64h1.77l2.11 59.466a210.86 210.86 0 0 0 11.125 2.496c13.744-9.211 57.704-32.18 70.837-64.699zm-92.202-9.183h1.045V58.919h-8.7v44.934c-.345-.042-.688-.103-1.042-.103a8.702 8.702 0 0 0-8.704 8.702v37.171h-9.705v14.074h9.705v33.099H52.089v12.249h19.088v20.854h21.679v-66.206h-4.277v-14.072z"/></g><g id="XMLID_9_"><path id="XMLID_19_" class="st6" d="M106.639 114.05c0 18.066 14.644 32.712 32.709 32.712 18.068 0 32.707-14.644 32.707-32.712 0-1.115-.079-11.501-.2-12.588h-65.017c-.113 1.087-.199 11.474-.199 12.588z"/></g></g><g id="XMLID_12_"><path id="XMLID_13_" class="st7" d="M128.365 228.162h63.397a37.276 37.276 0 0 0 1.923-.882l2.223-1.13h.235v-34.585c0-10.151-3.567-19.48-9.509-26.809-11.501 25.021-39.027 48.892-58.269 63.406z"/><path id="XMLID_14_" class="st7" d="M96.709 228.162h18.453c18.455-13.127 54.29-41.306 65.619-69.357-7.404-6.179-16.922-9.903-27.3-9.903h-28.274c-11.822 0-22.532 4.842-30.268 12.64h1.77v66.62z"/></g><ellipse id="XMLID_2_" class="st3" cx="141.927" cy="168.766" rx="2.573" ry="1.328"/><ellipse id="XMLID_15_" class="st3" cx="141.927" cy="185.212" rx="2.573" ry="1.328"/><ellipse id="XMLID_16_" class="st3" cx="141.927" cy="200.303" rx="2.573" ry="1.328"/><path id="XMLID_20_" class="st8" d="M139.354 128.048a.743.743 0 0 1-.741-.741V116.59c0-.408.334-.741.741-.741.408 0 .741.334.741.741v10.717a.743.743 0 0 1-.741.741z"/></g><text id="XMLID_17_" transform="translate(0 290.572)" class="st9 st10">КАПРАЛ</text><path id="XMLID_21_" class="st3" d="M182.964 79.678c0-5.8-5.092-11.19-14.404-15.178-8.282-3.547-18.902-5.581-29.169-5.581s-20.897 2.034-29.178 5.581c-9.311 3.988-14.468 9.378-14.468 15.178 0 4.562 3.071 8.87 9.035 12.442v7.256c0 .132.044.261.053.39-.013.135-.003.271-.003.409 0 4.38 7.62 8.016 10.893 9.375 4.092 1.7 12.613 4.552 23.683 4.552s19.589-2.852 23.681-4.552c3.273-1.36 10.886-4.995 10.886-9.375 0-.138-.078-.275-.091-.409.009-.129-.051-.258-.051-.39V92.12c5.961-3.572 9.133-7.88 9.133-12.442zm-50.457-8.768c1.3 0 2.354 1.054 2.354 2.354 0 1.583.761 2.977 1.991 3.792-.002-.04-.058-.079-.058-.119V65.011a2.354 2.354 0 0 1 4.708 0v11.927c0 .109.042.216.028.321 1.414-.772 2.402-2.273 2.402-3.994a2.365 2.365 0 0 1 4.728 0c0 5.104-4.149 9.256-9.253 9.256s-9.254-4.152-9.254-9.256a2.352 2.352 0 0 1 2.354-2.355zm34.521 29.567h-55.554a2.354 2.354 0 0 1 0-4.708h55.554a2.354 2.354 0 0 1 0 4.708z"/></g><g id="Слой_7"><path id="XMLID_7_" class="st3" d="M106.292 74.072l33.113-14 38.345 18.25-8.368 15 2.474 8.141-29.835 7.359-37.189-9.056 4.289-11.444z"/></g></svg>