<svg id="Слой_1" xmlns="http://www.w3.org/2000/svg" viewBox="0 0 1280 800"><style>.st0{fill:#1181a8}.st1{fill:#239ed7}.st2{fill:#995250}.st3{fill:#b8716d}</style><path class="st0" d="M458 333.5l-45.7-23.1 8.6-4.5 9.1-2.3 172.6 9.4-153.3 107.7-11.7 2.8-9.6-7.1 33.6-36.5 2-7"/><path class="st1" d="M456 330.5l-43.7-20.1 6.6-7.5 9.1-2.3L602.6 313 447.3 417.7l-11.7 2.8-7.6-4.1 31.6-39.5 2-7"/><path class="st2" d="M391.8 345.5l35.4 4.5 11.6-13.9 45.3-7 100.5-13L488 356l-32.5 23-9-.3-71.9-27.8z"/><path class="st3" d="M388.8 342.5l35.4 4.5 11.6-13.9 45.3-7 103.5-10L485 353l-32.5 23-9-.3-68.9-24.8z"/></svg>