<svg id="Слой_1" xmlns="http://www.w3.org/2000/svg" viewBox="0 0 210 150"><style>.st0{fill:#1181a8}.st1{fill:#239ed7}.st2{fill:#995250}.st3{fill:#b8716d}</style><path class="st0" d="M75.9 57.8L25.7 47.6l7.2-6.6 8-4.6L210 0 90.4 144.2 79.8 150l-11.1-4.3 22.8-44 .1-7.3"/><path class="st1" d="M73.2 55.5l-47.5-7.9 4.4-9 8.1-4.6L210 0 87.7 141.9l-10.6 5.7-8.4-1.9 20.1-46.4.1-7.2"/><path class="st2" d="M15.1 86.9l35.4-5L58 65.4l41.9-18.6 93.5-39-82.7 63.9-25.3 30.7-8.7 2.1L0 96.6z"/><path class="st3" d="M11.5 84.8l35.3-5 7.5-16.5 41.9-18.6 97.2-36.9L107 69.6l-25.3 30.7-8.7 2.1-73-5.8z"/></svg>