<svg id="Слой_1" xmlns="http://www.w3.org/2000/svg" viewBox="0 0 16.7 16.7"><style>.st0{fill:#fff;stroke:#009fda;stroke-miterlimit:10}</style><path class="st0" d="M4 .5c.5.2 1 .6 1.5.9.6.5 1 1.1 1.3 1.8.1.3.1.6.2.8 0 .2-.1.4-.2.5-.6.5-.9 1-1.2 1.5-.1.1-.2.2-.2.3-.2.3-.1.5 0 .8.3.5.6 1 1 1.5.5.7 1.1 1.2 1.7 1.8.6.5 1.2.9 1.9 1.3h.2c.2-.1.5-.2.7-.3.5-.3 1-.7 1.4-1 .2-.2.4-.2.7-.1.8.2 1.6.6 2.2 1.1.4.3.7.6.9 1 .1.1.1.2.1.3v.4c-.1.8-.4 1.5-.9 2.1-.4.5-.8.9-1.4 1.1h-.2c-.8-.2-1.6-.5-2.4-.7-.8-.3-1.5-.6-2.2-1-.8-.5-1.6-1-2.3-1.6-1-1-1.8-1.9-2.6-2.8-.8-1-1.4-2-2-3.1-.5-1-.9-2-1.3-3-.1-.4-.3-.8-.4-1.2v-.3c.2-.4.4-.8.7-1 .6-.5 1.3-.8 2-1 .2 0 .3-.1.5-.1H4z"/></svg>