<svg id="Слой_1" xmlns="http://www.w3.org/2000/svg" viewBox="0 0 228 122.9"><style>.st0{fill:#1181a8}.st1{fill:#239ed7}.st2{fill:#995250}.st3{fill:#b8716d}</style><path class="st0" d="M83.4 32.9l-45.7-23 8.6-4.5 9-2.4L228 12.4 74.6 120.1l-11.7 2.8-9.6-7.1 33.6-36.4 2-7"/><path class="st1" d="M81.4 29.9l-43.7-20 6.6-7.5 9-2.4L228 12.4 72.6 117.1l-11.7 2.8-7.6-4.1 31.6-39.4 2-7"/><path class="st2" d="M17.2 44.9l35.3 4.5 11.6-13.9 45.4-6.9 100.4-13-96.5 39.8-32.5 23-9.1-.2L0 50.3z"/><path class="st3" d="M14.2 41.9l35.3 4.5 11.6-13.9 45.4-6.9 103.4-10-99.5 36.8-32.5 23-9.1-.2L0 50.3z"/></svg>