<svg xmlns="http://www.w3.org/2000/svg" xmlns:xlink="http://www.w3.org/1999/xlink" viewBox="0 0 42 77"><defs><path id="a" d="M0 .098h42V77H0z"/></defs><clipPath id="b"><use xlink:href="#a" overflow="visible"/></clipPath><path d="M40.012.015L30.039 0C18.836 0 11.594 7.429 11.594 18.925v8.727H1.566c-.863 0-1.566.699-1.566 1.566v12.645c0 .863.703 1.566 1.566 1.566h10.028v31.903a1.57 1.57 0 0 0 1.57 1.566h13.078a1.57 1.57 0 0 0 1.57-1.566V43.429h11.723c.867 0 1.567-.703 1.567-1.566l.007-12.645a1.565 1.565 0 0 0-1.57-1.566H27.812v-7.398c0-3.555.848-5.36 5.477-5.36l6.719-.004c.867 0 1.566-.703 1.566-1.566V1.586c0-.868-.699-1.567-1.562-1.571zm0 0" clip-path="url(#b)" fill="#fdd74e"/></svg>