<svg xmlns="http://www.w3.org/2000/svg" xmlns:xlink="http://www.w3.org/1999/xlink" viewBox="0 0 288 560"><defs><path id="a" d="M232.504 60H54.324C-18.09 60-77 118.91-77 191.324v178.18c0 72.41 58.91 131.324 131.324 131.324h178.18c72.41 0 131.324-58.914 131.324-131.324v-178.18C363.828 118.91 304.914 60 232.504 60zm86.976 309.504c0 48.035-38.941 86.976-86.976 86.976H54.324c-48.035 0-86.976-38.941-86.976-86.976v-178.18c0-48.035 38.941-86.977 86.976-86.977h178.18c48.035 0 86.976 38.942 86.976 86.977v178.18zm0 0"/></defs><defs><path id="c" d="M-77 59.947h440.88v441.84H-77z"/></defs><clipPath id="b"><use xlink:href="#a" overflow="visible"/></clipPath><clipPath id="d" clip-path="url(#b)"><use xlink:href="#c" overflow="visible"/></clipPath><g clip-path="url(#d)"><defs><path id="e" d="M-77 59.947h440.88v441.12H-77z"/></defs><clipPath id="f"><use xlink:href="#e" overflow="visible"/></clipPath><g clip-path="url(#f)"><image width="924" height="922" xlink:href="8CC87BBC.jpg" transform="matrix(.48 0 0 -.48 -77.571 501.94)" overflow="visible"/></g></g><defs><path id="g" d="M143.414 166.398c-62.867 0-114.016 51.149-114.016 114.016 0 62.863 51.149 114.012 114.016 114.012s114.012-51.145 114.012-114.012-51.145-114.016-114.012-114.016zm0 183.68c-38.476 0-69.668-31.188-69.668-69.664 0-38.477 31.192-69.668 69.668-69.668 38.477 0 69.664 31.191 69.664 69.668 0 38.476-31.187 69.664-69.664 69.664zm0 0"/></defs><defs><path id="i" d="M-77 59.947h440.88v441.84H-77z"/></defs><clipPath id="h"><use xlink:href="#g" overflow="visible"/></clipPath><clipPath id="j" clip-path="url(#h)"><use xlink:href="#i" overflow="visible"/></clipPath><g clip-path="url(#j)"><defs><path id="k" d="M29.32 166.267h228.24v228.24H29.32z"/></defs><clipPath id="l"><use xlink:href="#k" overflow="visible"/></clipPath><g clip-path="url(#l)"><image width="480" height="479" xlink:href="8CC87BBF.jpg" transform="matrix(.48 0 0 -.48 28.509 395.318)" overflow="visible"/></g></g><defs><path id="m" d="M284.965 167.258c0 15.086-12.231 27.32-27.32 27.32-15.086 0-27.321-12.234-27.321-27.32 0-15.09 12.235-27.321 27.321-27.321 15.089 0 27.32 12.231 27.32 27.321zm0 0"/></defs><defs><path id="o" d="M-77 59.947h440.88v441.84H-77z"/></defs><clipPath id="n"><use xlink:href="#m" overflow="visible"/></clipPath><clipPath id="p" clip-path="url(#n)"><use xlink:href="#o" overflow="visible"/></clipPath><g clip-path="url(#p)"><defs><path id="q" d="M230.2 139.867h54.96v54.72H230.2z"/></defs><clipPath id="r"><use xlink:href="#q" overflow="visible"/></clipPath><g clip-path="url(#r)"><image width="120" height="118" xlink:href="8CC87BBA.jpg" transform="matrix(.48 0 0 -.48 229.034 195.835)" overflow="visible"/></g></g></svg>