<svg xmlns="http://www.w3.org/2000/svg" xmlns:xlink="http://www.w3.org/1999/xlink" viewBox="0 0 272 394"><defs><path id="a" d="M0 0h271.92v394H0z"/></defs><clipPath id="b"><use xlink:href="#a" overflow="visible"/></clipPath><path d="M265.602 8c-4.27-4.801-9.602-7.465-16-8h-68.801c-3.199 0-5.469 1.332-6.801 4-1.332 2.668-1.332 5.332 0 8s3.602 4 6.801 4h56.801v7.199h-56.801c-3.199 0-5.469 1.336-6.801 4-1.332 2.668-1.332 5.199 0 7.601 1.332 2.399 3.602 3.598 6.801 3.598h56.801v8h-56.801c-3.199 0-5.469 1.336-6.801 4-1.332 2.668-1.332 5.203 0 7.602 1.332 2.398 3.602 3.601 6.801 3.601h56.801v8h-56.801c-3.199 0-5.469 1.332-6.801 4-1.332 2.664-1.332 5.199 0 7.598 1.332 2.402 3.602 3.601 6.801 3.601h56.801v8h-56.801c-3.199 0-5.469 1.332-6.801 4-1.332 2.664-1.332 5.2 0 7.598 1.332 2.402 3.602 3.602 6.801 3.602h56.801v8h-56.801c-4.801 0-7.199 2.535-7.199 7.601 0 5.067 2.398 7.598 7.199 7.598h56.801v8h-56.801c-3.199 0-5.469 1.199-6.801 3.601-1.332 2.399-1.332 4.934 0 7.598 1.332 2.668 3.602 4 6.801 4h56.801v7.203h-56.801c-3.199 0-5.469 1.332-6.801 4-1.332 2.664-1.332 5.332 0 8 1.332 2.664 3.602 4 6.801 4h56.801v7.199h-56.801c-3.199 0-5.469 1.332-6.801 4-1.332 2.664-1.332 5.2 0 7.598 1.332 2.402 3.602 3.602 6.801 3.602h56.801v8h-56.801v15.199h56.801V372c0 6.933 2.933 11.867 8.796 14.8 5.868 2.934 11.602 2.934 17.204 0 5.597-2.933 8.398-7.867 8.398-14.8V24c0-5.868-2.133-11.2-6.398-16zM158.398 274.8c-12.265-9.336-26.132-9.734-41.597-1.199V172.8L95.199 5.601C95.199 1.867 93.066 0 88.801 0 83.465.535 80.535 2.398 80 5.601L59.199 172.8v100.801C43.734 265.066 30 265.464 18 274.8 6 284.132 0 296 0 310.398 0 322.132 4 332 12 340s18.133 12 30.398 12C54.133 352 64 347.734 72 339.199c8-8.531 12-18.133 12-28.801V204.8h8v105.598c0 11.203 3.734 20.801 11.199 28.801 7.469 8 16.535 12.265 27.199 12.801-.531 18.132 3.469 30.933 12 38.398 4.27 3.734 8.536 4 12.801.801 4.266-3.199 5.067-7.199 2.403-12-3.204-5.867-5.067-9.867-5.602-12-.535-2.133-.266-8.531.801-19.199 16-7.465 24-20 24-37.602 0-14.398-6.133-26.266-18.403-35.598zM57.199 325.199c-4 4-8.801 6-14.398 6-5.602 0-10.403-2-14.403-6s-6-8.934-6-14.801c0-5.863 2-10.797 6-14.797s8.801-6 14.403-6c5.597 0 10.398 2 14.398 6s6 8.934 6 14.797c0 5.867-2 10.801-6 14.801zm91.199 0c-4 4-8.796 6-14.398 6s-10.398-2-14.398-6-6-8.934-6-14.801c0-5.863 2-10.797 6-14.797s8.796-6 14.398-6 10.398 2 14.398 6 6 8.934 6 14.797c0 5.867-2 10.801-6 14.801zm0 0" clip-path="url(#b)" fill="#fdd74e"/></svg>