<svg xmlns="http://www.w3.org/2000/svg" viewBox="0 0 44.801 44.469"><g fill="#fdd74e"><path d="M44.801 25.265a3.206 3.206 0 0 0-3.199-3.199H28.527c0-.012.008-.023.008-.039 0-5.07-3.656-9.39-8.597-10.273a7.068 7.068 0 0 0-6.848-5.285C9.18 6.469 6 9.648 6 13.554c0 .301.023.61.062.918-3.792 1.883-3.718 5.071-3.671 7.012.004.203.007.399.007.582 0 .039.02.071.024.11A3.193 3.193 0 0 0 0 25.265a3.2 3.2 0 0 0 2.398 3.09v1.114c0 5.367 3.664 10.066 8.801 11.414v.785A2.806 2.806 0 0 0 14 44.469a2.81 2.81 0 0 0 2.773-2.403h12.055a2.807 2.807 0 0 0 2.774 2.403 2.802 2.802 0 0 0 2.796-2.801v-.785c5.137-1.348 8.801-6.047 8.801-11.414v-1.446c.953-.558 1.602-1.578 1.602-2.758zM7.266 15.683l.621-.257-.149-.657a5.492 5.492 0 0 1 5.352-6.703 5.474 5.474 0 0 1 5.398 4.535l.102.582.586.071a8.849 8.849 0 0 1 7.758 8.773c0 .012.007.024.007.039H4c0-.199-.004-.406-.012-.621-.043-1.941-.101-4.351 3.278-5.762zm34.336 13.786c0 4.828-3.434 9.031-8.161 9.992l-.64.133v2.074a1.202 1.202 0 0 1-2.403 0v-1.199H15.199v1.199c0 .66-.539 1.199-1.199 1.199s-1.199-.539-1.199-1.199v-2.074l-.641-.133C7.43 38.5 4 34.297 4 29.469v-1h37.602v1zm0-2.602H3.199a1.6 1.6 0 0 1 0-3.199h38.403c.878 0 1.597.719 1.597 1.597 0 .883-.719 1.602-1.597 1.602zm0 0"/><path d="M8.602 35.683a.774.774 0 0 0 .484.164.798.798 0 0 0 .488-1.433c-.605-.461-1.012-1.067-1.148-1.695a.806.806 0 0 0-.953-.614.802.802 0 0 0-.61.953c.215 1 .832 1.934 1.739 2.625zm3.187 1.864c2.277.691 4.652.871 6.992.871 1.012 0 2.016-.031 3-.074a.798.798 0 0 0 .766-.836c-.016-.442-.422-.774-.832-.766-3.133.133-6.442.187-9.465-.727a.799.799 0 1 0-.461 1.532zM24.016 10a3.07 3.07 0 0 0 3.066-3.067 3.069 3.069 0 0 0-3.066-3.066 3.072 3.072 0 0 0-3.067 3.066A3.07 3.07 0 0 0 24.016 10zm0-4.531c.808 0 1.468.656 1.468 1.464 0 .809-.66 1.465-1.468 1.465a1.465 1.465 0 0 1 0-2.929zM4 7.867a3.94 3.94 0 0 0 3.934-3.934C7.934 1.765 6.168 0 4 0S.066 1.765.066 3.933A3.94 3.94 0 0 0 4 7.867zm0-6.266a2.333 2.333 0 0 1 0 4.664 2.333 2.333 0 0 1 0-4.664zm14.398 16.465a.798.798 0 1 1-1.597 0 .8.8 0 1 1 1.597 0zm14.403-3.199c0 .441-.36.801-.801.801s-.801-.36-.801-.801c0-.441.36-.801.801-.801s.801.36.801.801zM15.199 3.668a.8.8 0 1 1-1.597 0 .798.798 0 1 1 1.597 0zm0 0"/></g></svg>