<svg xmlns="http://www.w3.org/2000/svg" viewBox="-49 201.558 512 390.884"><path d="M274.102 202.5c-42.016 21.012-92.197 21.012-134.204 0a8.877 8.877 0 0 0-11.204 2.781L-49 454.053l14.455 10.324L138.84 221.646c43.189 19.173 93.112 19.173 136.309 0l173.394 242.74L463 454.062 285.306 205.29a8.901 8.901 0 0 0-11.204-2.79zm159.054 284.062l11.959 13.141a372.031 372.031 0 0 0 13.158-12.572l-12.599-12.545a351.077 351.077 0 0 1-12.518 11.976zm-13.105 11.337a351.823 351.823 0 0 1-13.647 10.671l10.599 14.26a367.145 367.145 0 0 0 14.34-11.213l-11.292-13.718zM3.367 505.38a339.143 339.143 0 0 1-13.478-10.875l-11.497 13.558a358.196 358.196 0 0 0 14.189 11.426L3.367 505.38zm34.952 43.926a344.49 344.49 0 0 0 16.206 8.334l7.721-16.001a339.315 339.315 0 0 1-15.388-7.925l-8.539 15.592zm316.136 10.698a375.295 375.295 0 0 0 16.312-8.058l-8.263-15.735a343.502 343.502 0 0 1-15.531 7.676l7.482 16.117zM7.294 530.195a350.512 350.512 0 0 0 15.264 9.951l9.32-15.131a339.852 339.852 0 0 1-14.5-9.444L7.294 530.195zm379.386 12.83a351.82 351.82 0 0 0 15.415-9.711l-9.853-14.784a339.287 339.287 0 0 1-14.633 9.222l9.071 15.273zm-101.081 40.55a346.4 346.4 0 0 0 17.627-4.54l-4.86-17.094a336.133 336.133 0 0 1-16.766 4.309l3.999 17.325zm-35.895 6.308a353.564 353.564 0 0 0 18.018-2.683l-3.074-17.512a337.037 337.037 0 0 1-17.121 2.559l2.177 17.636zM71.139 565.13a354.229 354.229 0 0 0 16.97 6.619l6.042-16.712a336.082 336.082 0 0 1-16.117-6.29l-6.895 16.383zm34.295 12.341a347.466 347.466 0 0 0 17.583 4.824l4.256-17.245a323.79 323.79 0 0 1-16.694-4.585l-5.145 17.006zM-35.389 470.819l-12.776 12.359a380.813 380.813 0 0 0 12.972 12.767l12.145-12.963a378.714 378.714 0 0 1-12.341-12.163zm356.02 102.76a355.961 355.961 0 0 0 17.085-6.361l-6.628-16.481a342.591 342.591 0 0 1-16.215 6.033l5.758 16.809zm-107.292 18.863a336.812 336.812 0 0 0 18.214-.809l-1.253-17.716c-5.748.4-11.515.649-17.272.755l.311 17.77zm-72.517-6.246a353.997 353.997 0 0 0 17.974 2.967l2.443-17.592a341.456 341.456 0 0 1-17.076-2.825l-3.341 17.45zm36.09 5.002c6.059.533 12.128.897 18.196 1.093l.604-17.752a339.95 339.95 0 0 1-17.254-1.039l-1.546 17.698z" fill="#fdd74e"/><path d="M393.957 428.945a322.395 322.395 0 0 1-14.393 9.551l9.427 15.06a346.001 346.001 0 0 0 15.193-10.075l-10.227-14.536zm-60.363 33.327a318.503 318.503 0 0 1-16.108 6.184l5.899 16.766a335.755 335.755 0 0 0 17.032-6.548l-6.823-16.402zm-32.545 11.461a306.195 306.195 0 0 1-16.703 4.345l3.989 17.316a312.428 312.428 0 0 0 17.672-4.611l-4.958-17.05zm-33.637 7.756a299.993 299.993 0 0 1-17.076 2.434l2.017 17.645a318.979 318.979 0 0 0 18.08-2.577l-3.021-17.502zm-34.286 3.901c-5.748.329-11.497.489-17.245.489v17.769c6.086 0 12.172-.178 18.258-.524l-1.013-17.734zm131.538-38.134a309.277 309.277 0 0 1-15.326 7.934l7.721 16.001a322.4 322.4 0 0 0 16.206-8.378l-8.601-15.557zM66.839 474.435a376.12 376.12 0 0 0 16.872 6.841l6.264-16.623a369.827 369.827 0 0 1-16.064-6.504l-7.072 16.286zm-63.384-35.77a385.486 385.486 0 0 0 15.104 10.146l9.542-14.997a365.732 365.732 0 0 1-14.393-9.658L3.455 438.665zm30.768 19.511a373.15 373.15 0 0 0 16.081 8.547l7.952-15.895a342.05 342.05 0 0 1-15.299-8.13l-8.734 15.478zm13.629-81.535a357.733 357.733 0 0 0 15.69 7.499l7.25-16.224a334.46 334.46 0 0 1-14.891-7.117l-8.049 15.842zM284.55 406.12a366.986 366.986 0 0 0 16.837-4.265l-4.771-17.112a343.496 343.496 0 0 1-16.001 4.043l3.935 17.334zm58.586-38.177l7.25 16.224a355.586 355.586 0 0 0 15.682-7.49l-8.05-15.841a331.406 331.406 0 0 1-14.882 7.107zm-92.81 44.165a343.315 343.315 0 0 0 17.201-2.577l-3.092-17.494a325.194 325.194 0 0 1-16.295 2.434l2.186 17.637zm-34.65 2.586a364.234 364.234 0 0 0 17.361-.862l-1.315-17.716c-5.482.409-10.973.675-16.472.809l.426 17.769zm-34.757-.862c5.775.426 11.559.711 17.343.871l.471-17.769a340.346 340.346 0 0 1-16.49-.817l-1.324 17.715zM79.562 390.847a354.737 354.737 0 0 0 16.339 5.908l5.642-16.845a330.44 330.44 0 0 1-15.522-5.615l-6.459 16.552zm32.98 11a332.003 332.003 0 0 0 16.863 4.265l3.9-17.334a323.29 323.29 0 0 1-15.984-4.043l-4.779 17.112zm199.862-21.937l5.606 16.863a356.598 356.598 0 0 0 16.357-5.908l-6.459-16.552a313.304 313.304 0 0 1-15.504 5.597zm-165.958 29.631a365.861 365.861 0 0 0 17.165 2.568l2.221-17.627a353.89 353.89 0 0 1-16.33-2.443l-3.056 17.502zm85.196-102.281l1.315 17.716a353.107 353.107 0 0 0 17.272-1.706l-2.186-17.627a325.617 325.617 0 0 1-16.401 1.617zm-32.963.808l-.435 17.769a348.779 348.779 0 0 0 17.361 0l-.435-17.769c-5.482.143-10.982.143-16.491 0zm65.676-4.877l3.074 17.512a348.896 348.896 0 0 0 17.023-3.421l-3.918-17.334a317.908 317.908 0 0 1-16.179 3.243zm32.154-7.268l4.771 17.112a336.925 336.925 0 0 0 16.606-5.073l-5.624-16.845a350.609 350.609 0 0 1-15.753 4.806zm-132.889 27.32c5.74.711 11.506 1.288 17.263 1.715l1.333-17.716a341.76 341.76 0 0 1-16.419-1.635l-2.177 17.636zm-34.197-5.988a363.133 363.133 0 0 0 17.014 3.421l3.074-17.512a327.346 327.346 0 0 1-16.161-3.243l-3.927 17.334zm-33.451-9.338a371.606 371.606 0 0 0 16.579 5.091l4.824-17.112a352.012 352.012 0 0 1-15.779-4.833l-5.624 16.854zm57.715 124.653c-29.4 0-53.308 23.909-53.308 53.308s23.909 53.308 53.308 53.308 53.308-23.909 53.308-53.308-23.908-53.308-53.308-53.308zm0 88.847c-19.6 0-35.539-15.939-35.539-35.539s15.939-35.539 35.539-35.539 35.539 15.939 35.539 35.539-15.939 35.539-35.539 35.539z" fill="#fdd74e"/></svg>