<svg xmlns="http://www.w3.org/2000/svg" viewBox="-41.688 141 497.376 511.999"><path d="M328.815 287.724c5.995 3.461 12.553 5.106 19.228 5.106 17.235 0 35.228-10.972 46.19-29.958 15.205-26.336 10.292-56.679-11.185-69.078-21.476-12.401-50.212-1.484-65.416 24.851-15.209 26.335-10.295 56.678 11.183 69.079zm17.377-52.587c5.247-9.091 13.002-13.381 17.751-13.381 1.031 0 1.921.202 2.611.601 3.877 2.238 5.5 12.962-.886 24.024-6.386 11.063-16.487 15.018-20.362 12.78-3.877-2.239-5.502-12.962.886-24.024z" fill="#fdd74e"/><path d="M299.547 323.098c16.453 11.333 35.908 17.419 56.382 17.419 55.007 0 99.758-44.752 99.758-99.758S410.936 141 355.929 141c-42.327 0-80.051 26.728-94.1 66.581-22.199 50.485-36.887 66.369-54.831 84.539-17.942-18.17-32.631-34.054-54.83-84.539C138.121 167.728 100.397 141 58.071 141c-55.007 0-99.758 44.752-99.758 99.758s44.752 99.758 99.758 99.758c20.474 0 39.93-6.086 56.382-17.419 9.44 14.939 14.47 25.6 19.374 35.99 2.234 4.734 4.519 9.571 7.175 14.71-24.631 35.033-65.205 93.018-99.743 142.42-14.088 20.152-19.395 44.567-14.94 68.748 4.455 24.182 18.112 45.104 38.456 58.915l13.433 9.117 9.327-13.286C88.544 638.273 158.947 537.995 207 470.12c48.028 67.836 118.687 168.481 119.465 169.591l9.327 13.286 13.432-9.117c20.345-13.811 34.003-34.735 38.456-58.916 4.454-24.18-.852-48.595-14.941-68.747C340.638 470.3 298.472 410.031 273 373.804c2.6-5.037 4.868-9.834 7.171-14.715 4.905-10.391 9.936-21.052 19.376-35.991zM131.456 289.17l-11.466-16.398-13.906 14.386c-12.7 13.139-29.753 20.375-48.015 20.375-36.82 0-66.776-29.956-66.776-66.776.001-36.819 29.957-66.775 66.777-66.775 28.493 0 53.871 18.089 63.149 45.012l.489 1.251c25.084 57.197 42.602 75.613 62.566 95.803-6.527 7.425-13.633 16.157-21.533 27.031-6.459-13.663-14.119-29.362-31.285-53.909zM71.174 605.622c-6.3-7.568-10.583-16.666-12.419-26.63-2.842-15.432.544-31.014 9.534-43.875 48.153-68.878 108.041-154.444 119.889-170.93 16.158-22.484 28.365-34.818 40.17-46.748 20.542-20.758 38.284-38.686 63.944-97.195l.489-1.251c9.276-26.922 34.653-45.011 63.148-45.011 36.82 0 66.776 29.956 66.776 66.776s-29.956 66.776-66.776 66.776c-18.262 0-35.314-7.236-48.015-20.375l-13.905-14.386-11.466 16.398c-17.98 25.711-25.534 41.719-32.198 55.842-6.596 13.977-12.293 26.047-27.505 46.268-14.973 19.9-116.658 164.513-151.666 214.341zm274.535-70.505c8.991 12.861 12.377 28.443 9.535 43.874-1.835 9.964-6.119 19.062-12.419 26.631-23.004-32.742-78.295-111.382-115.599-164.003 10.675-14.997 18.626-26.065 21.968-30.508a358.587 358.587 0 0 0 4.957-6.762c25.671 36.559 62.686 89.468 91.558 130.768z" fill="#fdd74e"/><path d="M68.337 192.74c-12.841-5.633-26.466-5.25-37.382 1.053-10.916 6.302-18.061 17.911-19.604 31.847-1.356 12.258 1.633 25.481 8.417 37.232 10.962 18.987 28.953 29.959 46.19 29.958 6.671-.001 13.234-1.646 19.226-5.106 21.478-12.4 26.391-42.743 11.187-69.078-6.784-11.751-16.74-20.95-28.034-25.906zm.357 66.42c-3.877 2.235-13.975-1.716-20.362-12.78-3.249-5.627-4.779-11.865-4.198-17.113.178-1.605.855-5.493 3.313-6.911.785-.453 1.697-.623 2.625-.623 1.972 0 4.008.768 5.016 1.21 4.835 2.122 9.473 6.566 12.721 12.192 6.385 11.064 4.762 21.787.885 24.025zm151.98 106.528c-2.964-4.387-7.983-7.27-13.674-7.27s-10.712 2.884-13.674 7.27a16.417 16.417 0 0 0-2.817 9.221 16.41 16.41 0 0 0 2.817 9.221c2.964 4.387 7.983 7.27 13.674 7.27s10.712-2.884 13.674-7.27a16.417 16.417 0 0 0 2.817-9.221 16.41 16.41 0 0 0-2.817-9.221z" fill="#fdd74e"/></svg>