<svg id="Режим_изоляции" xmlns="http://www.w3.org/2000/svg" viewBox="0 0 108.1 89.8"><style>.st0{fill:#fdd74e}</style><path class="st0" d="M85.3 73c-5.7-5.3-14.5-7.4-19.6-1.9-5.8-7.7-17.4-7.4-22.7.6-5.2-6.2-14.4-4-20.1 1.3.3 1.7.4 7.3.4 9.2h61.6c0-1.9.1-7.5.4-9.2zm-53.1 5.6c-1.4 0-2.6-1.1-2.6-2.6 0-1.4 1.1-2.6 2.6-2.6 1.4 0 2.6 1.1 2.6 2.6-.1 1.4-1.2 2.6-2.6 2.6zm21.9 1.1c-2.7 0-4.9-2.2-4.9-4.9s2.2-4.9 4.9-4.9 4.9 2.2 4.9 4.9c-.1 2.7-2.3 4.9-4.9 4.9zm21.8-1.1c-1.4 0-2.6-1.1-2.6-2.6 0-1.4 1.1-2.6 2.6-2.6 1.4 0 2.6 1.1 2.6 2.6 0 1.4-1.2 2.6-2.6 2.6z"/><path class="st0" d="M97.7 46.9c-.4 0-.9 0-1.3.1.1-.4.1-.9.1-1.3 0-5.9-4.5-10.6-10.1-10.6-.7 0-1.4.1-2.1.2-.3.1-.5.3-.5.5-.1.3.1.5.3.7 2.2 1.5 3.7 4.1 3.7 7.1 0 4.6-3.5 8.1-7.2 8.2-6.4.3-10-3.9-10-8.7 0-4.8 4.5-8.7 10-8.7.3 0 .5-.1.6-.4.1-.2.1-.5-.1-.7-8.4-11.9-24.6-6.7-27 9.4-1.4-9-7.7-15.8-15.4-15.8-4.6 0-8.8 2.5-11.7 6.5-.1.2-.2.5-.1.7.1.2.3.4.6.4 5.5 0 10 3.9 10 8.7 0 4.8-3.6 9-10 8.7-3.7-.2-7.2-3.7-7.2-8.2 0-2.9 1.4-5.4 3.5-7 .3-.2.4-.5.3-.9-.1-.3-.3-.6-.7-.6-.6-.1-1.2-.2-1.8-.2-5.6 0-10.1 4.8-10.1 10.6 0 .4 0 .9.1 1.3-.4-.1-.9-.1-1.3-.1C4.7 46.9 0 51.6 0 57.3c0 .6.1 1.2.2 1.8.1.3.3.6.6.7.3.1.7-.1.9-.3 1.5-2.1 4-3.5 6.8-3.5 4.7 0 10.1 3.9 12.9 11.3 3.9-7.6 14.2-9.7 20.1-4.5 2-5.3 7.1-9.1 13.1-9.1 5.8 0 10.7 3.5 12.8 8.5 6-4.6 16-2.4 19.4 5.1C89.6 59.9 95 56 99.7 56c2.9 0 5.5 1.5 7 3.7.2.2.4.3.7.3.3-.1.5-.3.6-.5.1-.7.2-1.4.2-2.1-.1-5.8-4.8-10.5-10.5-10.5z"/><path class="st0" d="M54.1 35.9c.8-3.8 3.3-7.1 6.8-9.2-.3-6.8-2.6-18.8-6-26.2-.2-.3-.5-.5-.8-.5-.4 0-.7.2-.8.5-3.4 7.4-5.7 19.4-6 26.2 3.4 2.1 5.9 5.4 6.8 9.2zm-8.3-11.1c.1-1.3.4-3.4.7-4.6-3-.7-6.2 1.2-6.8 4.3 2.2.1 4.2.6 6 1.5 0-.1.1-1.2.1-1.2zM62.4 26c1.8-.8 3.9-1.4 6-1.5-.7-3.1-3.8-5.1-6.8-4.3.3 1.3.6 3.5.7 4.6 0 0 .1 1.1.1 1.2zM22.8 84.4h62.4v5.4H22.8z"/></svg>