<svg xmlns="http://www.w3.org/2000/svg" xmlns:xlink="http://www.w3.org/1999/xlink" viewBox="0 0 243.84 138.96"><defs><path id="a" d="M0 0h243.84v138.96H0z"/></defs><clipPath id="b"><use xlink:href="#a" overflow="visible"/></clipPath><path d="M209.555 87.821c8.078 7.887 16.601 15.305 23.847 23.989 3.2 3.855 6.231 7.836 8.547 12.312 3.285 6.363.309 13.367-5.398 13.75l-35.469-.019c-9.152.761-16.449-2.922-22.586-9.176-4.91-5.004-9.461-10.328-14.18-15.5-1.937-2.113-3.964-4.102-6.386-5.672-4.84-3.145-9.043-2.184-11.813 2.867-2.816 5.137-3.457 10.824-3.734 16.551-.379 8.351-2.903 10.547-11.293 10.93-17.934.847-34.949-1.868-50.758-10.911-13.937-7.976-24.746-19.234-34.152-31.976-18.317-24.82-32.344-52.09-44.95-80.121-2.839-6.317-.761-9.707 6.208-9.828 11.57-.223 23.14-.207 34.726-.016 4.703.07 7.816 2.766 9.633 7.211 6.262 15.394 13.922 30.039 23.539 43.617 2.559 3.613 5.172 7.227 8.891 9.774 4.113 2.816 7.242 1.882 9.179-2.7 1.227-2.906 1.766-6.035 2.043-9.148.914-10.707 1.035-21.395-.57-32.063-.988-6.66-4.738-10.968-11.383-12.23-3.391-.641-2.887-1.902-1.242-3.84C85.102 2.286 87.785.208 93.129.208h40.09c6.312 1.246 7.715 4.082 8.578 10.43l.035 44.531c-.07 2.461 1.227 9.754 5.656 11.383 3.543 1.156 5.879-1.68 8.004-3.926 9.598-10.187 16.449-22.227 22.57-34.691 2.715-5.485 5.051-11.176 7.313-16.864 1.68-4.222 4.309-6.297 9.063-6.207l38.585.035c1.141 0 2.301.016 3.407.207 6.504 1.11 8.285 3.907 6.277 10.254-3.164 9.961-9.32 18.262-15.34 26.602-6.433 8.902-13.316 17.5-19.695 26.457-5.863 8.18-5.399 12.301 1.883 19.402zm0 0" clip-path="url(#b)" fill-rule="evenodd" clip-rule="evenodd" fill="#fdd74e"/></svg>