<?xml version="1.0" encoding="utf-8"?>
<!-- Generator: Adobe Illustrator 21.0.2, SVG Export Plug-In . SVG Version: 6.00 Build 0)  -->
<svg version="1.1" xmlns="http://www.w3.org/2000/svg" xmlns:xlink="http://www.w3.org/1999/xlink" x="0px" y="0px"
	 viewBox="0 0 283.871 309.322" style="enable-background:new 0 0 283.871 309.322;" xml:space="preserve">
<style type="text/css">
	.st0{fill:#998373;}
	.st1{fill:#FCD27F;}
	.st2{fill:#E8EDEE;}
	.st3{fill:#13303A;}
	.st4{fill:#FFFFFF;}
	.st5{fill:#1F2449;}
	.st6{fill:#F5B897;}
	.st7{fill:#BA1E4D;}
	.st8{fill:#062231;}
	.st9{font-family:'MyriadPro-Bold';}
	.st10{font-size:75px;}
</style>
<g id="Слой_5">
	<g id="XMLID_1_">
		<path id="XMLID_25_" class="st0" d="M60.666,228.162h157.353V0H60.666V228.162z"/>
		<path id="XMLID_24_" class="st1" d="M76.401,228.162h125.882V15.735H76.401V228.162z"/>
		<path id="XMLID_30_" class="st2" d="M127.819,223.504"/>
		<rect id="XMLID_23_" x="102.641" y="159.638" class="st3" width="7.303" height="1.867"/>
		<path id="XMLID_45_" class="st4" d="M191.341,228.162c0.032-0.543,0.054-1.089,0.054-1.639v-46.134
			c0-15.127-12.377-27.503-27.503-27.503h-26.444c-15.127,0-27.504,12.377-27.504,27.503v46.134c0,0.551,0.021,1.096,0.054,1.639
			H191.341z"/>
		<g id="XMLID_29_">
			<g id="XMLID_3_">
				<path id="XMLID_4_" class="st5" d="M196.144,191.565v34.585h-0.235l-2.223,1.13c-1.13,0.567,10.593-2.049-20.758-2.049
					c-7.336,0-15.42-0.523-24.144-1.726c18.246-12.825,24.272-29.206,37.851-58.749
					C192.577,172.085,196.144,181.413,196.144,191.565z M180.781,158.804c-7.404-6.179-16.922-9.903-27.3-9.903h-28.274
					c-11.822,0-22.532,4.842-30.268,12.64h1.77l2.11,59.466c3.802,0.963,7.512,1.786,11.125,2.496
					C123.688,214.292,167.648,191.323,180.781,158.804z M88.579,149.621h1.045V58.919h-8.7v44.934
					c-0.345-0.042-0.688-0.103-1.042-0.103c-4.807,0-8.704,3.895-8.704,8.702v37.171h-9.705v14.074h9.705v33.099H52.089v12.249
					h19.088v5.898v14.956h21.679v-66.206h-4.277V149.621z"/>
			</g>
			<g id="XMLID_9_">
				<path id="XMLID_19_" class="st6" d="M106.639,114.05c0,18.066,14.644,32.712,32.709,32.712
					c18.068,0,32.707-14.644,32.707-32.712c0-1.115-0.079-11.501-0.2-12.588h-65.017
					C106.725,102.549,106.639,112.936,106.639,114.05z"/>
			</g>
		</g>
		<g id="XMLID_12_">
			<path id="XMLID_13_" class="st7" d="M128.365,228.162h63.397c1.085-0.467,1.738-0.789,1.923-0.882l2.223-1.13h0.235v-34.585
				c0-10.151-3.567-19.48-9.509-26.809C175.133,189.777,147.607,213.648,128.365,228.162z"/>
			<path id="XMLID_14_" class="st7" d="M96.709,228.162h18.453c18.455-13.127,54.29-41.306,65.619-69.357
				c-7.404-6.179-16.922-9.903-27.3-9.903h-28.274c-11.822,0-22.532,4.842-30.268,12.64h1.77V228.162z"/>
		</g>
		<ellipse id="XMLID_2_" class="st3" cx="141.927" cy="168.766" rx="2.573" ry="1.328"/>
		<ellipse id="XMLID_15_" class="st3" cx="141.927" cy="185.212" rx="2.573" ry="1.328"/>
		<ellipse id="XMLID_16_" class="st3" cx="141.927" cy="200.303" rx="2.573" ry="1.328"/>
		<path id="XMLID_20_" class="st8" d="M139.354,128.048L139.354,128.048c-0.408,0-0.741-0.334-0.741-0.741V116.59
			c0-0.408,0.334-0.741,0.741-0.741l0,0c0.408,0,0.741,0.334,0.741,0.741v10.717C140.095,127.715,139.762,128.048,139.354,128.048z"
			/>
	</g>
	<text id="XMLID_17_" transform="matrix(1 0 0 1 0 290.5724)" class="st9 st10">КАПРАЛ</text>
	<path id="XMLID_21_" class="st3" d="M182.964,79.678c0-5.8-5.092-11.19-14.404-15.178c-8.282-3.547-18.902-5.581-29.169-5.581
		c-10.267,0-20.897,2.034-29.178,5.581c-9.311,3.988-14.468,9.378-14.468,15.178c0,4.562,3.071,8.87,9.035,12.442v7.256
		c0,0.132,0.044,0.261,0.053,0.39c-0.013,0.135-0.003,0.271-0.003,0.409c0,4.38,7.62,8.016,10.893,9.375
		c4.092,1.7,12.613,4.552,23.683,4.552c11.07,0,19.589-2.852,23.681-4.552c3.273-1.36,10.886-4.995,10.886-9.375
		c0-0.138-0.078-0.275-0.091-0.409c0.009-0.129-0.051-0.258-0.051-0.39V92.12C179.792,88.548,182.964,84.24,182.964,79.678z
		 M132.507,70.91c1.3,0,2.354,1.054,2.354,2.354c0,1.583,0.761,2.977,1.991,3.792c-0.002-0.04-0.058-0.079-0.058-0.119V65.011
		c0-1.3,1.054-2.354,2.354-2.354s2.354,1.054,2.354,2.354v11.927c0,0.109,0.042,0.216,0.028,0.321
		c1.414-0.772,2.402-2.273,2.402-3.994c0-1.3,1.067-2.354,2.367-2.354s2.361,1.054,2.361,2.354c0,5.104-4.149,9.256-9.253,9.256
		c-5.104,0-9.254-4.152-9.254-9.256C130.151,71.964,131.206,70.91,132.507,70.91z M167.028,100.477h-55.554
		c-1.3,0-2.354-1.054-2.354-2.354s1.054-2.354,2.354-2.354h55.554c1.3,0,2.354,1.054,2.354,2.354S168.329,100.477,167.028,100.477z"
		/>
</g>
<g id="Слой_7">
	<polygon id="XMLID_7_" class="st3" points="106.292,74.072 139.405,60.072 177.75,78.322 169.382,93.322 171.856,101.463 
		142.021,108.822 104.832,99.766 109.121,88.322 	"/>
</g>
</svg>
