<?xml version="1.0" encoding="UTF-8" standalone="no"?>
<svg
   xmlns:dc="http://purl.org/dc/elements/1.1/"
   xmlns:cc="http://creativecommons.org/ns#"
   xmlns:rdf="http://www.w3.org/1999/02/22-rdf-syntax-ns#"
   xmlns:svg="http://www.w3.org/2000/svg"
   xmlns="http://www.w3.org/2000/svg"
   viewBox="0 0 240 321.33334"
   height="321.33334"
   width="240"
   xml:space="preserve"
   id="svg2"
   version="1.1"><metadata
     id="metadata8"><rdf:RDF><cc:Work
         rdf:about=""><dc:format>image/svg+xml</dc:format><dc:type
           rdf:resource="http://purl.org/dc/dcmitype/StillImage" /></cc:Work></rdf:RDF></metadata><defs
     id="defs6" /><g
     transform="matrix(1.3333333,0,0,-1.3333333,0,321.33333)"
     id="g10"><g
       transform="scale(0.1)"
       id="g12"><path
         id="path14"
         style="fill:#cfa550;fill-opacity:1;fill-rule:evenodd;stroke:none"
         d="m 602.016,2402.84 h 61.836 V 2279.17 H 787.52 v 123.67 h 61.835 v -185.5 H 663.852 V 2155.5 H 849.355 V 1970 H 787.52 v 123.66 H 663.852 V 1043.48 c 15.656,-2.24 30.769,-6.15 45.156,-11.56 52.117,59.61 126.738,99.04 210.605,105 23.235,80.75 92.227,142.14 177.087,154.29 v 1111.63 h 247.34 V 2341 h -185.5 v -123.66 h 185.5 v -61.84 h -185.5 v -864.29 c 104.86,-15.01 185.51,-105.21 185.51,-214.22 0,-76.69 -39.92,-144.06 -100.1,-182.502 4.61,-21.246 7.05,-43.308 7.05,-65.937 0,-170.715 -138.45,-309.176 -309.168,-309.176 -93.363,0 -177.07,41.422 -233.762,106.879 -23.406,-8.668 -48.715,-13.414 -75.132,-13.414 -119.512,0 -216.43,96.918 -216.43,216.426 0,109.007 80.644,199.204 185.508,214.214 z m 162.562,-1401.8 0.016,-0.02 C 750.211,986.246 737.66,969.68 727.309,951.688 l -0.008,0.007 c -20.867,-36.265 -32.813,-78.308 -32.813,-123.144 0,-33.145 6.539,-64.762 18.371,-93.653 -15.714,-13.324 -34.796,-22.793 -55.785,-26.949 -15.726,37.059 -24.426,77.817 -24.426,120.602 0,54.597 14.176,105.887 39.024,150.402 -12.379,3.199 -25.356,4.899 -38.734,4.899 -85.364,0 -154.594,-69.223 -154.594,-154.586 0,-85.36 69.23,-154.586 154.594,-154.586 13.125,0 25.867,1.64 38.039,4.722 l 1.441,0.371 1.805,0.493 1.535,0.429 0.949,0.278 0.945,0.285 0.078,0.023 1.809,0.559 0.938,0.301 0.933,0.304 1.867,0.629 0.926,0.324 0.926,0.329 2.082,0.765 1.469,0.555 1.945,0.769 0.906,0.368 0.274,0.113 2.425,1.027 0.895,0.387 0.223,0.102 2.332,1.054 0.109,0.051 0.887,0.41 0.875,0.414 1.578,0.77 0.172,0.086 0.871,0.429 0.242,0.121 2.055,1.063 0.293,0.148 0.859,0.457 1.707,0.926 0.848,0.469 0.844,0.473 0.101,0.058 1.621,0.934 1.332,0.789 1.946,1.18 0.82,0.511 0.281,0.176 c 0.695,0.441 1.391,0.879 2.078,1.332 l 0.082,0.051 0.809,0.531 0.238,0.156 2.07,1.399 0.094,0.066 0.789,0.551 c 0.758,0.527 1.508,1.059 2.254,1.602 l 0.106,0.078 0.781,0.566 0.016,0.016 1.527,1.136 0.769,0.586 c 36.95,28.246 60.786,72.77 60.786,122.864 0,38.324 -13.957,73.39 -37.063,100.402 9.922,18.738 22.516,35.844 37.273,50.812 38.122,-39.015 61.629,-92.371 61.629,-151.214 0,-70.332 -33.574,-132.836 -85.562,-172.368 44.988,-46.652 108.125,-75.683 178.035,-75.683 136.568,0 247.328,110.765 247.328,247.336 0,14.289 -1.21,28.297 -3.54,41.922 l -0.04,0.246 v 0.004 c -0.29,1.656 -0.59,3.304 -0.9,4.949 l -0.04,0.168 -0.08,0.43 c -0.29,1.46 -0.59,2.921 -0.9,4.375 l -0.13,0.601 c -0.33,1.496 -0.66,2.984 -1.01,4.473 l -0.03,0.109 -0.03,0.141 -0.08,0.308 c -0.34,1.426 -0.69,2.844 -1.06,4.262 l -0.2,0.789 c -0.37,1.418 -0.76,2.828 -1.16,4.235 l -0.2,0.738 c -0.4,1.394 -0.81,2.789 -1.23,4.179 l -0.23,0.739 c -0.42,1.383 -0.86,2.758 -1.3,4.133 l -0.25,0.734 c -0.45,1.383 -0.92,2.766 -1.4,4.137 l -0.28,0.793 c -0.44,1.246 -0.89,2.484 -1.35,3.718 l -0.46,1.239 c -0.47,1.218 -0.94,2.437 -1.42,3.652 l -0.39,0.969 c -0.49,1.226 -0.99,2.449 -1.5,3.668 l -0.4,0.949 c -29.71,69.875 -90.64,123.289 -165.28,142.719 -0.22,2.99 -0.33,6.01 -0.33,9.06 0,18.54 4.09,36.14 11.4,51.92 93.02,-22.7 169.57,-87.49 208.3,-173.051 35.68,28.321 58.57,72.051 58.57,121.131 0,85.36 -69.23,154.59 -154.59,154.59 -64.92,0 -120.5,-40.04 -143.401,-96.77 -0.324,-0.8 -0.637,-1.61 -0.946,-2.41 l -0.558,-1.46 -0.559,-1.53 -0.797,-2.26 -0.445,-1.33 -0.73,-2.24 -0.446,-1.45 -0.633,-2.12 -0.355,-1.24 c -0.238,-0.85 -0.469,-1.7 -0.695,-2.56 l -0.293,-1.14 c -0.242,-0.97 -0.481,-1.93 -0.707,-2.91 l -0.157,-0.68 c -0.222,-0.99 -0.441,-1.98 -0.648,-2.97 l -0.125,-0.61 c -0.219,-1.09 -0.43,-2.18 -0.629,-3.28 l -0.051,-0.27 -0.035,-0.2 c -0.207,-1.17 -0.398,-2.33 -0.578,-3.5 l -0.019,-0.12 -0.004,-0.05 -0.012,-0.06 c -0.18,-1.18 -0.348,-2.36 -0.496,-3.55 l -0.012,-0.08 -0.016,-0.11 -0.023,-0.22 c -0.152,-1.21 -0.293,-2.42 -0.418,-3.65 l -0.004,-0.04 c -0.133,-1.29 -0.246,-2.57 -0.344,-3.87 l -0.004,-0.04 c -0.097,-1.27 -0.175,-2.55 -0.242,-3.82 l -0.008,-0.15 c -0.132,-2.62 -0.199,-5.25 -0.199,-7.9 v -0.19 c 0.102,-85.273 69.299,-154.398 154.589,-154.398 3.07,0 6.11,0.102 9.13,0.278 9.08,-18.758 15.53,-39.02 18.87,-60.313 -9.17,-1.187 -18.51,-1.801 -28,-1.801 -118.51,0 -214.788,95.313 -216.39,213.434 -57.23,-7.06 -108.41,-33.68 -146.652,-72.96 z m 219.649,133.78 -0.008,-0.01 0.008,0.01" /><path
         id="path16"
         style="fill:#231f20;fill-opacity:1;fill-rule:nonzero;stroke:none"
         d="m 162.734,13.0586 c -3.429,0.9531 -11.238,1.4297 -23.429,1.4297 -9.715,0 -18.758,-0.4766 -27.141,-1.4297 -5.906,12.7617 -11.715,24.4805 -17.4296,35.1445 -13.3321,25.5235 -24.6641,43.2383 -34,53.1409 -0.7617,1.144 -2.6641,2.574 -5.7149,4.289 V 42.4883 c 0,-8.7617 1.2383,-13.9063 3.7149,-15.4258 1.1445,-0.7656 5.7148,-1.1445 13.7148,-1.1445 V 13.0586 c -11.0469,0.9531 -22.8594,1.4297 -35.4258,1.4297 -12.3828,0 -24.0039,-0.4766 -34.85934,-1.4297 V 25.918 c 7.42578,0 12.00004,0.6679 13.71484,2 2.668,1.9023 4,6.7617 4,14.5703 V 178.488 c 0,8 -1.2383,13.047 -3.7148,15.141 -1.7149,1.336 -6.37894,2.004 -14.00004,2.004 v 12.57 c 9.33204,-0.953 20.95314,-1.43 34.85934,-1.43 11.9961,0 23.8086,0.477 35.4258,1.43 v -12.57 c -7.4297,0 -12,-0.668 -13.7148,-2.004 -2.4766,-2.094 -3.7149,-7.141 -3.7149,-15.141 v -61.425 c 6.668,5.519 11.5274,11.234 14.5743,17.14 l 42.5702,58.285 c 2.285,4 3.332,9.239 3.141,15.715 5.523,-0.953 12.668,-1.43 21.429,-1.43 6.856,0 12.856,0.477 18,1.43 v -8.57 c -12.379,0 -20.664,-3.813 -24.859,-11.43 L 90.1641,131.063 142.16,41.3477 c 2.098,-2.2891 4.289,-4.5743 6.574,-6.8594 5.715,-5.1445 10.192,-7.7149 13.43,-7.7149 z m 191.504,48 c -0.187,-14.8555 -1.047,-31.0469 -2.57,-48.5703 -13.715,1.1445 -22,1.7148 -24.855,1.7148 -0.383,0 -5.907,0 -16.575,0 -10.476,0 -19.14,0 -25.996,0 -9.527,0 -26.476,-0.5703 -50.859,-1.7148 v 8.9062 c 6.094,1.1407 9.144,8 9.144,20.6172 V 179.535 c 0,6.524 -1.191,11.098 -3.574,13.762 -2.379,2.668 -7.094,4 -14.14,4 v 10.906 l 74.855,-1.43 c 6.477,0 12.285,0 17.43,0 5.14,0 9.715,0 13.715,0 11.238,0 18.472,0.477 21.714,1.43 -0.382,-6.621 -1.238,-19.668 -2.574,-39.144 h -10.57 c 0,5.191 0,11.191 0,17.953 0.191,3.668 -4.953,5.476 -15.43,5.476 -22.664,0 -37.523,0.188 -44.57,0.571 -1.332,-1.903 -2,-5.86 -2,-11.954 v -57.761 h 40.523 c 3.239,0 5.43,0.574 6.621,1.715 2.286,2.859 3.426,9.429 3.426,19.714 h 10.574 V 85.3477 h -11.714 c 0,11.2343 -1.715,18.0933 -5.192,20.5703 -2.094,1.332 -8.621,2.094 -19.523,2.285 H 277.383 V 31.3477 c 16,0.3789 24.383,0.5703 25.144,0.5703 14.094,0 26.286,0.7617 36.571,2.2851 1.332,5.5235 2.855,14.4766 4.57,26.8555 z M 572.84,199.918 c -9.902,-18.477 -23.52,-44.762 -40.856,-78.859 -5.902,-12.571 -8.855,-21.5238 -8.855,-26.8559 V 42.7773 c 0,-7.8125 1.238,-12.7656 3.715,-14.8593 1.902,-1.3321 6.472,-2 13.715,-2 V 13.0586 c -11.051,0.9531 -22.762,1.4297 -35.145,1.4297 -12.383,0 -24,-0.4766 -34.859,-1.4297 V 25.918 c 7.429,0 12.004,0.6679 13.715,2 2.476,2.0937 3.714,7.0468 3.714,14.8593 v 43.9961 c 0,7.2383 -3.906,18.2856 -11.714,33.1446 l -23.715,45.141 c -8.95,17.14 -17.426,25.238 -25.426,24.285 v 10.574 c 23.238,8 35.902,12 38,12 2.664,-1.145 6.617,-5.715 11.855,-13.715 5.239,-8 9.192,-14.953 11.86,-20.859 l 25.996,-59.141 c 8.953,16.949 22.765,46.285 41.43,88 h 16.57 z m 188.84,6.285 c 0,-0.765 -0.856,-14.289 -2.571,-40.574 h -10.57 c 0,2.859 -0.383,9.812 -1.144,20.859 -2.809,4 -9.622,6 -20.332,6 -1.524,0 -7.192,-0.14 -17,-0.429 -9.809,-0.286 -16.141,-0.426 -18.954,-0.426 v -69.43 h 38.856 c 4.004,0 6.383,1.332 7.144,4 0.762,1.902 1.141,6.953 1.141,15.141 h 11.145 V 82.7773 H 738.25 c 0,9.3282 -0.379,15.3321 -1.141,17.9957 -0.953,4 -3.336,6 -7.144,6 H 691.109 V 43.25 c 0,-7.7617 1.43,-12.6172 4.286,-14.4727 2.289,-1.3359 8.476,-2.0039 18.574,-2.0039 V 13.0586 c -11.047,0.9531 -23.621,1.4297 -37.715,1.4297 -14.285,0 -26.859,-0.4766 -37.715,-1.4297 v 13.7148 c 7.617,0 12.426,0.8125 14.43,2.4297 1.996,1.6172 3,6.3321 3,14.1407 V 179.059 c 0,12.574 -5.809,18.859 -17.43,18.859 v 10.285 c 17.668,-0.953 38.57,-1.43 62.715,-1.43 6.285,0 14.996,0.379 26.238,1.145 8.524,0.762 15.192,0.855 19.953,0.285 3.235,-0.383 7.95,-1.051 14.235,-2 z M 969.707,13.3477 c -16.379,0.7617 -28.953,1.1406 -37.715,1.1406 -11.426,0 -22.664,-0.3789 -33.711,-1.1406 V 25.918 c 5.715,0 9.43,0.1914 11.145,0.5703 3.047,0.7617 4.566,2.4765 4.566,5.1445 0,0.5703 -0.664,3.1406 -1.996,7.7149 l -9.43,32.8554 h -50 l -5.429,-24 c -2.094,-9.332 -3.141,-14.1875 -3.141,-14.5703 0,-3.8125 0.762,-6.0469 2.285,-6.7187 1.524,-0.6641 6.188,-0.9961 14,-0.9961 V 13.3477 c -9.144,0.7617 -17.051,1.1406 -23.715,1.1406 -8.378,0 -16.761,-0.3789 -25.14,-1.1406 V 25.918 c 8.949,-1.336 15.332,4.6679 19.14,18 l 47.715,164.855 h 18.86 l 55.14,-168.5699 c 2.285,-7.0468 4.239,-11.1914 5.856,-12.4297 1.621,-1.2382 5.476,-1.8554 11.57,-1.8554 z m -72,75.1406 -20.664,67.8087 -19.047,-67.8087 z m 262.603,-49.1406 -5.14,-14.5704 c -11.81,-9.9101 -27.9,-14.85933 -48.29,-14.85933 -28.19,0 -49.9,9.62113 -65.14,28.85543 -14.47,18.2852 -21.71,43.3321 -21.71,75.1446 0,30.473 8.38,54.57 25.14,72.285 16,16.762 36.67,25.141 62,25.141 16.76,0 34.86,-3.903 54.29,-11.711 l -3.72,-50.57 h -10.28 c -0.19,6.664 -0.77,14.664 -1.72,23.996 -2.47,5.906 -7.14,11 -14,15.289 -6.86,4.281 -14.38,6.425 -22.57,6.425 -17.33,0 -30.57,-7.714 -39.72,-23.144 -8.38,-13.902 -12.57,-31.711 -12.57,-53.426 0,-28.1913 5.43,-50.0975 16.29,-65.7147 10.86,-15.6211 25.53,-23.4297 44,-23.4297 8.19,0 16.67,2 25.43,6 0,0 4.95,2.7617 14.86,8.2852 z m 219.46,168.8553 -3.72,-46.289 h -11.14 c 0,12.762 -0.47,20.574 -1.43,23.43 -0.95,2.859 -3.8,4.191 -8.57,4 l -35.43,-0.856 -1.14,-24.285 V 42.4883 c 0,-8.5703 1.24,-13.6211 3.71,-15.1406 1.34,-0.9532 5.91,-1.4297 13.72,-1.4297 V 13.0586 c -11.24,0.9531 -23.05,1.4297 -35.43,1.4297 -12.19,0 -23.71,-0.4766 -34.57,-1.4297 V 25.918 c 7.62,0 12.1,0.4765 13.43,1.4297 2.67,1.7109 4,6.7617 4,15.1914 l -1.15,146.2339 -33.71,0.571 c -3.23,0 -6.14,-1.332 -8.71,-4.047 -2.57,-2.664 -3.86,-5.285 -3.86,-7.809 v -15.574 h -11.43 v 46.289 c 22.77,-0.953 48.2,-1.43 76.29,-1.43 29.81,0 56.19,0.477 79.14,1.43 z m 214.89,-93.144 c 0,-32.0004 -7.05,-57.2387 -21.14,-75.7113 -15.06,-19.6211 -36.86,-29.42973 -65.43,-29.42973 -27.24,0 -47.72,9.42583 -61.43,28.28513 -12.57,17.5235 -18.86,42 -18.86,73.4299 0,30.285 7.62,54.472 22.86,72.57 15.23,18.094 36.19,27.141 62.85,27.141 25.72,0 45.67,-8.617 59.86,-25.856 14.19,-17.238 21.29,-40.715 21.29,-70.429 z m -36.57,-6.286 c 0,26.286 -4.15,47.239 -12.43,62.856 -8.29,15.621 -19.1,23.43 -32.43,23.43 -32.38,0 -48.57,-28 -48.57,-84 0,-16.5707 1.71,-31.3324 5.14,-44.2856 7.05,-27.0468 20.09,-40.5703 39.14,-40.5703 32.76,0 49.15,27.5235 49.15,82.5699 z m 238.64,-95.7144 c -7.61,0.9531 -15.66,1.4297 -24.04,1.4297 -6.29,0 -13.53,-0.4766 -21.76,-1.4766 l -43.05,98.0473 2,5.714 c 7.81,-1.332 15.62,1.332 23.42,8 9.15,7.809 13.72,18.477 13.72,32 0,8.383 -2.47,16.094 -7.43,23.141 -5.71,8.195 -13.23,12.289 -22.57,12.289 -0.76,0 -3.33,0 -7.71,0 -4.2,-0.191 -6.77,-0.289 -7.72,-0.289 -0.38,-3.047 -0.57,-6.379 -0.57,-9.996 V 42.4883 c 0,-7.8086 1.24,-12.668 3.71,-14.5703 1.91,-1.3321 6.57,-2 14,-2 V 13.0586 c -11.23,0.9531 -22.94,1.4297 -35.14,1.4297 -12.19,0 -23.9,-0.4766 -35.14,-1.4297 V 25.918 c 7.24,0 11.95,0.8086 14.14,2.4258 2.2,1.621 3.29,6.3359 3.29,14.1445 V 178.488 c 0,8 -1.33,13.047 -4,15.141 -1.91,1.336 -6.38,2.004 -13.43,2.004 v 12.57 c 15.81,-1.144 28.57,-1.621 38.28,-1.43 l 48.58,1.43 c 30.85,0 46.28,-12.859 46.28,-38.57 0,-13.715 -4.66,-25.528 -14,-35.43 -2.86,-3.238 -10.29,-8.953 -22.28,-17.14 l 34.28,-74.2857 c 1.72,-3.8125 4.34,-7.5273 7.86,-11.1445 3.52,-3.6211 6.62,-5.5234 9.28,-5.7148 V 13.0586" /></g></g></svg>