<?xml version="1.0" encoding="UTF-8" standalone="no"?>
<svg
   xmlns:dc="http://purl.org/dc/elements/1.1/"
   xmlns:cc="http://creativecommons.org/ns#"
   xmlns:rdf="http://www.w3.org/1999/02/22-rdf-syntax-ns#"
   xmlns:svg="http://www.w3.org/2000/svg"
   xmlns="http://www.w3.org/2000/svg"
   viewBox="0 0 616 321.33334"
   height="321.33334"
   width="616"
   xml:space="preserve"
   id="svg2"
   version="1.1"><metadata
     id="metadata8"><rdf:RDF><cc:Work
         rdf:about=""><dc:format>image/svg+xml</dc:format><dc:type
           rdf:resource="http://purl.org/dc/dcmitype/StillImage" /></cc:Work></rdf:RDF></metadata><defs
     id="defs6" /><g
     transform="matrix(1.3333333,0,0,-1.3333333,0,321.33333)"
     id="g10"><g
       transform="scale(0.1)"
       id="g12"><path
         id="path14"
         style="fill:#231f20;fill-opacity:1;fill-rule:evenodd;stroke:none"
         d="m 3417.8,2402.84 h 61.83 v -123.67 h 123.67 v 123.67 h 61.84 v -185.5 h -185.51 v -61.84 h 185.51 V 1970 h -61.84 v 123.66 H 3479.63 V 1043.48 c 15.66,-2.24 30.77,-6.15 45.16,-11.56 52.11,59.61 126.74,99.04 210.6,105 23.24,80.75 92.23,142.14 177.09,154.29 v 1111.63 h 247.34 V 2341 h -185.5 v -123.66 h 185.5 v -61.84 h -185.5 v -864.29 c 104.86,-15.01 185.51,-105.21 185.51,-214.22 0,-76.69 -39.92,-144.06 -100.1,-182.502 4.61,-21.246 7.05,-43.308 7.05,-65.937 0,-170.715 -138.45,-309.176 -309.17,-309.176 -93.36,0 -177.07,41.422 -233.76,106.879 -23.4,-8.668 -48.72,-13.414 -75.14,-13.414 -119.5,0 -216.42,96.918 -216.42,216.426 0,109.007 80.64,199.204 185.51,214.214 z m 162.56,-1401.8 0.02,-0.02 c -14.39,-14.774 -26.94,-31.34 -37.29,-49.332 l -0.01,0.007 c -20.87,-36.265 -32.81,-78.308 -32.81,-123.144 0,-33.145 6.54,-64.762 18.37,-93.653 -15.71,-13.324 -34.8,-22.793 -55.79,-26.949 -15.72,37.059 -24.42,77.817 -24.42,120.602 0,54.597 14.17,105.887 39.02,150.402 -12.38,3.199 -25.36,4.899 -38.74,4.899 -85.35,0 -154.58,-69.223 -154.58,-154.586 0,-85.36 69.23,-154.586 154.58,-154.586 13.13,0 25.88,1.64 38.05,4.722 l 1.44,0.371 1.8,0.493 1.54,0.429 0.94,0.278 0.95,0.285 0.08,0.023 1.81,0.559 0.93,0.301 0.94,0.304 1.87,0.629 0.92,0.324 0.93,0.329 2.08,0.765 1.47,0.555 1.94,0.769 0.91,0.368 0.28,0.113 2.42,1.027 0.9,0.387 0.22,0.102 2.33,1.054 0.11,0.051 0.88,0.41 0.88,0.414 1.58,0.77 0.17,0.086 0.87,0.429 0.25,0.121 2.05,1.063 0.29,0.148 0.86,0.457 1.71,0.926 0.85,0.469 0.84,0.473 0.1,0.058 1.62,0.934 1.34,0.789 1.94,1.18 0.82,0.511 0.28,0.176 c 0.7,0.441 1.39,0.879 2.08,1.332 l 0.08,0.051 0.81,0.531 0.24,0.156 2.07,1.399 0.09,0.066 0.79,0.551 c 0.76,0.527 1.51,1.059 2.26,1.602 l 0.1,0.078 0.78,0.566 0.02,0.016 1.53,1.136 0.77,0.586 c 36.94,28.246 60.78,72.77 60.78,122.864 0,38.324 -13.96,73.39 -37.06,100.402 9.92,18.738 22.51,35.844 37.27,50.812 38.12,-39.015 61.63,-92.371 61.63,-151.214 0,-70.332 -33.57,-132.836 -85.56,-172.368 44.99,-46.652 108.12,-75.683 178.03,-75.683 136.57,0 247.33,110.765 247.33,247.336 0,14.289 -1.21,28.297 -3.54,41.922 l -0.04,0.246 v 0.004 c -0.29,1.656 -0.59,3.304 -0.91,4.949 l -0.03,0.168 -0.08,0.43 c -0.29,1.46 -0.59,2.921 -0.9,4.375 l -0.13,0.601 c -0.33,1.496 -0.67,2.984 -1.02,4.473 l -0.02,0.109 -0.03,0.141 -0.08,0.308 c -0.34,1.426 -0.7,2.844 -1.06,4.262 l -0.2,0.789 c -0.37,1.418 -0.76,2.828 -1.15,4.235 l -0.21,0.738 c -0.4,1.394 -0.81,2.789 -1.23,4.179 l -0.22,0.739 c -0.43,1.383 -0.87,2.758 -1.32,4.133 l -0.23,0.734 c -0.46,1.383 -0.93,2.766 -1.41,4.137 l -0.28,0.793 c -0.44,1.246 -0.89,2.484 -1.35,3.718 l -0.46,1.239 c -0.47,1.218 -0.94,2.437 -1.42,3.652 l -0.39,0.969 c -0.49,1.226 -1,2.449 -1.5,3.668 l -0.41,0.949 c -29.7,69.875 -90.63,123.289 -165.27,142.719 -0.22,2.99 -0.33,6.01 -0.33,9.06 0,18.54 4.09,36.14 11.41,51.92 93.01,-22.7 169.56,-87.49 208.29,-173.051 35.68,28.321 58.56,72.051 58.56,121.131 0,85.36 -69.22,154.59 -154.58,154.59 -64.92,0 -120.5,-40.04 -143.4,-96.77 -0.32,-0.8 -0.64,-1.61 -0.95,-2.41 l -0.55,-1.46 -0.57,-1.53 -0.79,-2.26 -0.44,-1.33 -0.74,-2.24 -0.44,-1.45 -0.63,-2.12 -0.36,-1.24 c -0.24,-0.85 -0.47,-1.7 -0.69,-2.56 l -0.3,-1.14 c -0.24,-0.97 -0.48,-1.93 -0.7,-2.91 l -0.16,-0.68 c -0.22,-0.99 -0.44,-1.98 -0.65,-2.97 l -0.12,-0.61 c -0.23,-1.09 -0.43,-2.18 -0.63,-3.28 l -0.05,-0.27 -0.04,-0.2 c -0.21,-1.17 -0.4,-2.33 -0.58,-3.5 l -0.02,-0.12 v -0.05 l -0.01,-0.06 c -0.18,-1.18 -0.35,-2.36 -0.5,-3.55 l -0.01,-0.08 -0.02,-0.11 -0.02,-0.22 c -0.15,-1.21 -0.29,-2.42 -0.42,-3.65 v -0.04 c -0.13,-1.29 -0.25,-2.57 -0.34,-3.87 l -0.01,-0.04 c -0.1,-1.27 -0.18,-2.55 -0.24,-3.82 l -0.01,-0.15 c -0.13,-2.62 -0.2,-5.25 -0.2,-7.9 v -0.19 c 0.1,-85.273 69.3,-154.398 154.59,-154.398 3.07,0 6.11,0.102 9.14,0.278 9.07,-18.758 15.52,-39.02 18.86,-60.313 -9.17,-1.187 -18.51,-1.801 -28,-1.801 -118.51,0 -214.79,95.313 -216.39,213.434 -57.23,-7.06 -108.41,-33.68 -146.65,-72.96 z M 3800,1134.82 v -0.01 0.01" /><path
         id="path16"
         style="fill:#231f20;fill-opacity:1;fill-rule:nonzero;stroke:none"
         d="m 2978.51,13.0586 c -3.42,0.9531 -11.23,1.4297 -23.42,1.4297 -9.72,0 -18.77,-0.4766 -27.14,-1.4297 -5.91,12.7617 -11.72,24.4805 -17.43,35.1445 -13.34,25.5235 -24.67,43.2383 -34,53.1409 -0.77,1.144 -2.67,2.574 -5.72,4.289 V 42.4883 c 0,-8.7617 1.24,-13.9063 3.72,-15.4258 1.14,-0.7656 5.71,-1.1445 13.71,-1.1445 V 13.0586 c -11.05,0.9531 -22.86,1.4297 -35.43,1.4297 -12.38,0 -24,-0.4766 -34.85,-1.4297 V 25.918 c 7.42,0 12,0.6679 13.71,2 2.66,1.9023 4,6.7617 4,14.5703 V 178.488 c 0,8 -1.24,13.047 -3.71,15.141 -1.72,1.336 -6.39,2.004 -14,2.004 v 12.57 c 9.33,-0.953 20.94,-1.43 34.85,-1.43 12,0 23.81,0.477 35.43,1.43 v -12.57 c -7.43,0 -12,-0.668 -13.71,-2.004 -2.48,-2.094 -3.72,-7.141 -3.72,-15.141 v -61.425 c 6.66,5.519 11.52,11.234 14.57,17.14 l 42.58,58.285 c 2.28,4 3.33,9.239 3.14,15.715 5.52,-0.953 12.66,-1.43 21.43,-1.43 6.85,0 12.85,0.477 18,1.43 v -8.57 c -12.38,0 -20.67,-3.813 -24.86,-11.43 l -39.71,-57.14 51.99,-89.7153 c 2.1,-2.2891 4.29,-4.5743 6.58,-6.8594 5.71,-5.1445 10.19,-7.7149 13.43,-7.7149 z m 191.51,48 c -0.19,-14.8555 -1.05,-31.0469 -2.57,-48.5703 -13.72,1.1445 -22,1.7148 -24.86,1.7148 -0.38,0 -5.9,0 -16.57,0 -10.48,0 -19.14,0 -26,0 -9.52,0 -26.48,-0.5703 -50.86,-1.7148 v 8.9062 c 6.1,1.1407 9.14,8 9.14,20.6172 V 179.535 c 0,6.524 -1.19,11.098 -3.57,13.762 -2.38,2.668 -7.09,4 -14.14,4 v 10.906 l 74.86,-1.43 c 6.47,0 12.28,0 17.43,0 5.14,0 9.71,0 13.71,0 11.24,0 18.48,0.477 21.72,1.43 -0.38,-6.621 -1.24,-19.668 -2.58,-39.144 h -10.57 c 0,5.191 0,11.191 0,17.953 0.19,3.668 -4.95,5.476 -15.43,5.476 -22.66,0 -37.52,0.188 -44.57,0.571 -1.33,-1.903 -2,-5.86 -2,-11.954 v -57.761 h 40.53 c 3.24,0 5.43,0.574 6.61,1.715 2.29,2.859 3.43,9.429 3.43,19.714 h 10.58 V 85.3477 h -11.72 c 0,11.2343 -1.71,18.0933 -5.19,20.5703 -2.1,1.332 -8.62,2.094 -19.52,2.285 h -24.72 V 31.3477 c 16,0.3789 24.38,0.5703 25.15,0.5703 14.09,0 26.28,0.7617 36.57,2.2851 1.33,5.5235 2.85,14.4766 4.57,26.8555 z m 218.6,138.8594 c -9.9,-18.477 -23.52,-44.762 -40.85,-78.859 -5.91,-12.571 -8.86,-21.5238 -8.86,-26.8559 V 42.7773 c 0,-7.8125 1.23,-12.7656 3.72,-14.8593 1.9,-1.3321 6.47,-2 13.71,-2 V 13.0586 c -11.05,0.9531 -22.77,1.4297 -35.14,1.4297 -12.39,0 -24.01,-0.4766 -34.86,-1.4297 V 25.918 c 7.43,0 12,0.6679 13.71,2 2.48,2.0937 3.72,7.0468 3.72,14.8593 v 43.9961 c 0,7.2383 -3.91,18.2856 -11.72,33.1446 l -23.71,45.141 c -8.96,17.14 -17.43,25.238 -25.43,24.285 v 10.574 c 23.24,8 35.9,12 38,12 2.66,-1.145 6.62,-5.715 11.86,-13.715 5.23,-8 9.18,-14.953 11.85,-20.859 l 26,-59.141 c 8.95,16.949 22.76,46.285 41.43,88 h 16.57 z m 188.84,6.285 c 0,-0.765 -0.85,-14.289 -2.57,-40.574 h -10.57 c 0,2.859 -0.38,9.812 -1.14,20.859 -2.81,4 -9.63,6 -20.34,6 -1.52,0 -7.19,-0.14 -17,-0.429 -9.81,-0.286 -16.14,-0.426 -18.95,-0.426 v -69.43 h 38.86 c 4,0 6.38,1.332 7.14,4 0.76,1.902 1.14,6.953 1.14,15.141 h 11.15 V 82.7773 h -11.15 c 0,9.3282 -0.38,15.3321 -1.14,17.9957 -0.95,4 -3.34,6 -7.14,6 h -38.86 V 43.25 c 0,-7.7617 1.43,-12.6172 4.29,-14.4727 2.28,-1.3359 8.47,-2.0039 18.57,-2.0039 V 13.0586 c -11.05,0.9531 -23.62,1.4297 -37.72,1.4297 -14.28,0 -26.85,-0.4766 -37.71,-1.4297 v 13.7148 c 7.62,0 12.43,0.8125 14.43,2.4297 2,1.6172 3,6.3321 3,14.1407 V 179.059 c 0,12.574 -5.81,18.859 -17.43,18.859 v 10.285 c 17.66,-0.953 38.57,-1.43 62.72,-1.43 6.28,0 14.99,0.379 26.23,1.145 8.52,0.762 15.19,0.855 19.95,0.285 3.24,-0.383 7.96,-1.051 14.24,-2 z M 3785.49,13.3477 c -16.38,0.7617 -28.95,1.1406 -37.72,1.1406 -11.42,0 -22.66,-0.3789 -33.71,-1.1406 V 25.918 c 5.72,0 9.43,0.1914 11.14,0.5703 3.05,0.7617 4.57,2.4765 4.57,5.1445 0,0.5703 -0.66,3.1406 -1.99,7.7149 l -9.43,32.8554 h -50 l -5.43,-24 c -2.1,-9.332 -3.15,-14.1875 -3.15,-14.5703 0,-3.8125 0.77,-6.0469 2.29,-6.7187 1.53,-0.6641 6.19,-0.9961 14,-0.9961 V 13.3477 c -9.14,0.7617 -17.05,1.1406 -23.72,1.1406 -8.38,0 -16.75,-0.3789 -25.14,-1.1406 V 25.918 c 8.96,-1.336 15.34,4.6679 19.15,18 l 47.71,164.855 h 18.86 l 55.14,-168.5699 c 2.29,-7.0468 4.24,-11.1914 5.86,-12.4297 1.62,-1.2382 5.47,-1.8554 11.57,-1.8554 z m -72,75.1406 -20.67,67.8087 -19.05,-67.8087 z m 262.6,-49.1406 -5.14,-14.5704 c -11.81,-9.9101 -27.91,-14.85933 -48.29,-14.85933 -28.19,0 -49.9,9.62113 -65.14,28.85543 -14.47,18.2852 -21.72,43.3321 -21.72,75.1446 0,30.473 8.39,54.57 25.15,72.285 16,16.762 36.67,25.141 62,25.141 16.76,0 34.86,-3.903 54.28,-11.711 l -3.71,-50.57 h -10.29 c -0.18,6.664 -0.76,14.664 -1.71,23.996 -2.47,5.906 -7.14,11 -14,15.289 -6.86,4.281 -14.38,6.425 -22.57,6.425 -17.33,0 -30.57,-7.714 -39.72,-23.144 -8.37,-13.902 -12.57,-31.711 -12.57,-53.426 0,-28.1913 5.43,-50.0975 16.29,-65.7147 10.86,-15.6211 25.52,-23.4297 44,-23.4297 8.19,0 16.66,2 25.43,6 0,0 4.95,2.7617 14.85,8.2852 z m 219.46,168.8553 -3.71,-46.289 h -11.15 c 0,12.762 -0.48,20.574 -1.43,23.43 -0.95,2.859 -3.8,4.191 -8.56,4 l -35.43,-0.856 -1.15,-24.285 V 42.4883 c 0,-8.5703 1.24,-13.6211 3.72,-15.1406 1.33,-0.9532 5.9,-1.4297 13.71,-1.4297 V 13.0586 c -11.24,0.9531 -23.05,1.4297 -35.43,1.4297 -12.19,0 -23.71,-0.4766 -34.57,-1.4297 V 25.918 c 7.62,0 12.09,0.4765 13.43,1.4297 2.66,1.7109 4,6.7617 4,15.1914 l -1.14,146.2339 -33.71,0.571 c -3.24,0 -6.15,-1.332 -8.72,-4.047 -2.57,-2.664 -3.86,-5.285 -3.86,-7.809 v -15.574 h -11.43 v 46.289 c 22.76,-0.953 48.19,-1.43 76.29,-1.43 29.81,0 56.19,0.477 79.14,1.43 z m 214.88,-93.144 c 0,-32.0004 -7.04,-57.2387 -21.14,-75.7113 -15.04,-19.6211 -36.86,-29.42973 -65.43,-29.42973 -27.23,0 -47.71,9.42583 -61.43,28.28513 -12.56,17.5235 -18.85,42 -18.85,73.4299 0,30.285 7.62,54.472 22.86,72.57 15.24,18.094 36.19,27.141 62.85,27.141 25.71,0 45.67,-8.617 59.86,-25.856 14.19,-17.238 21.28,-40.715 21.28,-70.429 z m -36.57,-6.286 c 0,26.286 -4.14,47.239 -12.43,62.856 -8.28,15.621 -19.09,23.43 -32.42,23.43 -32.38,0 -48.58,-28 -48.58,-84 0,-16.5707 1.72,-31.3324 5.15,-44.2856 7.05,-27.0468 20.1,-40.5703 39.14,-40.5703 32.76,0 49.14,27.5235 49.14,82.5699 z m 238.66,-95.7144 c -7.62,0.9531 -15.67,1.4297 -24.05,1.4297 -6.29,0 -13.52,-0.4766 -21.76,-1.4766 l -43.05,98.0473 2,5.714 c 7.81,-1.332 15.62,1.332 23.43,8 9.14,7.809 13.71,18.477 13.71,32 0,8.383 -2.48,16.094 -7.43,23.141 -5.71,8.195 -13.23,12.289 -22.57,12.289 -0.76,0 -3.33,0 -7.71,0 -4.2,-0.191 -6.77,-0.289 -7.72,-0.289 -0.38,-3.047 -0.57,-6.379 -0.57,-9.996 V 42.4883 c 0,-7.8086 1.24,-12.668 3.72,-14.5703 1.9,-1.3321 6.57,-2 14,-2 V 13.0586 c -11.24,0.9531 -22.96,1.4297 -35.15,1.4297 -12.19,0 -23.9,-0.4766 -35.14,-1.4297 V 25.918 c 7.24,0 11.95,0.8086 14.14,2.4258 2.19,1.621 3.29,6.3359 3.29,14.1445 V 178.488 c 0,8 -1.34,13.047 -4,15.141 -1.91,1.336 -6.38,2.004 -13.43,2.004 v 12.57 c 15.81,-1.144 28.57,-1.621 38.29,-1.43 l 48.57,1.43 c 30.85,0 46.28,-12.859 46.28,-38.57 0,-13.715 -4.66,-25.528 -14,-35.43 -2.85,-3.238 -10.28,-8.953 -22.28,-17.14 l 34.28,-74.2857 c 1.72,-3.8125 4.33,-7.5273 7.86,-11.1445 3.52,-3.6211 6.62,-5.5234 9.29,-5.7148 V 13.0586" /><path
         id="path18"
         style="fill:#cfa550;fill-opacity:1;fill-rule:evenodd;stroke:none"
         d="m 606.23,2402.84 h 61.836 v -123.67 h 123.672 v 123.67 h 61.832 v -185.5 H 668.066 V 2155.5 H 853.57 V 1970 h -61.832 v 123.66 H 668.066 V 1043.48 c 15.657,-2.24 30.77,-6.15 45.157,-11.56 52.117,59.61 126.742,99.04 210.605,105 23.235,80.75 92.232,142.14 177.092,154.29 v 1111.63 h 247.34 V 2341 h -185.51 v -123.66 h 185.51 v -61.84 h -185.51 v -864.29 c 104.87,-15.01 185.51,-105.21 185.51,-214.22 0,-76.69 -39.92,-144.06 -100.1,-182.502 4.62,-21.246 7.05,-43.308 7.05,-65.937 0,-170.715 -138.45,-309.176 -309.159,-309.176 -93.367,0 -177.071,41.422 -233.762,106.879 -23.406,-8.668 -48.719,-13.414 -75.137,-13.414 -119.507,0 -216.429,96.918 -216.429,216.426 0,109.007 80.644,199.204 185.507,214.214 z m 162.567,-1401.8 0.016,-0.02 c -14.387,-14.774 -26.938,-31.34 -37.29,-49.332 l -0.003,0.007 c -20.868,-36.265 -32.817,-78.308 -32.817,-123.144 0,-33.145 6.539,-64.762 18.375,-93.653 -15.715,-13.324 -34.797,-22.793 -55.789,-26.949 -15.726,37.059 -24.422,77.817 -24.422,120.602 0,54.597 14.172,105.887 39.024,150.402 -12.379,3.199 -25.36,4.899 -38.739,4.899 -85.363,0 -154.589,-69.223 -154.589,-154.586 0,-85.36 69.226,-154.586 154.589,-154.586 13.129,0 25.871,1.64 38.043,4.722 l 1.438,0.371 1.805,0.493 1.539,0.429 0.945,0.278 0.945,0.285 0.078,0.023 1.809,0.559 0.937,0.301 0.938,0.304 1.863,0.629 0.93,0.324 0.926,0.329 2.078,0.765 1.469,0.555 1.945,0.769 0.906,0.368 0.277,0.113 2.422,1.027 0.899,0.387 0.222,0.102 2.329,1.054 0.113,0.051 0.883,0.41 0.879,0.414 1.574,0.77 0.176,0.086 0.871,0.429 0.242,0.121 2.055,1.063 0.292,0.148 0.86,0.457 1.707,0.926 0.844,0.469 0.847,0.473 0.102,0.058 1.621,0.934 1.328,0.789 1.945,1.18 0.825,0.511 0.277,0.176 c 0.699,0.441 1.394,0.879 2.082,1.332 l 0.082,0.051 0.809,0.531 0.234,0.156 2.074,1.399 0.094,0.066 0.789,0.551 c 0.754,0.527 1.508,1.059 2.254,1.602 l 0.105,0.078 0.778,0.566 0.019,0.016 1.528,1.136 0.765,0.586 c 36.953,28.246 60.789,72.77 60.789,122.864 0,38.324 -13.957,73.39 -37.062,100.402 9.918,18.738 22.515,35.844 37.269,50.812 38.125,-39.015 61.633,-92.371 61.633,-151.214 0,-70.332 -33.578,-132.836 -85.562,-172.368 44.988,-46.652 108.125,-75.683 178.035,-75.683 136.569,0 247.329,110.765 247.329,247.336 0,14.289 -1.22,28.297 -3.54,41.922 l -0.04,0.246 v 0.004 c -0.29,1.656 -0.59,3.304 -0.91,4.949 l -0.03,0.168 -0.09,0.43 c -0.28,1.46 -0.58,2.921 -0.89,4.375 l -0.13,0.601 c -0.33,1.496 -0.67,2.984 -1.02,4.473 l -0.02,0.109 -0.03,0.141 -0.08,0.308 c -0.34,1.426 -0.7,2.844 -1.06,4.262 l -0.21,0.789 c -0.37,1.418 -0.75,2.828 -1.15,4.235 l -0.2,0.738 c -0.4,1.394 -0.81,2.789 -1.23,4.179 l -0.23,0.739 c -0.42,1.383 -0.86,2.758 -1.31,4.133 l -0.24,0.734 c -0.45,1.383 -0.92,2.766 -1.4,4.137 l -0.28,0.793 c -0.45,1.246 -0.9,2.484 -1.36,3.718 l -0.46,1.239 c -0.46,1.218 -0.93,2.437 -1.41,3.652 l -0.39,0.969 c -0.49,1.226 -1,2.449 -1.51,3.668 l -0.4,0.949 c -29.7,69.875 -90.63,123.289 -165.27,142.719 -0.22,2.99 -0.33,6.01 -0.33,9.06 0,18.54 4.08,36.14 11.4,51.92 93.02,-22.7 169.57,-87.49 208.3,-173.051 35.68,28.321 58.56,72.051 58.56,121.131 0,85.36 -69.22,154.59 -154.58,154.59 -64.92,0 -120.5,-40.04 -143.402,-96.77 -0.325,-0.8 -0.641,-1.61 -0.95,-2.41 l -0.554,-1.46 -0.563,-1.53 -0.797,-2.26 -0.445,-1.33 -0.731,-2.24 -0.445,-1.45 -0.629,-2.12 -0.355,-1.24 c -0.239,-0.85 -0.473,-1.7 -0.696,-2.56 l -0.293,-1.14 c -0.246,-0.97 -0.48,-1.93 -0.707,-2.91 l -0.156,-0.68 c -0.222,-0.99 -0.441,-1.98 -0.648,-2.97 l -0.125,-0.61 c -0.223,-1.09 -0.43,-2.18 -0.629,-3.28 l -0.051,-0.27 -0.035,-0.2 c -0.207,-1.17 -0.399,-2.33 -0.578,-3.5 l -0.02,-0.12 -0.008,-0.05 -0.011,-0.06 c -0.176,-1.18 -0.344,-2.36 -0.492,-3.55 l -0.012,-0.08 -0.02,-0.11 -0.023,-0.22 c -0.152,-1.21 -0.289,-2.42 -0.414,-3.65 l -0.008,-0.04 c -0.129,-1.29 -0.242,-2.57 -0.34,-3.87 l -0.008,-0.04 c -0.097,-1.27 -0.175,-2.55 -0.242,-3.82 l -0.008,-0.15 c -0.129,-2.62 -0.199,-5.25 -0.199,-7.9 v -0.19 c 0.106,-85.273 69.294,-154.398 154.594,-154.398 3.07,0 6.11,0.102 9.13,0.278 9.07,-18.758 15.52,-39.02 18.87,-60.313 -9.17,-1.187 -18.52,-1.801 -28,-1.801 -118.51,0 -214.793,95.313 -216.395,213.434 -57.226,-7.06 -108.41,-33.68 -146.648,-72.96 z m 219.644,133.78 -0.003,-0.01 0.003,0.01" /><path
         id="path20"
         style="fill:#cfa550;fill-opacity:1;fill-rule:nonzero;stroke:none"
         d="m 166.949,13.0586 c -3.426,0.9531 -11.234,1.4297 -23.426,1.4297 -9.714,0 -18.761,-0.4766 -27.144,-1.4297 -5.902,12.7617 -11.711,24.4805 -17.4259,35.1445 -13.3359,25.5235 -24.6679,43.2383 -34.0039,53.1409 -0.7578,1.144 -2.664,2.574 -5.7148,4.289 V 42.4883 c 0,-8.7617 1.2422,-13.9063 3.7187,-15.4258 C 64.0938,26.2969 68.668,25.918 76.668,25.918 V 13.0586 c -11.0469,0.9531 -22.8594,1.4297 -35.4297,1.4297 -12.3828,0 -24,-0.4766 -34.85549,-1.4297 V 25.918 c 7.42579,0 11.99609,0.6679 13.71099,2 2.6679,1.9023 4,6.7617 4,14.5703 V 178.488 c 0,8 -1.2383,13.047 -3.711,15.141 -1.7148,1.336 -6.3828,2.004 -13.99999,2.004 v 12.57 c 9.33199,-0.953 20.94919,-1.43 34.85549,-1.43 12,0 23.8086,0.477 35.4297,1.43 v -12.57 c -7.4297,0 -12,-0.668 -13.7149,-2.004 -2.4765,-2.094 -3.7187,-7.141 -3.7187,-15.141 v -61.425 c 6.6679,5.519 11.5273,11.234 14.5742,17.14 l 42.5704,58.285 c 2.285,4 3.336,9.239 3.144,15.715 5.524,-0.953 12.665,-1.43 21.426,-1.43 6.86,0 12.86,0.477 18,1.43 v -8.57 c -12.379,0 -20.664,-3.813 -24.855,-11.43 L 94.3789,131.063 146.379,41.3477 c 2.094,-2.2891 4.285,-4.5743 6.574,-6.8594 5.711,-5.1445 10.192,-7.7149 13.426,-7.7149 z m 191.508,48 c -0.191,-14.8555 -1.047,-31.0469 -2.57,-48.5703 -13.715,1.1445 -22,1.7148 -24.86,1.7148 -0.379,0 -5.902,0 -16.57,0 -10.477,0 -19.144,0 -26,0 -9.523,0 -26.477,-0.5703 -50.855,-1.7148 v 8.9062 c 6.093,1.1407 9.14,8 9.14,20.6172 V 179.535 c 0,6.524 -1.191,11.098 -3.57,13.762 -2.383,2.668 -7.098,4 -14.145,4 v 10.906 l 74.86,-1.43 c 6.472,0 12.285,0 17.426,0 5.144,0 9.714,0 13.714,0 11.239,0 18.477,0.477 21.715,1.43 -0.383,-6.621 -1.238,-19.668 -2.574,-39.144 h -10.57 c 0,5.191 0,11.191 0,17.953 0.191,3.668 -4.95,5.476 -15.426,5.476 -22.668,0 -37.524,0.188 -44.57,0.571 -1.336,-1.903 -2,-5.86 -2,-11.954 v -57.761 h 40.523 c 3.238,0 5.426,0.574 6.617,1.715 2.285,2.859 3.43,9.429 3.43,19.714 h 10.57 V 85.3477 h -11.715 c 0,11.2343 -1.714,18.0933 -5.191,20.5703 -2.094,1.332 -8.617,2.094 -19.52,2.285 H 281.602 V 31.3477 c 15.996,0.3789 24.378,0.5703 25.14,0.5703 14.094,0 26.285,0.7617 36.571,2.2851 1.335,5.5235 2.859,14.4766 4.574,26.8555 z M 577.059,199.918 c -9.907,-18.477 -23.524,-44.762 -40.856,-78.859 -5.906,-12.571 -8.859,-21.5238 -8.859,-26.8559 V 42.7773 c 0,-7.8125 1.238,-12.7656 3.715,-14.8593 1.902,-1.3321 6.476,-2 13.714,-2 V 13.0586 c -11.046,0.9531 -22.761,1.4297 -35.144,1.4297 -12.379,0 -24,-0.4766 -34.856,-1.4297 V 25.918 c 7.43,0 12,0.6679 13.715,2 2.477,2.0937 3.715,7.0468 3.715,14.8593 v 43.9961 c 0,7.2383 -3.906,18.2856 -11.715,33.1446 l -23.715,45.141 c -8.953,17.14 -17.429,25.238 -25.425,24.285 v 10.574 c 23.238,8 35.902,12 37.996,12 2.668,-1.145 6.621,-5.715 11.859,-13.715 5.238,-8 9.188,-14.953 11.856,-20.859 l 26,-59.141 c 8.953,16.949 22.761,46.285 41.429,88 h 16.571 z m 188.836,6.285 c 0,-0.765 -0.856,-14.289 -2.571,-40.574 h -10.57 c 0,2.859 -0.379,9.812 -1.141,20.859 -2.808,4 -9.621,6 -20.332,6 -1.527,0 -7.191,-0.14 -17,-0.429 -9.812,-0.286 -16.144,-0.426 -18.953,-0.426 v -69.43 h 38.856 c 4,0 6.379,1.332 7.14,4 0.766,1.902 1.145,6.953 1.145,15.141 h 11.14 V 82.7773 h -11.14 c 0,9.3282 -0.379,15.3321 -1.145,17.9957 -0.949,4 -3.332,6 -7.14,6 H 695.328 V 43.25 c 0,-7.7617 1.43,-12.6172 4.281,-14.4727 2.289,-1.3359 8.481,-2.0039 18.575,-2.0039 V 13.0586 c -11.047,0.9531 -23.618,1.4297 -37.715,1.4297 -14.285,0 -26.856,-0.4766 -37.711,-1.4297 v 13.7148 c 7.617,0 12.426,0.8125 14.426,2.4297 2,1.6172 3,6.3321 3,14.1407 V 179.059 c 0,12.574 -5.809,18.859 -17.426,18.859 v 10.285 c 17.664,-0.953 38.57,-1.43 62.711,-1.43 6.285,0 15,0.379 26.238,1.145 8.523,0.762 15.191,0.855 19.953,0.285 3.238,-0.383 7.953,-1.051 14.235,-2 z M 973.926,13.3477 c -16.383,0.7617 -28.953,1.1406 -37.715,1.1406 -11.426,0 -22.668,-0.3789 -33.715,-1.1406 V 25.918 c 5.715,0 9.43,0.1914 11.145,0.5703 3.047,0.7617 4.57,2.4765 4.57,5.1445 0,0.5703 -0.668,3.1406 -2,7.7149 l -9.426,32.8554 h -50 l -5.43,-24 c -2.093,-9.332 -3.144,-14.1875 -3.144,-14.5703 0,-3.8125 0.762,-6.0469 2.285,-6.7187 1.527,-0.6641 6.192,-0.9961 14,-0.9961 V 13.3477 c -9.141,0.7617 -17.047,1.1406 -23.715,1.1406 -8.379,0 -16.761,-0.3789 -25.14,-1.1406 V 25.918 c 8.953,-1.336 15.332,4.6679 19.144,18 l 47.711,164.855 h 18.859 L 956.5,40.2031 c 2.281,-7.0468 4.234,-11.1914 5.855,-12.4297 1.618,-1.2382 5.477,-1.8554 11.571,-1.8554 z m -72,75.1406 -20.668,67.8087 -19.047,-67.8087 z m 262.604,-49.1406 -5.14,-14.5704 c -11.82,-9.9101 -27.91,-14.85933 -48.29,-14.85933 -28.19,0 -49.9,9.62113 -65.14,28.85543 -14.48,18.2852 -21.72,43.3321 -21.72,75.1446 0,30.473 8.39,54.57 25.15,72.285 16,16.762 36.66,25.141 62,25.141 16.76,0 34.85,-3.903 54.28,-11.711 l -3.71,-50.57 h -10.29 c -0.19,6.664 -0.76,14.664 -1.71,23.996 -2.48,5.906 -7.15,11 -14,15.289 -6.86,4.281 -14.38,6.425 -22.57,6.425 -17.34,0 -30.57,-7.714 -39.72,-23.144 -8.38,-13.902 -12.57,-31.711 -12.57,-53.426 0,-28.1913 5.43,-50.0975 16.29,-65.7147 10.85,-15.6211 25.52,-23.4297 44,-23.4297 8.18,0 16.66,2 25.42,6 0,0 4.96,2.7617 14.86,8.2852 z m 219.46,168.8553 -3.72,-46.289 h -11.14 c 0,12.762 -0.48,20.574 -1.43,23.43 -0.95,2.859 -3.81,4.191 -8.57,4 l -35.43,-0.856 -1.14,-24.285 V 42.4883 c 0,-8.5703 1.24,-13.6211 3.71,-15.1406 1.34,-0.9532 5.91,-1.4297 13.72,-1.4297 V 13.0586 c -11.24,0.9531 -23.05,1.4297 -35.43,1.4297 -12.19,0 -23.72,-0.4766 -34.57,-1.4297 V 25.918 c 7.62,0 12.09,0.4765 13.43,1.4297 2.66,1.7109 4,6.7617 4,15.1914 l -1.15,146.2339 -33.71,0.571 c -3.24,0 -6.14,-1.332 -8.71,-4.047 -2.58,-2.664 -3.86,-5.285 -3.86,-7.809 v -15.574 h -11.43 v 46.289 c 22.76,-0.953 48.19,-1.43 76.28,-1.43 29.81,0 56.2,0.477 79.15,1.43 z m 214.88,-93.144 c 0,-32.0004 -7.05,-57.2387 -21.14,-75.7113 -15.05,-19.6211 -36.86,-29.42973 -65.43,-29.42973 -27.24,0 -47.71,9.42583 -61.43,28.28513 -12.57,17.5235 -18.85,42 -18.85,73.4299 0,30.285 7.62,54.472 22.86,72.57 15.23,18.094 36.18,27.141 62.85,27.141 25.71,0 45.66,-8.617 59.86,-25.856 14.19,-17.238 21.28,-40.715 21.28,-70.429 z m -36.57,-6.286 c 0,26.286 -4.14,47.239 -12.43,62.856 -8.28,15.621 -19.09,23.43 -32.42,23.43 -32.39,0 -48.58,-28 -48.58,-84 0,-16.5707 1.72,-31.3324 5.15,-44.2856 7.04,-27.0468 20.09,-40.5703 39.14,-40.5703 32.76,0 49.14,27.5235 49.14,82.5699 z m 238.65,-95.7144 c -7.62,0.9531 -15.66,1.4297 -24.05,1.4297 -6.28,0 -13.52,-0.4766 -21.76,-1.4766 l -43.05,98.0473 2,5.714 c 7.81,-1.332 15.62,1.332 23.43,8 9.15,7.809 13.72,18.477 13.72,32 0,8.383 -2.48,16.094 -7.43,23.141 -5.72,8.195 -13.24,12.289 -22.57,12.289 -0.76,0 -3.34,0 -7.72,0 -4.19,-0.191 -6.76,-0.289 -7.71,-0.289 -0.38,-3.047 -0.57,-6.379 -0.57,-9.996 V 42.4883 c 0,-7.8086 1.23,-12.668 3.71,-14.5703 1.91,-1.3321 6.57,-2 14,-2 V 13.0586 c -11.24,0.9531 -22.95,1.4297 -35.14,1.4297 -12.19,0 -23.91,-0.4766 -35.14,-1.4297 V 25.918 c 7.23,0 11.95,0.8086 14.14,2.4258 2.19,1.621 3.28,6.3359 3.28,14.1445 V 178.488 c 0,8 -1.33,13.047 -4,15.141 -1.9,1.336 -6.38,2.004 -13.42,2.004 v 12.57 c 15.81,-1.144 28.57,-1.621 38.28,-1.43 l 48.57,1.43 c 30.86,0 46.29,-12.859 46.29,-38.57 0,-13.715 -4.67,-25.528 -14,-35.43 -2.86,-3.238 -10.29,-8.953 -22.29,-17.14 l 34.29,-74.2857 c 1.71,-3.8125 4.33,-7.5273 7.86,-11.1445 3.52,-3.6211 6.62,-5.5234 9.28,-5.7148 V 13.0586" /></g></g></svg>