<svg xmlns="http://www.w3.org/2000/svg" width="68.312" height="50" viewBox="0 0 68.312 50"><defs><style>.cls-1{fill:#9edbdf;fill-rule:evenodd}</style></defs><path class="cls-1" d="M65.584 21.3a2.1 2.1 0 0 0 1.295-1.71c.234-2.58-3-6.36-4.115-6.82a2.443 2.443 0 0 0-.588-.16 2.33 2.33 0 0 0-.264-.01 2.563 2.563 0 0 0-1.337.39l-10.269 6.54v8.44l.531-.57zM3.516 41.59h21.04l-.343-.8a2.8 2.8 0 0 1 .128-2.44c.052-.09.109-.18.17-.27H3.516v-26.6h16.376v8.81a.882.882 0 0 0 .888.88h6.73a.881.881 0 0 0 .887-.88v-8.81h16.377V31.5a9.305 9.305 0 0 0 1.044.14c.243.02.48.06.711.1a1.681 1.681 0 0 1 .221.05c.015 0 .03.01.045.01l.271.06c.226.07.441.15.651.23a5.544 5.544 0 0 1 .568.28V8.446a3.537 3.537 0 0 0-1.811-3.071l-.56-.439L40.39.599a2.827 2.827 0 0 0-1.747-.6h-29a2.827 2.827 0 0 0-1.747.6L1.812 5.375A3.508 3.508 0 0 0 .001 8.446V38.08a3.51 3.51 0 0 0 3.515 3.51zM44.774 7.638H3.516l1.206-.947 1.028-.807h36.79l1.028.807zM8.141 4.007l1.506-1.183h29l1.506 1.183H8.141zm39.7 30.243a3.174 3.174 0 0 0-.557-.35 2.91 2.91 0 0 0-.488-.2 1.9 1.9 0 0 0-.226-.08.061.061 0 0 1-.04-.01c-.061-.01-.124-.03-.187-.04a5.105 5.105 0 0 0-.675-.11c-.143-.01-.287-.03-.43-.04s-.308-.04-.463-.07a12.244 12.244 0 0 1-1.535-.33 13.848 13.848 0 0 1-7.337-5.14 1.156 1.156 0 0 0-.584-.4 1.313 1.313 0 0 0-.278-.04.911.911 0 0 0-.7.33c-2.408 2.87-.464 6.9 2.478 8.19l-2.251.94-.87.36-.852.36-.517.21-1.538.25-4.166.68a.952.952 0 0 0-.792 1.08 1.02 1.02 0 0 0 .065.24l.645 1.51.062.15a1.273 1.273 0 0 0 1.143.76 1.816 1.816 0 0 0 .231-.02l1.585-.37a.163.163 0 0 1 .068-.01.309.309 0 0 1 .3.24.3.3 0 0 1-.227.36l-1.48.35.5 1.28a1.519 1.519 0 0 0 1 .9 1.406 1.406 0 0 0 .41.05 1.927 1.927 0 0 0 .24-.01l1-.24h.069a.3.3 0 0 1 .3.23.306.306 0 0 1-.228.37l-.913.21.365 1.04a1.4 1.4 0 0 0 .942.88c.042.01.087.01.13.02l1.43-.33a.166.166 0 0 1 .069-.01.309.309 0 0 1 .3.24.3.3 0 0 1-.227.36l-.481.11.253.78a1.584 1.584 0 0 0 1.066 1.02 1.964 1.964 0 0 0 .422.05h.109l5.776-.39a4.021 4.021 0 0 0 2.176-.84l8.157-6.37 15.523-3.7a2.083 2.083 0 0 0 1.548-1.48 7.432 7.432 0 0 0-2.99-7.39 2.308 2.308 0 0 0-.555-.24 2.256 2.256 0 0 0-.632-.09 2.72 2.72 0 0 0-1.009.21l-12.651 5.48-.808.35-.948-.74-.265-.2zm-41.8-8.23a.937.937 0 0 0-.5.15.891.891 0 0 0-.387.74v8.54a.887.887 0 0 0 .387.73.858.858 0 0 0 .5.15h6.929a.881.881 0 0 0 .888-.88v-8.54a.89.89 0 0 0-.888-.89H6.041zm5.42 1.4l1.508 2.61h-1v2.34H10.96v-2.34H9.948zm-3.948 0l1.508 2.61h-1v2.34H7.012v-2.34H6zm5.571 7.35H5.938v-1h7.146v1zm11.9-4.99v-2.87a.887.887 0 0 0-.887-.89h-6.93a.889.889 0 0 0-.887.89v8.54a.881.881 0 0 0 .887.88h6.93a.881.881 0 0 0 .887-.88v-5.67zm-3.635.56v3.61a1.179 1.179 0 0 1-2.357 0v-1.18h1.009v1.18a.17.17 0 0 0 .339 0v-3.61h-2.412a2.917 2.917 0 0 1 5.834 0h-2.413z"/></svg>