<svg xmlns="http://www.w3.org/2000/svg" width="52.38" height="50" viewBox="0 0 52.38 50"><defs><style>.cls-1{fill:#9edbdf;fill-rule:evenodd}</style></defs><path class="cls-1" d="M16.27 21.14l6.28 14.95c-.16.06-.33.12-.5.18a7.145 7.145 0 1 0 9.35 3.83 8.453 8.453 0 0 0-.52-.99l1.75-.73a.188.188 0 0 0 .02.08.757.757 0 0 0 .71.47.645.645 0 0 0 .3-.06l10.28-4.3a.765.765 0 0 0 .41-1c-.01-.03-.03-.05-.04-.08l1.26-.52.85 2.01a1.587 1.587 0 0 0 1.47.99 1.5 1.5 0 0 0 .62-.13 1.6 1.6 0 0 0 .86-2.09l-.85-2.02.98-.41a1.6 1.6 0 0 0-1.23-2.95l-19.88 8.32c-.05-.03-.09-.05-.14-.08L14.98 4.979a1.609 1.609 0 0 0-2.1-.856L6.15 6.939A1.6 1.6 0 0 0 5.28 9c.18.45 4.16 10.36 10.99 12.14zm9.81 24.76a3.295 3.295 0 0 1-2.54-6.08 3.332 3.332 0 0 1 .51-.16 3.186 3.186 0 0 1 1.44-.02 3.074 3.074 0 0 1 .79.27 3.413 3.413 0 0 1 .63.41 3.251 3.251 0 0 1 .94 1.27 3.294 3.294 0 0 1-1.77 4.31zM12.64 7.692l4.34 10.338c-3.62-1.01-6.63-5.77-8.08-8.77zM42.76.434a.712.712 0 0 0-.93-.382l-2.01.841-6.94 2.9 2.57 6.125a.338.338 0 0 1-.18.44l-3.53 1.48a.338.338 0 0 1-.44-.18L28.73 5.53l-6.47 2.711-2.01.837a.7.7 0 0 0-.38.93l.84 2.01 7.88 18.68.84 2.01a.713.713 0 0 0 .93.38l2.01-.84 17.56-7.35 2.01-.84a.705.705 0 0 0 .38-.93l-.84-2.01L43.6 2.442zm-39.85 39.1a1.6 1.6 0 0 0 1.6 1.6h11.43a1.6 1.6 0 0 0 0-3.2H4.51a1.6 1.6 0 0 0-1.6 1.596zm13.03-3.02a1.6 1.6 0 0 0 0-3.2H9.95a1.6 1.6 0 0 0 0 3.2h5.99zM1.6 31.854h14.34a1.6 1.6 0 0 0 0-3.2H1.6a1.6 1.6 0 0 0 0 3.196z"/></svg>