<svg xmlns="http://www.w3.org/2000/svg" width="49.34" height="44" viewBox="0 0 49.34 44"><defs><style>.cls-1{fill:#9edbdf;fill-rule:evenodd}</style></defs><path id="Forma_1" data-name="Forma 1" class="cls-1" d="M1120.09 1166.13l-30.21-6.39a2.383 2.383 0 0 0-2.82 1.83l-.57 3.69 34.86 7.38.57-3.69a2.388 2.388 0 0 0-1.83-2.82zm-12.7 7.3a2.4 2.4 0 0 0-2.95-1.67l-5.74 1.59-13.52-2.86-1.49 7.03-9.29 2.58a2.4 2.4 0 0 0-1.67 2.95l5.24 18.89a2.4 2.4 0 0 0 2.95 1.67l30.03-8.34a2.412 2.412 0 0 0 1.67-2.96l-.9-3.24 3.37.71a2.383 2.383 0 0 0 2.82-1.83l2.13-10.08-12.13-2.57zm3.47 9.6l.74-3.52a.982.982 0 0 1 1.16-.75l3.51.74a.982.982 0 0 1 .75 1.16l-.74 3.51a.981.981 0 0 1-1.16.76l-3.51-.74a.977.977 0 0 1-.75-1.16zm-35.94-1.05l8.32-2.3 19.61-5.45 2.11-.59a.41.41 0 0 1 .11-.01.452.452 0 0 1 .43.32l.25.89.78 2.8-30.89 8.58-1.02-3.69a.449.449 0 0 1 .3-.55zm35.82 10.85a.447.447 0 0 1-.04.34.5.5 0 0 1-.27.21l-30.03 8.34a.5.5 0 0 1-.12.02.449.449 0 0 1-.43-.33l-3.05-11.01 30.89-8.58 1.88 6.79zm-25.49.76a.968.968 0 0 0-1.2-.68l-3.51.97a.986.986 0 0 0-.68 1.21l.97 3.51a1 1 0 0 0 1.21.68l3.5-.98a.968.968 0 0 0 .68-1.2z" transform="translate(-1072.63 -1159.69)"/></svg>