<svg xmlns="http://www.w3.org/2000/svg" viewBox="0 0 616 321.33334" height="321.333" width="616"><path d="M455.707.955h8.244v16.489h16.489V.954h8.245v24.734h-24.734v8.245h24.734v24.734h-8.245V42.179h-16.49v140.024c2.089.298 4.103.82 6.022 1.541 6.948-7.948 16.899-13.205 28.08-14 3.099-10.767 12.297-18.952 23.612-20.572V.955h32.979V9.2h-24.734v16.488h24.734v8.245h-24.734v115.239c13.982 2.001 24.735 14.028 24.735 28.563 0 10.225-5.323 19.208-13.347 24.333a41.41 41.41 0 0 1 .94 8.792c0 22.762-18.46 41.223-41.222 41.223-12.448 0-23.61-5.523-31.168-14.25a28.788 28.788 0 0 1-10.019 1.788c-15.933 0-28.856-12.922-28.856-28.856 0-14.535 10.752-26.561 24.735-28.562zM477.38 187.86l.003.003a33.047 33.047 0 0 0-4.972 6.578l-.001-.001a32.813 32.813 0 0 0-4.375 16.419c0 4.42.872 8.635 2.45 12.487a16.431 16.431 0 0 1-7.44 3.593 41.081 41.081 0 0 1-3.255-16.08 41.02 41.02 0 0 1 5.202-20.054 20.62 20.62 0 0 0-5.165-.653c-11.38 0-20.61 9.23-20.61 20.612 0 11.38 9.23 20.611 20.61 20.611 1.75 0 3.45-.219 5.073-.63l.192-.05.24-.065.206-.057.125-.037.127-.038.01-.003.242-.075.124-.04.125-.04.25-.084.122-.043.124-.044.277-.102.196-.074.259-.103.121-.049.038-.015.322-.137.12-.051.03-.014.31-.14.015-.007.117-.055.118-.055.21-.103.023-.011.116-.058.033-.016.274-.141.038-.02.115-.061.228-.124.113-.062.112-.063.014-.008.216-.124.178-.106.259-.157.11-.068.037-.024c.093-.058.185-.117.277-.177l.01-.007.109-.07.032-.022.276-.186.012-.009.105-.073c.101-.07.201-.142.301-.214l.014-.01.104-.076.002-.002.204-.151.103-.079c4.925-3.766 8.104-9.702 8.104-16.381 0-5.11-1.861-9.786-4.941-13.387a28.932 28.932 0 0 1 4.969-6.775c5.083 5.202 8.217 12.316 8.217 20.162 0 9.377-4.476 17.711-11.408 22.982 5.999 6.22 14.416 10.091 23.738 10.091 18.209 0 32.977-14.769 32.977-32.978 0-1.905-.161-3.773-.472-5.59l-.005-.033c-.039-.22-.079-.44-.122-.66l-.004-.022-.01-.058c-.039-.194-.079-.39-.12-.583l-.018-.08c-.044-.2-.089-.398-.136-.597l-.002-.014-.004-.019-.011-.04c-.045-.191-.093-.38-.141-.57l-.027-.104c-.05-.19-.101-.377-.153-.565l-.028-.098a41.516 41.516 0 0 0-.164-.558l-.03-.098a38.939 38.939 0 0 0-.176-.551l-.03-.098a37.235 37.235 0 0 0-.188-.552l-.038-.105a30.374 30.374 0 0 0-.18-.496l-.061-.165c-.063-.163-.125-.325-.19-.487l-.051-.13-.2-.489-.055-.126c-3.96-9.317-12.084-16.439-22.036-19.03a16.412 16.412 0 0 1 1.477-8.13c12.402 3.027 22.608 11.665 27.772 23.073 4.758-3.776 7.808-9.606 7.808-16.15 0-11.382-9.229-20.612-20.61-20.612-8.656 0-16.067 5.338-19.12 12.902-.043.107-.086.215-.127.322l-.073.194-.076.204-.106.302-.058.177-.099.299-.059.193-.084.283-.048.165c-.032.113-.062.227-.092.341l-.04.152c-.032.13-.064.258-.093.388l-.021.091-.087.396-.016.081c-.03.146-.057.291-.084.438l-.007.036-.005.026a18.92 18.92 0 0 0-.077.467l-.003.016v.007l-.001.008c-.024.157-.047.314-.067.473l-.001.01-.003.015-.003.03c-.02.161-.038.322-.056.486v.006c-.017.172-.033.342-.045.516l-.001.005c-.014.17-.024.34-.032.51l-.002.02c-.017.349-.026.7-.026 1.053v.025c.013 11.37 9.24 20.586 20.612 20.586.409 0 .814-.013 1.218-.037a28.663 28.663 0 0 1 2.515 8.042c-1.223.158-2.468.24-3.733.24-15.802 0-28.639-12.708-28.852-28.458-7.631.942-14.455 4.491-19.554 9.728zm29.286-17.837v.001-.001" fill="#231f20" fill-rule="evenodd"/><path d="M397.135 319.592c-.456-.127-1.498-.19-3.123-.19a32.08 32.08 0 0 0-3.619.19 90.74 90.74 0 0 0-2.324-4.686c-1.778-3.403-3.289-5.765-4.533-7.085-.103-.153-.356-.343-.763-.572v8.42c0 1.167.166 1.853.496 2.056.152.102.762.153 1.828.153v1.714a55.102 55.102 0 0 0-4.724-.19c-1.65 0-3.2.063-4.646.19v-1.714c.989 0 1.6-.09 1.828-.267.354-.254.533-.902.533-1.943v-18.133c0-1.067-.165-1.74-.495-2.019-.229-.178-.852-.267-1.866-.267v-1.676c1.244.127 2.792.19 4.646.19 1.6 0 3.175-.063 4.724-.19v1.676c-.99 0-1.6.089-1.828.267-.33.28-.496.952-.496 2.019v8.19c.888-.736 1.536-1.498 1.943-2.285l5.677-7.772c.304-.533.444-1.232.419-2.095.736.127 1.688.19 2.857.19.914 0 1.714-.063 2.4-.19v1.143c-1.65 0-2.756.508-3.314 1.524l-5.295 7.618 6.932 11.962c.28.306.572.61.877.915.762.686 1.359 1.029 1.791 1.029zm25.534-6.4c-.025 1.98-.14 4.14-.342 6.476-1.83-.152-2.934-.228-3.315-.228h-5.676c-1.27 0-3.53.076-6.781.228v-1.187c.813-.152 1.218-1.067 1.218-2.75v-18.336c0-.87-.158-1.48-.476-1.835-.317-.355-.945-.533-1.885-.533v-1.454l9.981.19h4.152c1.499 0 2.464-.063 2.896-.19-.05.883-.165 2.622-.344 5.22h-1.409v-2.395c.025-.489-.66-.73-2.057-.73-3.022 0-5.003-.025-5.943-.076-.177.254-.267.781-.267 1.594v7.701h5.404c.432 0 .724-.076.882-.228.305-.381.457-1.257.457-2.629h1.41v7.924h-1.562c0-1.498-.228-2.413-.692-2.743-.28-.178-1.15-.28-2.603-.305h-3.296v10.248a748.66 748.66 0 0 1 3.354-.076c1.878 0 3.504-.102 4.876-.305.177-.737.38-1.93.609-3.58zm29.147-18.514c-1.32 2.463-3.136 5.968-5.447 10.514-.788 1.676-1.181 2.87-1.181 3.58v6.858c0 1.041.164 1.702.496 1.98.253.179.863.268 1.828.268v1.714a54.63 54.63 0 0 0-4.685-.19 53.25 53.25 0 0 0-4.648.19v-1.714c.99 0 1.6-.09 1.828-.267.33-.28.496-.94.496-1.981v-5.866c0-.966-.522-2.439-1.563-4.42l-3.161-6.019c-1.195-2.285-2.324-3.365-3.391-3.238v-1.41c3.099-1.066 4.787-1.6 5.067-1.6.354.153.882.763 1.581 1.83.697 1.066 1.224 1.993 1.58 2.78l3.467 7.886c1.193-2.26 3.034-6.171 5.524-11.733h2.209zm25.179-.838c0 .102-.114 1.905-.343 5.41h-1.41c0-.382-.05-1.309-.151-2.782-.375-.533-1.284-.8-2.712-.8-.203 0-.959.019-2.267.057a114.63 114.63 0 0 1-2.527.057v9.258h5.182c.533 0 .85-.178.952-.534.101-.253.152-.927.152-2.019h1.486v7.81h-1.486c0-1.244-.051-2.045-.152-2.4-.127-.533-.446-.8-.952-.8h-5.182v8.47c0 1.035.191 1.682.572 1.93.304.177 1.13.267 2.476.267v1.828a59.112 59.112 0 0 0-5.029-.19c-1.904 0-3.58.063-5.028.19v-1.828c1.016 0 1.657-.109 1.924-.324.267-.216.4-.845.4-1.886V297.46c0-1.677-.775-2.515-2.324-2.515v-1.371c2.355.127 5.143.19 8.363.19.837 0 1.998-.05 3.497-.152 1.136-.102 2.025-.114 2.66-.038.432.051 1.061.14 1.899.267zm27.737 25.714c-2.184-.102-3.86-.152-5.03-.152-1.522 0-3.02.05-4.494.152v-1.676c.763 0 1.257-.026 1.485-.076.407-.102.61-.33.61-.686 0-.076-.088-.42-.266-1.029l-1.257-4.38h-6.667l-.724 3.2c-.28 1.244-.42 1.89-.42 1.942 0 .508.103.806.306.896.204.088.825.133 1.866.133v1.676a38.801 38.801 0 0 0-3.162-.152c-1.118 0-2.234.05-3.352.152v-1.676c1.194.178 2.045-.623 2.553-2.4l6.361-21.981h2.515l7.352 22.476c.305.94.565 1.492.781 1.657.216.165.73.248 1.543.248zm-9.6-10.02l-2.756-9.04-2.54 9.04zm35.013 6.553l-.685 1.943c-1.575 1.321-3.721 1.98-6.439 1.98-3.758 0-6.653-1.282-8.685-3.846-1.93-2.438-2.896-5.778-2.896-10.02 0-4.063 1.119-7.276 3.353-9.638 2.134-2.235 4.89-3.352 8.267-3.352 2.235 0 4.648.52 7.237 1.562l-.494 6.742h-1.372a44.165 44.165 0 0 0-.228-3.2c-.33-.787-.952-1.466-1.867-2.038a5.573 5.573 0 0 0-3.01-.856c-2.31 0-4.075 1.028-5.295 3.085-1.116 1.854-1.676 4.229-1.676 7.124 0 3.759.724 6.68 2.172 8.762 1.448 2.083 3.402 3.124 5.866 3.124 1.092 0 2.222-.267 3.391-.8l1.98-1.105zm29.262-22.514l-.495 6.172h-1.487c0-1.702-.064-2.743-.19-3.124-.127-.381-.507-.559-1.142-.534l-4.724.115-.153 3.238v16.228c0 1.143.165 1.816.496 2.019.177.127.787.19 1.828.19v1.715a55.972 55.972 0 0 0-4.724-.19c-1.625 0-3.161.063-4.61.19v-1.714c1.017 0 1.613-.064 1.791-.191.355-.228.534-.902.534-2.026l-.152-19.497-4.495-.077c-.432 0-.82.178-1.163.54-.342.355-.514.705-.514 1.041v2.077h-1.524v-6.172c3.034.127 6.425.19 10.172.19 3.974 0 7.492-.063 10.552-.19zm28.65 12.42c0 4.266-.938 7.631-2.818 10.094-2.006 2.616-4.915 3.924-8.724 3.924-3.631 0-6.362-1.257-8.191-3.771-1.675-2.337-2.513-5.6-2.513-9.791 0-4.038 1.016-7.263 3.048-9.676 2.032-2.413 4.825-3.619 8.38-3.619 3.428 0 6.089 1.15 7.981 3.448 1.892 2.298 2.837 5.428 2.837 9.39zm-4.876.837c0-3.505-.552-6.298-1.657-8.38-1.104-2.083-2.545-3.125-4.323-3.125-4.317 0-6.477 3.734-6.477 11.2 0 2.21.23 4.178.687 5.905.94 3.606 2.68 5.41 5.218 5.41 4.368 0 6.552-3.67 6.552-11.01zm31.822 12.762a25.9 25.9 0 0 0-3.207-.19c-.839 0-1.803.063-2.901.196l-5.74-13.073.266-.761c1.042.177 2.083-.178 3.124-1.067 1.219-1.041 1.828-2.464 1.828-4.267 0-1.117-.33-2.146-.99-3.085-.762-1.093-1.764-1.639-3.01-1.639h-1.028c-.56.026-.902.039-1.029.039-.05.406-.076.85-.076 1.333v18.59c0 1.041.165 1.69.496 1.943.253.178.876.267 1.867.267v1.714a55.51 55.51 0 0 0-4.687-.19c-1.625 0-3.187.063-4.685.19v-1.714c.965 0 1.593-.108 1.885-.324.292-.216.439-.845.439-1.886v-18.133c0-1.067-.179-1.74-.534-2.019-.254-.178-.85-.267-1.79-.267v-1.676c2.108.152 3.809.216 5.105.19l6.476-.19c4.113 0 6.17 1.714 6.17 5.143 0 1.828-.62 3.403-1.866 4.724-.38.431-1.37 1.193-2.97 2.285l4.57 9.905c.23.508.577 1.003 1.048 1.486.47.482.883.736 1.239.762v1.714" fill="#231f20"/><path d="M80.83.955h8.245v16.489h16.49V.954h8.244v24.734H89.075v8.245h24.734v24.734h-8.244V42.179h-16.49v140.024c2.088.298 4.103.82 6.021 1.541 6.95-7.948 16.9-13.205 28.081-14 3.098-10.767 12.298-18.952 23.612-20.572V.955h32.979V9.2h-24.735v16.488h24.735v8.245h-24.735v115.239c13.983 2.001 24.735 14.028 24.735 28.563 0 10.225-5.323 19.208-13.347 24.333.616 2.833.94 5.775.94 8.792 0 22.762-18.46 41.223-41.22 41.223-12.45 0-23.61-5.523-31.17-14.25a28.79 28.79 0 0 1-10.017 1.788c-15.935 0-28.858-12.922-28.858-28.856 0-14.535 10.753-26.561 24.735-28.562zm21.676 186.906l.002.003a33.072 33.072 0 0 0-4.972 6.578v-.001a32.816 32.816 0 0 0-4.376 16.419c0 4.42.872 8.635 2.45 12.487a16.433 16.433 0 0 1-7.438 3.593 41.067 41.067 0 0 1-3.256-16.08c0-7.28 1.89-14.118 5.203-20.054a20.62 20.62 0 0 0-5.165-.653c-11.382 0-20.612 9.23-20.612 20.612 0 11.38 9.23 20.611 20.612 20.611 1.75 0 3.45-.219 5.072-.63l.192-.05.24-.065.206-.057.126-.037.126-.038.01-.003.241-.075.125-.04.125-.04.249-.084.124-.043.123-.044.277-.102.196-.074.26-.103.12-.049.037-.015.323-.137.12-.051.03-.014.31-.14.015-.007.118-.055.117-.055.21-.103.023-.011.116-.058.033-.016.274-.141.039-.02.114-.061.228-.124.112-.062.113-.063.014-.008.216-.124.177-.106.26-.157.11-.068.036-.024c.094-.058.186-.117.278-.177l.011-.007.108-.07.031-.022.277-.186.012-.009.105-.073c.1-.07.201-.142.3-.214l.015-.01.104-.076.002-.002.204-.151.102-.079c4.927-3.766 8.105-9.702 8.105-16.381 0-5.11-1.86-9.786-4.942-13.387a28.947 28.947 0 0 1 4.97-6.775c5.083 5.202 8.217 12.316 8.217 20.162 0 9.377-4.477 17.711-11.408 22.982 5.999 6.22 14.417 10.091 23.738 10.091 18.21 0 32.977-14.769 32.977-32.978 0-1.905-.162-3.773-.472-5.59l-.005-.033c-.039-.22-.079-.44-.121-.66l-.004-.022-.012-.058c-.038-.194-.078-.39-.119-.583l-.017-.08c-.044-.2-.09-.398-.136-.597l-.003-.014-.004-.019-.01-.04c-.046-.191-.094-.38-.142-.57l-.028-.104c-.05-.19-.1-.377-.153-.565l-.027-.098a41.516 41.516 0 0 0-.164-.558l-.03-.098a26.938 26.938 0 0 0-.175-.551l-.032-.098c-.06-.185-.123-.369-.187-.552l-.037-.105c-.06-.167-.12-.332-.182-.496l-.061-.165a34.508 34.508 0 0 0-.188-.487l-.052-.13a33.05 33.05 0 0 0-.201-.489l-.054-.126c-3.96-9.317-12.084-16.439-22.036-19.03a16.412 16.412 0 0 1 1.476-8.13c12.403 3.027 22.61 11.665 27.774 23.073 4.757-3.776 7.808-9.606 7.808-16.15 0-11.382-9.23-20.612-20.611-20.612-8.656 0-16.067 5.338-19.12 12.902-.044.107-.086.215-.127.322l-.074.194-.075.204-.106.302-.06.177-.097.299-.06.193-.083.283-.047.165a13.19 13.19 0 0 0-.093.341l-.04.152-.094.388-.02.091c-.03.132-.06.264-.087.396l-.016.081c-.03.146-.058.291-.084.438l-.007.036-.005.026c-.027.156-.053.311-.077.467l-.003.016v.007l-.002.008a17.94 17.94 0 0 0-.066.473l-.001.01-.003.015-.003.03c-.02.161-.039.322-.055.486l-.001.006c-.017.172-.033.342-.046.516v.005c-.014.17-.024.34-.033.51l-.001.02c-.017.349-.027.7-.027 1.053v.025c.015 11.37 9.24 20.586 20.613 20.586.41 0 .815-.013 1.217-.037a28.709 28.709 0 0 1 2.516 8.042c-1.222.158-2.469.24-3.733.24-15.801 0-28.64-12.708-28.853-28.458-7.63.942-14.454 4.491-19.553 9.728zm29.286-17.837v.001-.001" fill="#cfa550" fill-rule="evenodd"/><path d="M22.26 319.592c-.457-.127-1.498-.19-3.124-.19a32.15 32.15 0 0 0-3.619.19 89.383 89.383 0 0 0-2.323-4.686c-1.778-3.403-3.29-5.765-4.534-7.085-.101-.153-.355-.343-.762-.572v8.42c0 1.167.166 1.853.496 2.056.152.102.762.153 1.828.153v1.714a55.094 55.094 0 0 0-4.724-.19c-1.65 0-3.2.063-4.647.19v-1.714c.99 0 1.6-.09 1.828-.267.356-.254.534-.902.534-1.943v-18.133c0-1.067-.166-1.74-.495-2.019-.229-.178-.851-.267-1.867-.267v-1.676c1.244.127 2.793.19 4.647.19 1.6 0 3.175-.063 4.724-.19v1.676c-.99 0-1.6.089-1.828.267-.33.28-.496.952-.496 2.019v8.19c.889-.736 1.537-1.498 1.943-2.285l5.676-7.772c.305-.533.445-1.232.42-2.095.736.127 1.688.19 2.856.19.915 0 1.715-.063 2.4-.19v1.143c-1.65 0-2.755.508-3.314 1.524l-5.295 7.618 6.933 11.962c.28.306.572.61.877.915.761.686 1.359 1.029 1.79 1.029zm25.534-6.4c-.025 1.98-.14 4.14-.342 6.476-1.83-.152-2.934-.228-3.315-.228H38.46c-1.27 0-3.53.076-6.78.228v-1.187c.812-.152 1.218-1.067 1.218-2.75v-18.336c0-.87-.159-1.48-.476-1.835-.318-.355-.946-.533-1.886-.533v-1.454l9.981.19h4.152c1.499 0 2.464-.063 2.896-.19a597.82 597.82 0 0 1-.344 5.22h-1.409v-2.395c.026-.489-.66-.73-2.057-.73-3.022 0-5.003-.025-5.942-.076-.179.254-.267.781-.267 1.594v7.701h5.403c.432 0 .723-.076.882-.228.305-.381.458-1.257.458-2.629h1.409v7.924h-1.562c0-1.498-.229-2.413-.692-2.743-.28-.178-1.15-.28-2.603-.305h-3.295v10.248c2.133-.05 3.25-.076 3.352-.076 1.88 0 3.505-.102 4.876-.305.178-.737.381-1.93.61-3.58zm29.147-18.514c-1.32 2.463-3.136 5.968-5.447 10.514-.788 1.676-1.181 2.87-1.181 3.58v6.858c0 1.041.165 1.702.495 1.98.253.179.863.268 1.828.268v1.714a54.604 54.604 0 0 0-4.685-.19c-1.651 0-3.2.063-4.648.19v-1.714c.99 0 1.6-.09 1.829-.267.33-.28.495-.94.495-1.981v-5.866c0-.966-.52-2.439-1.562-4.42l-3.162-6.019c-1.194-2.285-2.324-3.365-3.39-3.238v-1.41c3.098-1.066 4.787-1.6 5.066-1.6.356.153.883.763 1.581 1.83.699 1.066 1.225 1.993 1.581 2.78l3.467 7.886c1.194-2.26 3.035-6.171 5.524-11.733h2.21zm25.178-.838c0 .102-.114 1.905-.342 5.41h-1.41c0-.382-.05-1.309-.152-2.782-.374-.533-1.283-.8-2.71-.8-.204 0-.96.019-2.268.057a109.54 109.54 0 0 1-2.527.057v9.258h5.181c.534 0 .85-.178.952-.534.102-.253.153-.927.153-2.019h1.485v7.81h-1.485c0-1.244-.05-2.045-.153-2.4-.126-.533-.444-.8-.952-.8h-5.18v8.47c0 1.035.19 1.682.57 1.93.305.177 1.131.267 2.477.267v1.828a59.096 59.096 0 0 0-5.029-.19c-1.904 0-3.58.063-5.028.19v-1.828c1.016 0 1.657-.109 1.924-.324.266-.216.4-.845.4-1.886V297.46c0-1.677-.775-2.515-2.324-2.515v-1.371c2.355.127 5.143.19 8.362.19.838 0 2-.05 3.498-.152 1.136-.102 2.025-.114 2.66-.038.432.051 1.06.14 1.898.267zm27.738 25.714c-2.185-.102-3.86-.152-5.029-.152-1.523 0-3.022.05-4.495.152v-1.676c.762 0 1.257-.026 1.486-.076.406-.102.61-.33.61-.686 0-.076-.09-.42-.268-1.029l-1.256-4.38h-6.667l-.724 3.2c-.28 1.244-.42 1.89-.42 1.942 0 .508.102.806.305.896.204.088.826.133 1.867.133v1.676a38.795 38.795 0 0 0-3.162-.152c-1.117 0-2.235.05-3.352.152v-1.676c1.194.178 2.044-.623 2.553-2.4l6.361-21.981h2.515l7.352 22.476c.304.94.565 1.492.781 1.657.216.165.73.248 1.543.248zm-9.6-10.02l-2.756-9.04-2.54 9.04zm35.014 6.553l-.686 1.943c-1.576 1.321-3.721 1.98-6.438 1.98-3.759 0-6.654-1.282-8.686-3.846-1.93-2.438-2.896-5.778-2.896-10.02 0-4.063 1.119-7.276 3.354-9.638 2.133-2.235 4.888-3.352 8.266-3.352 2.235 0 4.647.52 7.238 1.562l-.495 6.742h-1.372a44.94 44.94 0 0 0-.228-3.2c-.33-.787-.953-1.466-1.867-2.038a5.573 5.573 0 0 0-3.009-.856c-2.312 0-4.076 1.028-5.296 3.085-1.117 1.854-1.676 4.229-1.676 7.124 0 3.759.724 6.68 2.172 8.762 1.447 2.083 3.403 3.124 5.867 3.124 1.09 0 2.221-.267 3.389-.8l1.981-1.105zm29.261-22.514l-.496 6.172h-1.485c0-1.702-.064-2.743-.191-3.124-.127-.381-.508-.559-1.143-.534l-4.724.115-.152 3.238v16.228c0 1.143.166 1.816.495 2.019.179.127.788.19 1.83.19v1.715a55.972 55.972 0 0 0-4.725-.19c-1.625 0-3.162.063-4.609.19v-1.714c1.016 0 1.612-.064 1.79-.191.355-.228.534-.902.534-2.026l-.153-19.497-4.495-.077c-.432 0-.819.178-1.161.54-.344.355-.515.705-.515 1.041v2.077h-1.524v-6.172c3.035.127 6.425.19 10.17.19 3.975 0 7.494-.063 10.554-.19zm28.65 12.42c0 4.266-.94 7.631-2.818 10.094-2.007 2.616-4.915 3.924-8.724 3.924-3.632 0-6.361-1.257-8.19-3.771-1.677-2.337-2.514-5.6-2.514-9.791 0-4.038 1.016-7.263 3.048-9.676 2.03-2.413 4.824-3.619 8.38-3.619 3.428 0 6.088 1.15 7.981 3.448 1.892 2.298 2.838 5.428 2.838 9.39zm-4.875.837c0-3.505-.552-6.298-1.658-8.38-1.104-2.083-2.545-3.125-4.322-3.125-4.319 0-6.478 3.734-6.478 11.2 0 2.21.23 4.178.687 5.905.939 3.606 2.679 5.41 5.219 5.41 4.368 0 6.552-3.67 6.552-11.01zm31.82 12.762a25.885 25.885 0 0 0-3.207-.19c-.837 0-1.803.063-2.901.196l-5.74-13.073.266-.761c1.042.177 2.083-.178 3.124-1.067 1.22-1.041 1.83-2.464 1.83-4.267 0-1.117-.331-2.146-.991-3.085-.763-1.093-1.765-1.639-3.01-1.639h-1.029a34.28 34.28 0 0 1-1.028.039c-.05.406-.076.85-.076 1.333v18.59c0 1.041.164 1.69.495 1.943.255.178.876.267 1.867.267v1.714a55.479 55.479 0 0 0-4.686-.19c-1.625 0-3.188.063-4.685.19v-1.714c.964 0 1.593-.108 1.885-.324.292-.216.438-.845.438-1.886v-18.133c0-1.067-.178-1.74-.534-2.019-.253-.178-.85-.267-1.789-.267v-1.676c2.108.152 3.81.216 5.104.19l6.476-.19c4.115 0 6.172 1.714 6.172 5.143 0 1.828-.623 3.403-1.867 4.724-.381.431-1.372 1.193-2.972 2.285l4.572 9.905c.228.508.578 1.003 1.048 1.486.47.482.883.736 1.238.762v1.714" fill="#cfa550"/></svg>