<svg xmlns="http://www.w3.org/2000/svg" viewBox="0 0 240 321.33334" height="321.333" width="240"><path d="M80.269.955h8.245v16.489h16.489V.954h8.244v24.734H88.514v8.245h24.733v24.734h-8.244V42.179h-16.49v140.024c2.088.298 4.103.82 6.021 1.541 6.95-7.948 16.899-13.205 28.081-14 3.098-10.767 12.297-18.952 23.612-20.572V.955h32.978V9.2h-24.733v16.488h24.733v8.245h-24.733v115.239c13.981 2.001 24.735 14.028 24.735 28.563 0 10.225-5.323 19.208-13.347 24.333a41.41 41.41 0 0 1 .94 8.792c0 22.762-18.46 41.223-41.222 41.223-12.449 0-23.61-5.523-31.169-14.25a28.787 28.787 0 0 1-10.017 1.788c-15.935 0-28.858-12.922-28.858-28.856 0-14.535 10.753-26.561 24.735-28.562zm21.675 186.906l.002.003a33.084 33.084 0 0 0-4.971 6.578l-.002-.001a32.817 32.817 0 0 0-4.375 16.419c0 4.42.872 8.635 2.45 12.487a16.432 16.432 0 0 1-7.438 3.593 41.067 41.067 0 0 1-3.257-16.08c0-7.28 1.89-14.118 5.203-20.054a20.615 20.615 0 0 0-5.164-.653c-11.382 0-20.613 9.23-20.613 20.612 0 11.38 9.23 20.611 20.613 20.611 1.75 0 3.449-.219 5.072-.63l.192-.05.24-.065.205-.057.127-.037.126-.038.01-.003.241-.075.125-.04.125-.04.249-.084.123-.043.124-.044.277-.102.196-.074.26-.103.12-.049.037-.015.323-.137.12-.051.03-.014.31-.14.015-.007.118-.055.116-.055.21-.103.024-.011.116-.058.032-.016.274-.141.04-.02.114-.061.227-.124.113-.062.113-.063.013-.008.217-.124.177-.106.26-.157.109-.068.037-.024c.093-.058.186-.117.278-.177l.01-.007.108-.07.032-.022.276-.186.013-.009.105-.073a17 17 0 0 0 .3-.214l.014-.01.105-.076.002-.002.203-.151.103-.079c4.927-3.766 8.105-9.702 8.105-16.381 0-5.11-1.861-9.786-4.942-13.387a28.952 28.952 0 0 1 4.97-6.775c5.083 5.202 8.217 12.316 8.217 20.162 0 9.377-4.477 17.711-11.408 22.982 5.998 6.22 14.416 10.091 23.738 10.091 18.209 0 32.977-14.769 32.977-32.978 0-1.905-.162-3.773-.472-5.59l-.006-.033c-.038-.22-.078-.44-.12-.66l-.005-.022-.01-.058-.12-.583-.018-.08c-.044-.2-.088-.398-.135-.597l-.004-.014-.004-.019-.01-.04c-.046-.191-.092-.38-.142-.57l-.026-.104c-.05-.19-.102-.377-.155-.565l-.027-.098a41.516 41.516 0 0 0-.164-.558l-.03-.098c-.056-.185-.115-.368-.174-.551l-.033-.098c-.06-.185-.123-.369-.187-.552l-.037-.105a30.374 30.374 0 0 0-.18-.496l-.061-.165-.19-.487-.052-.13a32.983 32.983 0 0 0-.2-.489l-.053-.126c-3.961-9.317-12.085-16.439-22.037-19.03a16.432 16.432 0 0 1 1.476-8.13c12.402 3.027 22.609 11.665 27.773 23.073 4.757-3.776 7.81-9.606 7.81-16.15 0-11.382-9.231-20.612-20.613-20.612-8.656 0-16.066 5.338-19.12 12.902-.043.107-.085.215-.126.322l-.074.194-.075.204-.106.302-.06.177-.097.299-.06.193-.084.283-.047.165c-.032.113-.063.227-.093.341l-.039.152c-.032.13-.064.258-.094.388l-.02.091c-.03.132-.06.264-.087.396l-.017.081c-.03.146-.057.291-.084.438l-.007.036-.004.026a18.92 18.92 0 0 0-.077.467l-.003.016v.007l-.002.008a17.94 17.94 0 0 0-.066.473l-.002.01-.002.015-.003.03c-.02.161-.04.322-.056.486v.006c-.018.172-.033.342-.046.516v.005c-.014.17-.024.34-.033.51l-.001.02c-.018.349-.027.7-.027 1.053v.025c.014 11.37 9.24 20.586 20.612 20.586.41 0 .815-.013 1.218-.037a28.622 28.622 0 0 1 2.516 8.042c-1.223.158-2.468.24-3.734.24-15.801 0-28.638-12.708-28.852-28.458-7.63.942-14.454 4.491-19.553 9.728zm29.286-17.837v.001-.001" fill="#cfa550" fill-rule="evenodd"/><path d="M21.698 319.592c-.457-.127-1.499-.19-3.124-.19a32.15 32.15 0 0 0-3.619.19 89.824 89.824 0 0 0-2.324-4.686c-1.777-3.403-3.288-5.765-4.533-7.085-.102-.153-.355-.343-.762-.572v8.42c0 1.167.165 1.853.495 2.056.153.102.762.153 1.829.153v1.714a55.09 55.09 0 0 0-4.724-.19c-1.65 0-3.2.063-4.647.19v-1.714c.99 0 1.6-.09 1.828-.267.356-.254.534-.902.534-1.943v-18.133c0-1.067-.166-1.74-.496-2.019-.228-.178-.85-.267-1.866-.267v-1.676c1.244.127 2.793.19 4.647.19 1.6 0 3.175-.063 4.724-.19v1.676c-.99 0-1.6.089-1.829.267-.33.28-.495.952-.495 2.019v8.19c.889-.736 1.537-1.498 1.943-2.285l5.676-7.772c.305-.533.444-1.232.419-2.095.736.127 1.69.19 2.857.19.914 0 1.714-.063 2.4-.19v1.143c-1.65 0-2.755.508-3.314 1.524l-5.295 7.618 6.933 11.962c.28.306.572.61.876.915.762.686 1.36 1.029 1.79 1.029zm25.534-6.4c-.025 1.98-.14 4.14-.343 6.476-1.829-.152-2.933-.228-3.314-.228H37.9c-1.27 0-3.53.076-6.781.228v-1.187c.812-.152 1.219-1.067 1.219-2.75v-18.336c0-.87-.159-1.48-.477-1.835-.317-.355-.945-.533-1.885-.533v-1.454l9.98.19h4.153c1.499 0 2.463-.063 2.896-.19-.051.883-.165 2.622-.344 5.22h-1.409v-2.395c.026-.489-.66-.73-2.057-.73-3.022 0-5.003-.025-5.943-.076-.178.254-.267.781-.267 1.594v7.701h5.403c.432 0 .724-.076.883-.228.305-.381.457-1.257.457-2.629h1.41v7.924h-1.562c0-1.498-.229-2.413-.692-2.743-.28-.178-1.15-.28-2.603-.305h-3.296v10.248a670.79 670.79 0 0 1 3.353-.076c1.88 0 3.505-.102 4.876-.305.178-.737.38-1.93.61-3.58zm29.147-18.514c-1.32 2.463-3.136 5.968-5.448 10.514-.787 1.676-1.18 2.87-1.18 3.58v6.858c0 1.041.165 1.702.495 1.98.253.179.863.268 1.829.268v1.714a54.618 54.618 0 0 0-4.686-.19c-1.652 0-3.2.063-4.648.19v-1.714c.99 0 1.6-.09 1.828-.267.33-.28.496-.94.496-1.981v-5.866c0-.966-.521-2.439-1.562-4.42l-3.162-6.019c-1.194-2.285-2.324-3.365-3.39-3.238v-1.41c3.098-1.066 4.786-1.6 5.066-1.6.355.153.882.763 1.58 1.83.7 1.066 1.226 1.993 1.582 2.78l3.466 7.886c1.194-2.26 3.036-6.171 5.524-11.733h2.21zm25.178-.838c0 .102-.114 1.905-.342 5.41h-1.41c0-.382-.05-1.309-.152-2.782-.375-.533-1.283-.8-2.711-.8-.203 0-.96.019-2.267.057a109.54 109.54 0 0 1-2.527.057v9.258h5.18c.535 0 .852-.178.953-.534.102-.253.152-.927.152-2.019h1.486v7.81h-1.486c0-1.244-.05-2.045-.152-2.4-.127-.533-.445-.8-.952-.8h-5.181v8.47c0 1.035.19 1.682.571 1.93.306.177 1.13.267 2.477.267v1.828a59.103 59.103 0 0 0-5.029-.19c-1.904 0-3.581.063-5.028.19v-1.828c1.015 0 1.656-.109 1.924-.324.266-.216.4-.845.4-1.886V297.46c0-1.677-.775-2.515-2.324-2.515v-1.371c2.355.127 5.142.19 8.362.19.838 0 1.999-.05 3.498-.152 1.136-.102 2.026-.114 2.66-.038.432.051 1.06.14 1.898.267zm27.737 25.714c-2.184-.102-3.86-.152-5.028-.152-1.524 0-3.022.05-4.495.152v-1.676c.762 0 1.257-.026 1.486-.076.406-.102.609-.33.609-.686 0-.076-.089-.42-.267-1.029l-1.257-4.38h-6.667l-.723 3.2c-.28 1.244-.42 1.89-.42 1.942 0 .508.102.806.305.896.204.088.826.133 1.867.133v1.676a38.814 38.814 0 0 0-3.162-.152c-1.117 0-2.235.05-3.352.152v-1.676c1.193.178 2.044-.623 2.552-2.4l6.362-21.981h2.515l7.352 22.476c.304.94.565 1.492.78 1.657.217.165.73.248 1.543.248zm-9.6-10.02l-2.755-9.04-2.54 9.04zm35.014 6.553l-.685 1.943c-1.575 1.321-3.72 1.98-6.439 1.98-3.759 0-6.653-1.282-8.685-3.846-1.93-2.438-2.895-5.778-2.895-10.02 0-4.063 1.117-7.276 3.352-9.638 2.133-2.235 4.89-3.352 8.267-3.352 2.234 0 4.648.52 7.238 1.562l-.496 6.742h-1.37a45.032 45.032 0 0 0-.23-3.2c-.329-.787-.952-1.466-1.866-2.038a5.573 5.573 0 0 0-3.01-.856c-2.31 0-4.076 1.028-5.296 3.085-1.117 1.854-1.676 4.229-1.676 7.124 0 3.759.724 6.68 2.172 8.762 1.448 2.083 3.404 3.124 5.867 3.124 1.092 0 2.223-.267 3.39-.8l1.982-1.105zm29.261-22.514l-.496 6.172h-1.485c0-1.702-.063-2.743-.19-3.124-.127-.381-.507-.559-1.143-.534l-4.724.115-.152 3.238v16.228c0 1.143.165 1.816.494 2.019.179.127.788.19 1.83.19v1.715a55.972 55.972 0 0 0-4.724-.19c-1.626 0-3.162.063-4.61.19v-1.714c1.016 0 1.614-.064 1.791-.191.356-.228.533-.902.533-2.026l-.153-19.497-4.495-.077c-.43 0-.818.178-1.161.54-.343.355-.515.705-.515 1.041v2.077h-1.524v-6.172c3.036.127 6.427.19 10.172.19 3.975 0 7.492-.063 10.552-.19zm28.652 12.42c0 4.266-.94 7.631-2.818 10.094-2.008 2.616-4.915 3.924-8.724 3.924-3.632 0-6.363-1.257-8.191-3.771-1.676-2.337-2.515-5.6-2.515-9.791 0-4.038 1.016-7.263 3.048-9.676 2.031-2.413 4.826-3.619 8.38-3.619 3.43 0 6.09 1.15 7.982 3.448 1.892 2.298 2.838 5.428 2.838 9.39zm-4.876.837c0-3.505-.553-6.298-1.657-8.38-1.105-2.083-2.547-3.125-4.324-3.125-4.317 0-6.476 3.734-6.476 11.2 0 2.21.228 4.178.685 5.905.94 3.606 2.679 5.41 5.219 5.41 4.368 0 6.553-3.67 6.553-11.01zm31.819 12.762a25.863 25.863 0 0 0-3.205-.19c-.839 0-1.804.063-2.902.196l-5.74-13.073.267-.761c1.041.177 2.083-.178 3.123-1.067 1.22-1.041 1.829-2.464 1.829-4.267 0-1.117-.33-2.146-.99-3.085-.762-1.093-1.765-1.639-3.01-1.639h-1.028c-.56.026-.903.039-1.03.039-.05.406-.075.85-.075 1.333v18.59c0 1.041.165 1.69.494 1.943.255.178.876.267 1.867.267v1.714a55.432 55.432 0 0 0-4.685-.19c-1.626 0-3.187.063-4.686.19v-1.714c.966 0 1.594-.108 1.886-.324.293-.216.438-.845.438-1.886v-18.133c0-1.067-.177-1.74-.533-2.019-.255-.178-.85-.267-1.79-.267v-1.676c2.107.152 3.809.216 5.103.19l6.478-.19c4.113 0 6.17 1.714 6.17 5.143 0 1.828-.621 3.403-1.866 4.724-.382.431-1.372 1.193-2.971 2.285l4.57 9.905c.23.508.58 1.003 1.049 1.486.469.482.882.736 1.237.762v1.714" fill="#231f20"/></svg>