<svg id="Layer_1" xmlns="http://www.w3.org/2000/svg" viewBox="0 0 133.4 126.4"><style>.st0{fill:#ffe0b5}.st1{fill:#eab282}.st2{fill:#f7cc9e}.st3{fill:#a8421f}.st4{fill:#91381c}.st5{fill:#822612}.st6{fill:#6e1200}.st7{fill:#4a0000}.st8{fill:#ffd624}.st9{fill:#fac200}.st10{fill:#f0a300}.st11{fill:#bd4000}.st12{fill:#ff5447}.st13{fill:#ff6e5c}.st14{fill:#ed3d3b}.st15{fill:#db2630}.st16{fill:#a8001f}.st17{fill:#bf0d21}.st18{fill:#820014}.st19{fill:#ffedc7}.st20{fill:#691408}.st21{fill:#3c0000}.st22{fill:#ab4d21}.st23{fill:#666}.st24{fill:#111}.st25{fill:#919191}.st26{fill:#e6e6e6}.st27{fill:#d6805c}.st28{fill:#eaeaea}.st29{fill:#c4c4c4}.st30{fill:#d48057}.st31{fill:#fff}</style><path class="st0" d="M37.2 45.6c-1-2.9-2.2-4.2-3.7-3.4-1.5.7-1 3.1 1.5 7.2 2.4 4.1-.2 4.9-1.8 5.5-1.5.6-4.6 1.2-4.3 3.4.2 1.7 3 1.8 5.5.1 2.5-1.8 4.4-.5 6.1.5 2.2 1.3 7.6 6.9 12.3 9.6l2.9-6-18.5-16.9z"/><path class="st1" d="M37.1 56.8c-2.1-.1-3.2 1-4.9 1.6-1.6.6-2.8.2-3-.6 0 0-.3.1-.2.7.1 1.7 3 1.8 5.5.1 2.5-1.8 4.7-.5 6.5.8.6.4 2.2 1.9 3.7 2.8-1.7-2.4-5.3-5.3-7.6-5.4z"/><path class="st2" d="M55.7 62.7L37.2 45.6c-.7-2.1-1.5-3.3-2.4-3.6-.4 3.1 2.4 9.6 7.1 14.6 4.1 4.3 9.7 8.1 9.1 10.7.7.6 1.1.9 1.9 1.6l2.8-6.2z"/><path class="st1" d="M52.6 68.6l3.1-5.8s-7.6-5.8-8.8-6.1l-4-.1c2.4 3 5.8 5.1 8 6.9 1.3 1 1.4 3.1.9 4.5l.8.6z"/><path class="st3" d="M54 69.8l-.3-.2c-2.9-1.7-5.2-3.8-7.8-5.9-1.6-1.4-3.3-2.9-5.1-4.2-.9-.7-2.3-1.5-3.7-1.5-.8 0-1.6.3-2.4.8-1.2.7-2.5 1.2-3.7 1.2-1.3 0-2.2-.6-2.3-1.6-.3-2.1 2-2.9 3.6-3.4.3-.1.6-.2.8-.3l.2-.1c.9-.3 1.9-.8 2.3-1.7.3-.8 0-1.9-.8-3.3-1.9-3.2-2.6-5.3-2.3-6.6.1-.5.4-.8.9-1.1.3-.2.6-.2.9-.2 1.2 0 2.2 1.2 3.1 3.8L56 62.6l-2 7.2zM37 57.3c1.7 0 3.1.9 4.1 1.7 1.8 1.3 3.5 2.8 5.1 4.2 2.4 2.1 4.7 4.1 7.4 5.7l1.9-6.2L37 45.8v-.1c-.8-2.3-1.7-3.5-2.6-3.5-.2 0-.4.1-.7.2-.3.2-.5.4-.6.7-.3 1.1.4 3.1 2.2 6.1.9 1.6 1.2 2.8.9 3.8-.4 1.2-1.7 1.7-2.6 2.1l-.2.1-.9.3c-1.5.5-3.5 1.2-3.3 2.8.1.7.7 1.1 1.7 1.1s2.2-.4 3.3-1.2c1-.6 1.9-.9 2.8-.9z"/><path class="st4" d="M86.6 35.9c.8 2.6 6.9 19.2-14.1 26.4 0 0 6.3 6.6 22 2.8 15.2-3.7 14.7-18.6 21.7-18.2 2.4.1 2-.8-1.5-1.7-4.1-1.1-5.4-2.7-6.1-4.6-1-2.8-1.8-8.2-8-8.3-6.1 0-14 3.6-14 3.6z"/><path class="st5" d="M113.7 47.6c1.8-1.1 4.1-.4 4.1-1 .1-.7-4.3-1.4-6.8-2.9-2.6-1.6-5.5-2.2-8.1-1.4-3.9 1.2-6.3.9-6.8-1.4-.5-2-2.6-.7-4.6-1.1-2.7-.5-1.7-3.2.1-3.9l-5-.1c.8 2.6 6.9 19.2-14.1 26.4 0 0 6.3 6.6 22 2.8 13.2-3 14.6-14.4 19.2-17.4z"/><path class="st6" d="M95.1 60.1c-3.4-3.1-.4-7.2.6-10.4.8-2.5.6-5.4-1.4-6.9s-3.6-1.4-4.6-2c-1.8-1.2.6-4.2-.7-4 0 0-1.4.2-2.2.2 1.4 4.8 4.4 19-14.2 25.4 0 0 3.8 6.3 21.5 1.4 1.1-.3 2.2-2.6 1-3.7z"/><path class="st7" d="M85.4 66.7c-9.1 0-12.9-3.9-13-4.1l-.3-.3.4-.1c9-3.1 18.8-10.1 14-25.7 0-.2-.1-.3-.1-.4l-.1-.2.2-.1c.1 0 8-3.7 14.2-3.6 5.6.1 7 4.4 7.9 7.3.1.4.3.8.4 1.2.6 1.6 1.7 3.3 5.9 4.4 3.4.9 3.3 1.5 3.3 1.7-.1.5-.8.5-1.4.5h-.5c-2.9-.2-4.5 2.4-6.5 5.7-2.8 4.6-6.4 10.4-15.2 12.5-3.2.7-6.3 1.2-9.2 1.2zm-12.3-4.2c1.1.9 5 3.6 12.3 3.6 2.8 0 5.9-.4 9.1-1.2 8.6-2.1 12-7.7 14.8-12.2 2.1-3.4 3.7-6 6.7-6h.7c.4 0 .6 0 .7-.1-.2-.2-1-.6-2.8-1-4.5-1.2-5.7-3-6.3-4.8-.1-.4-.3-.8-.4-1.2-.9-2.9-2.2-6.9-7.3-6.9h-.2c-5.4 0-12.2 2.9-13.6 3.5v.2c.6 1.8 2 6.6.8 11.9-1.2 6.4-6.1 11.2-14.5 14.2z"/><path class="st8" d="M54.9 63.1c-1.2.4-2.9 3.5-2.6 8 .3 4.6 2.7.8 5.2 3 0 0 3.7-3.5 5.4-10.6l-8-.4z"/><path class="st9" d="M61.5 63.4l-6.6-.3c-.5.2-1 .7-1.5 1.6 1.6 0 4.4 1.2 4.4 3.6 0 2-1.1 4-2.6 5 .7 0 1.5 0 2.3.7.1.1 4.3-9.4 4-10.6z"/><path class="st10" d="M61.5 63.4l-6.6-.3c-.3.1-.7.4-1 .9 3.3.4 5.3 1.2 5.2 3.6 0 2-1.2 4.4-2.8 5.6.4.1.9.5 1.2.8.1.1 4.3-9.4 4-10.6z"/><path class="st11" d="M57.6 74.5l-.2-.2c-.5-.5-1.1-.7-1.8-.7-.3 0-.6 0-.9.1-.3 0-.5.1-.8.1-1.1 0-1.6-.8-1.8-2.7-.3-4.5 1.4-7.8 2.7-8.3h.1l8.4.4-.1.3c-1.6 7.1-5.3 10.6-5.5 10.7l-.1.3zm-2-1.5c.8 0 1.4.2 2 .6.7-.8 3.6-4.1 5-9.9l-7.6-.3c-1 .5-2.6 3.4-2.3 7.7.2 2.2.8 2.2 1.2 2.2.2 0 .5 0 .7-.1.3-.1.6-.2 1-.2z"/><path class="st9" d="M78.5 75.4c-1.2-.1-3.6-.4-3.2 1.1.3 1.5 1.4 3.2 3.5 3.3 2.1 0 3.2-1.7 2.9-3.7-.1-.5-2-.7-3.2-.7z"/><path class="st10" d="M75.2 76.4c.3 1.2 1.1 2.7 2.5 3.1.4.1.6 0 .3-.4-1.5-1.6 1.4-2.3 3.1-2l.3-1.4c-.6-.2-1.9-.4-2.9-.4-1.3 0-3.6-.4-3.3 1.1z"/><path class="st9" d="M89.3 74.5c0 1-.6 4.3-2.2 3.8-2-.7-3.2-4-3.2-4l5.4.2z"/><path class="st10" d="M85.9 77.5l.4-.1c-.4-1.2.5-2.1 2.9-2 .1-.4.1-.7.1-1l-5.4-.2c0 .1.7 2.1 2 3.3z"/><path class="st11" d="M87.4 78.6c-.1 0-.3 0-.5-.1-2.1-.7-3.3-4-3.3-4.2l-.1-.4 6.1.2v.3c0 .7-.3 2.8-1.2 3.7-.3.3-.6.5-1 .5zm-3.1-4c.4.9 1.4 2.9 2.8 3.4.3.1.6 0 .8-.2.6-.6 1-2.1 1-3l-4.6-.2z"/><path class="st0" d="M84.7 64.9c2.6-.2 6.1-1.2 10.3-2.9 0 0 1.7-2 4.2 0 2.5 2.1 4.3 2.6 7.4.7 3.1-1.9 2.8.4 2.8.4s-1.7 6.7-11.9 9.7c-10.4 3.1-15.9 1-15.9 1l3.1-8.9z"/><path class="st2" d="M101.6 64.1c-3.2 7.1-11.8 7.8-14.4 5.8-1.4-1-1.9-3.3-1-5.2-.6.1-1.2.1-1.5.1l-3 8.9s5.5 2.1 15.9-1c10.2-3 11.9-9.7 11.9-9.7l-7.9 1.1z"/><path class="st1" d="M106.5 64.1c-1 3-5 6.4-10 8-4.3 1.3-10 1.3-11.3-1.1-1.1-2-.3-4.8.4-6.2-.4 0-.7.1-.9.1l-3 8.9s5.2 2.1 15.6-1c10.2-3 12.2-9.8 12.2-9.8l-3 1.1z"/><path class="st3" d="M87 74.8c-3.5 0-5.4-.7-5.4-.7l-.3-.1 3.2-9.4h.2c2.1-.1 6-1.2 10.1-2.9.2-.2 1-.9 2.2-.9.8 0 1.6.3 2.4 1 1.5 1.3 2.6 1.8 3.8 1.8 1 0 2-.4 3.3-1.1.9-.5 1.6-.8 2.1-.8.4 0 .7.2.9.3.4.4.3 1 .3 1.1 0 .1-.5 1.8-2.2 3.8-1.6 1.9-4.6 4.5-9.9 6.1-3.8 1.2-7.4 1.8-10.7 1.8zm-4.9-1.2c.6.2 2.3.6 5 .6 3.2 0 6.7-.6 10.5-1.7 9.6-2.9 11.5-9.1 11.7-9.5 0-.1 0-.5-.2-.6-.1-.1-.2-.2-.4-.2-.3 0-.8.1-1.8.7-1.3.8-2.5 1.2-3.6 1.2-1.3 0-2.6-.6-4.2-1.9-.7-.6-1.4-.9-2-.9-1.1 0-1.8.8-1.8.8v.1h-.1c-4 1.7-7.9 2.8-10.1 2.9l-3 8.5z"/><path class="st0" d="M110 43.8c-1.2-.5-4.3-.1-6.7 4.1-2.3 3.8-3.4 8.9-5.8 9.9-5.1 2-7.6-.4-9 1.6-.7 1 .4 3.2 3.1 3.5 2.6.3 4.1-1.1 5.4-.7 1.6.4 3.2 2.8 5.9 3 2.6.2 4-1.9 5.8-1.2 1.3.5 3.4.9 4.9-1.2 1.1-1.6 2.1-3.7 3.3-4.4.5.1 3.9.5 4.7-1.4.5-1.3-.7-7.2-8.7-6.7-5.4.3-7.1 3-7.3 1.9-.1-.4 1.2-1.9 3.2-3.4 1.9-1.8 3.2-4.2 1.2-5z"/><path class="st2" d="M105.7 51.9c-.1-.4 1.2-1.9 3.2-3.4 1.9-1.5 3.1-3.8 1.2-4.6-1-.4-2 .2-2 .2 1.6-.1 1.8 1.4-.4 3.5-2.5 2.3-2.9 3.6-3 4.2-.1.8.9 1.2 2.5 0-.1 0-1.4.7-1.5.1zm15.9 3.8c-2.6 1.8-5.4-.8-8.3-1.5-2.7-.6-4.7 1.6-6.5 4.1-1.8 2.5-5 3.2-7.2 1.8-2.2-1.3-4.1.3-6.8.8-2.3.4-3.9-.1-4.1-1.2-.3 1.1.6 2.8 3 3.1 2.6.3 4.1-1.1 5.4-.7 1.6.4 3.2 2.8 5.9 3 2.6.2 4-1.9 5.8-1.2 1.3.5 3.4.9 4.9-1.2 1.1-1.6 2.1-3.7 3.3-4.4.5 0 5 .6 4.6-2.6z"/><path class="st1" d="M114.3 61.3c-1.4 1.6-2.9 1.4-4.4.8-1.4-.6-1.5-1-4.1.7-2.6 1.7-5 1.2-7.1 0 0 0 1.8 2.2 4.3 2.3 2.6.2 4-1.9 5.8-1.2 1.3.5 3.5.9 4.9-1.3.3-.6.6-1.3.6-1.3z"/><path class="st3" d="M103.3 65.4h-.3c-1.8-.1-3.1-1.1-4.2-1.9-.7-.5-1.3-.9-1.8-1.1h-.3c-.4 0-.9.1-1.4.3-.8.2-1.7.5-2.9.5h-.7c-1.5-.2-2.8-.9-3.3-2.1-.3-.7-.3-1.4 0-1.8.6-.9 1.4-1 2.1-1 .3 0 .7 0 1.1.1.5 0 1 .1 1.6.1 1.5 0 2.9-.3 4.3-.8 1.4-.6 2.4-2.9 3.5-5.4.6-1.5 1.3-3 2.1-4.3 2.4-4.1 5.2-4.4 6-4.4.4 0 .8.1 1.1.2.8.3 1.1.9 1.1 1.3.2 1.3-1 2.8-2.3 3.8-1.9 1.5-3 2.8-3 3.1.1 0 .4-.2.7-.3 1-.6 3-1.6 6.3-1.8h.8c4.2 0 6.3 1.8 7.3 3.2 1.1 1.6 1.2 3.3.9 3.9-.6 1.4-2.3 1.7-3.6 1.7-.5 0-1-.1-1.3-.1-.7.5-1.4 1.6-2.1 2.7-.3.5-.6 1.1-1 1.5-.8 1.2-1.9 1.8-3.2 1.8-.6 0-1.3-.1-2-.4-.2-.1-.4-.1-.7-.1-.6 0-1.1.3-1.8.6-.9.2-1.9.7-3 .7zm-6.7-3.7c.2 0 .3 0 .5.1.7.2 1.3.7 2 1.2 1.1.8 2.3 1.7 3.9 1.8 1.2.1 2.1-.3 3-.7.7-.3 1.3-.6 2.1-.6.3 0 .6.1.9.2.6.3 1.3.4 1.8.4 1.1 0 2-.5 2.8-1.5.3-.5.7-1 1-1.5.8-1.2 1.5-2.4 2.4-3l.1-.1h.1c.2 0 .7.1 1.3.1 1 0 2.6-.2 3.1-1.4.2-.5.1-1.9-.9-3.4-.9-1.4-2.8-3-6.8-3h-.8c-3.2.2-5 1.2-6.1 1.7-.5.3-.7.4-1 .4-.1 0-.4 0-.5-.5-.1-.7 1.9-2.6 3.3-3.7 1.3-1 2.2-2.4 2-3.3-.1-.4-.3-.7-.8-.9-.2-.1-.5-.1-.8-.1-.7 0-3.3.3-5.5 4.1-.8 1.3-1.4 2.8-2.1 4.3-1.2 2.7-2.2 5.1-3.8 5.7-1.5.6-2.9.9-4.5.9-.6 0-1.1 0-1.6-.1-.4 0-.7-.1-1.1-.1-.8 0-1.3.2-1.7.7-.2.3-.2.8 0 1.3.2.4.9 1.5 2.8 1.7h.6c1.1 0 1.9-.3 2.7-.5.6 0 1.1-.2 1.6-.2z"/><path class="st3" d="M112.3 55.7c.3.3.7.6 1 .8l1.2.6c.8.3 1.7.6 2.5.7l-.1.6c-.9-.2-1.8-.5-2.6-.9-.4-.2-.8-.4-1.2-.7-.4-.3-.7-.6-1-.9l.2-.2z"/><path class="st8" d="M78.4 64.4c1.9.3 3.8.3 6.2 0 1.7-.3.6.3-.1 2.4-1.4 4.3-.2 9.6 2.6 11.5 0 0-6.8-2.9-12.2-2.3 0-.1-1.6-4.6 3.5-11.6z"/><path class="st9" d="M77.9 71.2c0-3 1.5-5.5 2.9-6.6-.8 0-1.6-.1-2.4-.2C73.3 71.5 75 76 75 76c2-.2 4.3 0 6.2.5l.1-.2c-2.2-.7-3.4-2.7-3.4-5.1z"/><path class="st10" d="M76.6 71.1c.2-2.4 1.7-5.5 3-6.5-.4 0-.9-.1-1.3-.2-5.1 7.1-3.4 11.6-3.4 11.6 1.3-.1 2.5-.1 3.9.1l.1-.2c-1.9-.7-2.4-2.6-2.3-4.8z"/><path class="st11" d="M87 78.5c-.1 0-5.6-2.4-10.5-2.4-.5 0-1 0-1.5.1h-.2l-.2-.2c-.1-.2-1.6-4.7 3.5-11.8l.1-.1h.2c1.9.3 3.8.3 6.1 0 .3 0 .5-.1.6-.1.1 0 .4 0 .5.2.2.3 0 .5-.2 1-.2.4-.5.9-.7 1.6-1.4 4.2-.2 9.4 2.5 11.1l-.2.6zm-10.5-2.9c3.5 0 7.2 1.1 9.3 1.9-2.1-2.4-2.8-6.9-1.6-10.7.3-.8.5-1.3.8-1.7.1-.1.1-.3.2-.4-.1 0-.3 0-.5.1-2.3.3-4.2.4-6.1.1-4.2 5.9-3.6 10-3.3 10.9.3-.2.7-.2 1.2-.2z"/><path class="st8" d="M63.7 65.4c-1-.2-1.3 1-2 2.6s-3.3 6.3 1.7 7.4c3.9.8 7.2-1.5 8.4-3.9 1.1-2 3.5-6.3 4.9-7.3.3-.2-2.7-.9-2.9-.9-.8-.3-10.1 2.1-10.1 2.1z"/><path class="st9" d="M76.7 64.1c.3-.2-2.7-.9-2.9-.9-.2-.1-4.6 4.8-4.6 4.8-.6 1.7-1.6 4.3-4.3 4.4-1.9.1-3.3-1-3.3-2.4 0-.3-.7.3-1.1 1-.4 1.8-.1 3.7 2.9 4.3 3.9.8 7.2-1.5 8.4-3.9 1.1-1.9 3.5-6.2 4.9-7.3z"/><path class="st10" d="M73.9 63.2c-.1 0-1.9 3-1.9 3-1.3 2.8-2.2 6.3-5.1 7.3-2.4.8-5 .1-5.4-2.3 0 0-1 2.3 1.9 3.6 3.5 1.5 7.2-.9 8.4-3.3 1-1.9 4.8-7.4 4.9-7.4-.4-.3-2.7-.9-2.8-.9z"/><path class="st12" d="M63.1 65.4c-1.2 3.8-2.7 5.9-1.2 8.1 1.4 2.1 6.9 2.3 9.5-1.9 1.8-3 3.5-6.9 4.8-7.8.4-.3 1 0 1.3.2.5.2 1.5.1 1.2.4-.4.3-3.1 3.2-3.7 7.8-.5 4.1 1 7.2 4.1 7.1 1.1 0 2.2-1.3 2.1-2.6.8.2 1.5.4 1.5.4s-2.4 4.7-1.3 10.4c1.1 5.7 5.1 14.9-1.6 21.8-6.7 6.8-15.2 3.1-18.9 1.2 1.8-4.6-26.6.9-40.2-18.3-1.5-7.6 2.1-7.6 5-7.5 3.7.2 16.8 2.1 24.9-3.8 8.1-5.9 9.3-12.4 10.9-16.5l1.7.1-.1.9z"/><path class="st13" d="M59 71c-1.5 3.1-3.8 6.5-8.3 9.8-8.1 5.9-21.2 3.9-24.9 3.8-2.9-.1-6.4-.2-5 7.5.4.6 13.6 5.3 12.3 3.8-2.3-2.7-3.2-5.5-1.4-7.5 1.8-2 5.6.4 15-3.5 9-3.8 11.8-11.2 13.6-16.2L59 71z"/><path class="st14" d="M55 98.5c-6 3.3 2.4-4.6-1.8-2.1-9.3 5.5-15.1 2.5-21.7-3.2l-2 1.6s1.3 6.5 11.3 10.5c1.6.5 3.2.8 4.7 1.2 9 .4 14.1-10.5 9.5-8zm26.4-11.1c-1-5.6 1.4-10.4 1.4-10.4s-.7-.2-1.5-.4c.1 1.3-.9 2.6-2.1 2.6-3.1.1-4.6-3-4.1-7.1.6-4.7 3.2-7.5 3.7-7.8.4-.3-.6-.2-1.2-.4-3 4-6.7 10.6-5.2 16.7 1.1 4.9 2.7 12.3-6.9 14.1 0 0 2.6 11.9-.1 17.6 4.2 1.3 9.7 1.7 14.4-3.1 6.7-6.9 2.7-16.1 1.6-21.8z"/><path class="st15" d="M81.4 87.4c-1-5.6 1.4-10.4 1.4-10.4s-.7-.2-1.5-.4c.1 1.3-.9 2.6-2.1 2.6-3.1.1-4.6-3-4.1-7.1.6-4.7 3.2-7.5 3.7-7.8.2-.1-.3-.2-.3-.2-1.3 1-4.5 5-4.4 10.6.1 5.3 4.1 9.1 4.4 14.7.4 5.6-2.3 9.7-4.2 10.7-.8.4-4.6 3.5-7.7 7-.1 1.9-.5 3.7-1.1 5.1 4.2 1.3 9.7 1.7 14.4-3.1 6.6-6.8 2.6-16 1.5-21.7z"/><path class="st16" d="M70.7 113.4c-2.5 0-5.2-.6-8.1-1.9l.2-.5c4.7 2.1 11.5 3.5 16.8-2 5.2-5.3 3.7-11.7 2.4-17.3-.3-1.5-.7-2.9-.9-4.3-.9-6 1.2-10.4 1.3-10.5l.5.3s-2.1 4.4-1.3 10.2c.2 1.3.5 2.7.9 4.2 1.3 5.8 2.8 12.3-2.6 17.8-2.4 2.7-5.6 4-9.2 4zM21.1 87.1l-.6-.1c.5-2.9 3.6-2.8 5.3-2.7.5 0 1.1.1 1.8.1 5.2.4 15.9 1.2 22.9-3.8 6.8-4.9 8.7-10.3 10-14.3.3-.7.5-1.4.7-2.1l.1-.2 2.2.1-.2 1.4c-.3.9-.6 1.6-.8 2.3-.9 2.4-1.5 3.9-.4 5.5.6.8 1.9 1.4 3.4 1.3 2.3 0 4.4-1.3 5.6-3.3.6-1 1.3-2.2 1.9-3.3 1.1-2.1 2.1-3.9 3-4.6.5-.4 1.1-.1 1.5.1 0 0 .1 0 .1.1.2.1.5.1.7.1.4.1.7.1.7.3 0 .1 0 .3-.2.4-.5.4-3 3.1-3.6 7.6-.3 2.4.1 4.4 1.2 5.6.7.7 1.5 1.1 2.5 1.1.5 0 1-.2 1.3-.5.4-.4.6-1 .6-1.8h.6c0 .9-.2 1.7-.7 2.2-.4.5-1 .7-1.7.7h-.1c-1.2 0-2.2-.4-2.9-1.3-1.2-1.3-1.7-3.5-1.3-6.1.5-4.1 2.6-6.9 3.5-7.8-.3 0-.6-.1-.8-.2 0 0-.1 0-.1-.1-.3-.2-.7-.3-.9-.2-.8.6-1.8 2.4-2.9 4.4-.6 1.1-1.2 2.3-1.9 3.4-1.3 2.2-3.6 3.5-6.1 3.5-1.7 0-3.2-.6-3.9-1.6-1.2-1.8-.6-3.6.3-6 .3-.7.5-1.4.8-2.3l.1-.7h-1.2c-.2.6-.4 1.2-.7 1.9-1.4 4-3.3 9.6-10.3 14.6-7.2 5.2-18.1 4.3-23.3 3.9-.7-.1-1.3-.1-1.8-.1-1.9.2-4 .3-4.4 2.5z"/><path class="st14" d="M70.3 95c-9.3-1.6-18 5.6-21.6 7.8-3.4 2-6.1.7-10.1-2.5-4.7-3.8-10.9-11.7-14.2-13.1-1.8-.8-2.9-.7-3.6-.1-.3 1.1-.3 2.7.1 5 2.4 12.5 14.5 16.8 20 17.5 10.9 1.3 16.8-.9 20.1.9 1 .5 2.2 1.1 3.7 1.7 7.2 1.9 12.1-1.6 13.2-3.6 1.9-3.8 1.7-12-7.6-13.6z"/><path class="st15" d="M70.3 95c-.5-.1-1-.1-1.6-.2 3.6 1.6 6.9 10.6-1 13.3-6.7 2.3-10.5-2.6-22-1.4-11 1.2-20-6.6-18.8-17.8-1-.9-1.9-1.5-2.6-1.9-1.8-.8-2.9-.7-3.6-.1-.3 1.1-.3 2.7.1 5 2.4 12.5 14.5 16.8 20 17.5 10.9 1.3 16.8-.9 20.1.9 1 .5 2.2 1.1 3.7 1.7 7.2 1.9 12.1-1.6 13.2-3.6 2-3.6 1.8-11.8-7.5-13.4z"/><path class="st16" d="M68.7 112.8c-1.2 0-2.6-.1-4.1-.5-1.2-.4-2.4-1-3.8-1.7-1.6-.9-4-.7-7.2-.6-3.3.2-7.4.4-12.8-.3-1.4-.2-6.2-.9-11-4.1-4.8-3.1-7.8-7.4-9.1-12.6l.6-.1c2.7 11.5 14 15.7 19.6 16.4 5.4.6 9.4.4 12.7.3 3.3-.2 5.7-.3 7.5.6 1.3.7 2.5 1.2 3.7 1.6 3.5.9 6.4.4 7.8 0l.2.6c-.9.1-2.3.4-4.1.4z"/><path class="st0" d="M31.2 92.9c-4 1-11.5 7.4-16.3 16.2l6.9 7.6s9.6-10.2 22.3-13.1c0 0-4.7-1.3-12.9-10.7z"/><path class="st2" d="M21.8 116.7s9.6-10.2 22.3-13.1c0 0-4.7-1.3-13-10.7-.6.1-.9.3-1.6.6.6 1.8 3.6 5.8 5.6 7.8 1.7 1.7-6.1 6.8-9.6 8-3.2 1.1-6.6-.1-9.1-2.8-.5.8-1.1 1.7-1.5 2.6l6.9 7.6z"/><path class="st1" d="M14.9 109.1l6.9 7.6s9.6-10.2 22.3-13.1c0 0-4.7-1.3-13-10.7-.3.1-.5.1-.8.2 1.7 3 4 5.8 6.5 7.7 2.8 2-.4 3.8-4.5 6.4-4.1 2.6-8.9 5.7-10.4 4.8-1.3-.7-4.3-2.4-5.9-5-.3.7-.7 1.4-1.1 2.1z"/><path class="st3" d="M21.8 117.1l-7.3-8 .1-.2c4.7-8.6 12.2-15.2 16.4-16.3l.2.6c-4.1 1.1-11.3 7.5-15.9 15.9l6.6 7.2c1.5-1.5 10.6-10.3 22.3-13v.2l.1-.2h.1l1.1.3-1.1.3c-12.5 2.9-22.1 13-22.2 13.1l-.4.1z"/><path class="st8" d="M15.1 108.3c.5-.9 1.8-3 2.1-3.3.3-.2 3.4 1.7 5.1 3.7 1.7 2.1 3.4 4.8 3.1 5.1-.2.3-3.8 3.1-3.8 3.1l-6.5-8.6z"/><path class="st9" d="M16.2 106.3l-1.2 2.1 4 5.3 2.8 3.1s1.3-1 3.5-2.8c-.3-.7-1.3-2.7-2.4-4.2-2.3-.1-4.9-1.5-6.7-3.5z"/><path class="st10" d="M22 112c-1.3-.7-4.8-3.4-6.1-5.3-.3.5-.6 1.1-.9 1.6l4 5.3 2.8 3.1s1.3-1 3.5-2.8c-.1-.4-.5-1.2-1-2.1-1 .4-1.8.5-2.3.2z"/><path class="st11" d="M21.5 117.4l-6.9-9 .1-.2c.1-.2.3-.5.5-.8 1-1.7 1.4-2.4 1.7-2.6.1 0 .1-.1.2-.1.7 0 3.7 2 5.4 3.8.8.9 1.7 2.1 2.4 3.3 1.1 1.9.9 2.1.7 2.3-.3.3-3.3 2.6-3.9 3.1l-.2.2zm-6.2-9.1l6.3 8.3c1.3-1 3.1-2.5 3.5-2.8-.1-.5-1.4-3-3.1-4.8-1.6-1.8-4.3-3.5-4.9-3.6-.3.3-1 1.6-1.5 2.4-.1.1-.2.4-.3.5z"/><path class="st12" d="M19.9 112.3c-3.1-3.6-7.6-7-13.2-7-5.4 0-6.1 4.5-6.1 4.5l16.6 13s6.2-2.3 4.7-7.2c-.4-1-.9-2.1-2-3.3z"/><path class="st14" d="M21.8 115.6c-.3-.9-.8-2.1-1.9-3.3-.8-.9-1.6-1.8-2.5-2.6-.2 1.7-2.1 1.9-5.1.1-4.5-2.7-10-2.1-11.7-.1l16.6 13c-.1.1 6.2-2.2 4.6-7.1z"/><path class="st15" d="M21.8 115.6c-.2-.7-.5-1.4-1.1-2.2 0 2.3-3.1 3.3-6.2 1.2-4.9-3.4-7.7-4.3-9.8-4.7l12.5 13c-.1-.1 6.2-2.4 4.6-7.3z"/><path class="st16" d="M17.1 123.1L.3 109.9v-.2s.8-4.8 6.4-4.8h.1c6.1 0 10.7 3.9 13.4 7.2.9 1.1 1.6 2.3 2 3.4 1.6 5.1-4.8 7.5-4.9 7.5l-.2.1zM.9 109.6l16.3 12.8c.9-.4 5.7-2.5 4.4-6.8-.3-1.1-1-2.2-1.8-3.2-2.7-3.1-7.1-6.9-13-6.9h-.1c-4.5 0-5.6 3.4-5.8 4.1z"/><path class="st15" d="M1.7 109.2c-1 .1-1.7.7-1.3 2.2.5 1.9 3.3 4.1 7.5 6.9 4.1 2.9 8.8 5.5 9.7 4 .9-1.4-2.8-5.2-6.4-8.2-3.5-2.9-7.4-5-9.5-4.9z"/><path class="st17" d="M11.2 114.2c-2.9-2.4-5.9-4.3-8.1-4.8 1.4.8 3 1.9 4.5 3.2 3.1 2.5 6.2 5.6 5.6 6.6-.7 1.2-5.3-1.4-9.5-4.2l-1.8-1.2c1.3 1.3 3.4 2.9 6 4.6 4.1 2.9 8.8 5.5 9.7 4 .9-1.4-2.8-5.2-6.4-8.2z"/><path class="st18" d="M16.6 123.1c-1.6 0-4.6-1.5-8.9-4.5-4.4-3-7.1-5.2-7.6-7.1-.2-.8-.2-1.4.2-1.9.3-.4.8-.6 1.4-.7 2.1-.1 5.9 1.8 9.7 5 3.6 3 7.6 6.9 6.4 8.6-.2.5-.6.6-1.2.6zM1.9 109.5h-.2c-.3 0-.7.1-.9.4-.2.3-.3.8-.1 1.4.5 1.7 3.2 3.9 7.4 6.8s7.1 4.4 8.6 4.4c.4 0 .6-.1.7-.3.6-1-1.8-4.1-6.3-7.8-3.6-3-7.2-4.9-9.2-4.9z"/><path class="st0" d="M50.3 101.7c1 .3 1.3 2.3-2.5 13L59 116s7-8.5 8.8-14.2c1.5-5 .1-7.2-1.6-7.1-7.4.5-15.9 7-15.9 7z"/><path class="st2" d="M67.7 101.8c1.5-5 .1-7.2-1.6-7.1-7.3.5-15.9 6.9-15.9 6.9.4.1.7.6.6 1.9 3.8-1.7 9.2-3.8 10.7-2.7 1.6 1.2-1.4 9.2-4 10.3-2 .9-5.6.3-9 1.3-.2.7-.5 1.4-.8 2.2L59 116s7-8.5 8.7-14.2z"/><path class="st1" d="M67.7 101.8c1.5-5 .1-7.2-1.6-7.1-7.3.5-15.9 6.9-15.9 6.9.3.1.5.3.6.8 4.2-2.3 10.9-5.8 13.4-4.1 2.7 1.9-1.8 10.1-4.1 13.7-1.3 2-3.5.3-7.4.7-2.1.2-3.5.6-4.6 1.1l-.3.9L59 116s7-8.5 8.7-14.2z"/><path class="st3" d="M59.1 116.3l-11.7-1.4.1-.3c2.8-8 3.7-12.1 2.8-12.6l.3-.5c1.1.6 1.2 2.9-2.3 13l10.7 1.3c.9-1.1 7-8.8 8.6-14 1.1-3.5.6-5.1.2-5.8-.2-.4-.6-.7-1-.8l.2-.6c.6.2 1 .5 1.3 1.1.7 1.3.7 3.5-.2 6.3-1.7 5.7-8.5 14-8.8 14.3h-.2z"/><path class="st8" d="M56.5 110.3c-1.8-.1-6.5-.2-7.5.5-.6.4-1.1 2.5-1.8 5l12.1.4s3.4-3.9 3.2-4.2c-.5-.5-2.5-1.5-6-1.7z"/><path class="st9" d="M58.4 110.5c-.3.3-.6.5-.9.6-2.1 1-5.8.2-9.4 1.5-.3.9-.6 2-1 3.2l12.1.4s3.4-3.9 3.2-4.2c-.3-.4-1.7-1.1-4-1.5z"/><path class="st10" d="M52.7 112.7c-2.4.3-3.8.7-5 1.2-.2.6-.4 1.2-.5 1.9l12.1.4s3.4-3.9 3.2-4.2c-.2-.2-.7-.6-1.7-.9l-.6.9c-1.4 2-3.6.3-7.5.7z"/><path class="st11" d="M59.3 116.5l-12.6-.4.1-.4c.1-.3.2-.6.2-.8.7-2.5 1.2-4 1.7-4.3.8-.5 3.2-.6 5.2-.6.9 0 1.8 0 2.5.1 3.4.2 5.6 1.2 6.1 1.8.2.2.4.5-3.2 4.5v.1zm-11.8-1l11.5.3c1.3-1.6 2.7-3.3 3-3.8-.5-.4-2.3-1.3-5.6-1.5-.7 0-1.6-.1-2.5-.1-2.5 0-4.3.2-4.8.5-.4.3-1 2.2-1.5 4 0 .3 0 .5-.1.6z"/><path class="st12" d="M55.3 113.7c-2.7-.4-7.6 0-9.4 3.2-.8 1.4-1.6 5.2 1.9 6.8 4.9 2.2 11.1 3.9 13.2 0 2.5-4.5-1.6-9.4-5.7-10z"/><path class="st14" d="M55.3 113.7c-2.1-.3-6.2 0-8.3 2 3.5-1.5 7.3-1 8.8.8 1.4 1.7-1.3 4.3-5.6 3 0 0 2 4.1 4.9 6.5 2.6.3 4.8-.2 5.9-2.3 2.5-4.5-1.6-9.4-5.7-10z"/><path class="st15" d="M55.3 113.7c-1.8-.3-5-.1-7.2 1.2 2.3-.7 7.1-1.1 9.9 1.3 3.2 2.8.8 5.5-1.4 5.8-1.3.2-.2 2.5 1.4 3.9 1.3-.3 2.4-1 3.1-2.2 2.4-4.5-1.7-9.4-5.8-10z"/><path class="st16" d="M56.4 126.4c-2.9 0-6.3-1.3-8.7-2.4-1.2-.6-2.1-1.4-2.5-2.6-.6-1.8 0-3.7.5-4.6 1.7-3.2 6-3.5 7.8-3.5.7 0 1.3 0 1.9.1 2.4.4 4.8 2.2 6 4.5 1 2 1 4.1 0 5.9-1 1.7-2.6 2.6-5 2.6zm-2.9-12.5c-1.3 0-5.7.2-7.3 3.2-.4.7-1 2.5-.4 4.1.3 1 1.1 1.8 2.2 2.3 2.3 1.1 5.7 2.3 8.5 2.3 2.1 0 3.6-.7 4.4-2.2.9-1.7.9-3.6 0-5.4-1.1-2.2-3.3-3.8-5.5-4.2-.7-.1-1.3-.1-1.9-.1z"/><path class="st15" d="M54.5 119.6c-4.6-1.5-8.2.3-8.9 1.9.4.9 1 1.6 2.2 2.2 4 1.8 8.9 3.3 11.7 1.6.1-2-1.7-4.6-5-5.7z"/><path class="st17" d="M59.5 125.3c.1-2-1.8-4.6-5.1-5.7-1.5-.5-2.9-.6-4.1-.5v.2c2.9.1 5.2 2.1 4.5 3.9-.7 1.7-5.8 1.1-8.3-.6.4.4.7.9 1.3 1.1 4 1.8 8.9 3.3 11.7 1.6z"/><path class="st18" d="M56.4 126.3c-2.9 0-6.3-1.3-8.7-2.4-1.1-.5-1.9-1.3-2.4-2.3v-.1l.1-.1c.6-1.3 2.8-2.6 5.7-2.6 1.1 0 2.3.2 3.5.6 3.5 1.1 5.3 3.9 5.3 6v.2l-.1.1c-1 .4-2.1.6-3.4.6zm-10.5-4.8c.4.8 1.1 1.5 2 1.9 2.3 1.1 5.7 2.3 8.5 2.3 1.1 0 2.1-.2 2.8-.6 0-1.8-1.7-4.2-4.9-5.2-1.1-.4-2.2-.5-3.3-.5-2.5 0-4.5 1.1-5.1 2.1z"/><path class="st16" d="M72.8 112.3l-.2-.6c3.1-.9 4.6-2.9 5-3.5 1.1-1.6 1.5-4.7.3-7.5-.9-2-2.9-4.6-7.7-5.4-7.7-1.3-15 3.5-19.4 6.4-.8.5-1.5 1-2 1.3-3.6 2.1-6.4.7-10.5-2.6-2.1-1.7-4.5-4.1-6.8-6.4-2.9-3-5.6-5.8-7.4-6.7-1.2-.6-2.2-.9-2.8-.7-.2.1-.3.2-.4.4-.3 1-.4 3.2.2 5.9l-.4.1c-.6-2.8-.5-5-.2-6.2.1-.3.4-.6.7-.7.7-.3 1.9 0 3.2.7 1.8.9 4.6 3.8 7.5 6.8 2.3 2.3 4.6 4.7 6.7 6.4 3.9 3.2 6.5 4.5 9.8 2.5.5-.3 1.2-.8 2-1.3 4.4-2.9 11.9-7.9 19.8-6.5 5 .8 7.2 3.6 8.1 5.8 1.3 3 .8 6.4-.3 8.1-.3.6-1.9 2.7-5.2 3.7z"/><path class="st0" d="M62.9 63.7c-.1 1.5-.1 5 3.5 5.1 3.6.1 8.2-4.3 8.2-7.6l-11.7 2.5z"/><path class="st2" d="M74.6 61.2l-11.7 3.4c0 .2.1.5.2.7 2.4.4 5.6-.3 6.3 1 .6 1.1-1.9 2.5-3.8 2.2.3.2.8.2 1.1.2 3.5.1 7.9-4.2 7.9-7.5z"/><path class="st1" d="M74.5 62.1l-11.6 2.5c0 .1 0 .2.1.3 1.6.3 5.8 0 7.8-.3 1.8-.3.3 2.7-2.6 3.7-.2.1-.3.2-.4.3 3-.6 6.1-3.7 6.7-6.5z"/><path class="st11" d="M66.5 69.1h-.2c-1.2 0-2.1-.4-2.7-1.1-1.2-1.4-1.1-3.6-1-4.3v-.2l12.3-2.6v.4c0 3.5-4.7 7.8-8.4 7.8zm-3.3-5.2c0 .8-.1 2.6.9 3.7.5.6 1.3.9 2.3.9h.1c3.3 0 7.4-3.8 7.8-7l-11.1 2.4z"/><path class="st0" d="M48.5 16C43 18.3 34.7 26 36.1 40.9 37.6 56.3 51.2 67 68.8 64 84.8 61.3 88 51 88 51s2.5 2.4 4.8-1c2.6-3.8-.3-8.6-4.1-5.8 0 0-1.3-33.3-27.8-33.3-8.8.1-12.4 5.1-12.4 5.1z"/><path class="st19" d="M65.9 64.4c-.1-.1-.3-.2-.5-.2-4.2-.6-15.5-.5-23.4-12.9-6.9-10.8-3.3-25.1.6-30.5l-.9.6c-3.4 4.1-6.3 10.5-5.5 19.4 1.3 14.7 13.5 25 29.7 23.6z"/><path class="st2" d="M92.8 50c2.6-3.8-.3-8.6-4.1-5.8 0 0-1.3-33.3-27.8-33.3-8.9 0-12.5 5-12.5 5-2.3.9-5.1 2.8-7.4 5.8h.6c2.1-1.9 3.3-2.7 6.7-2.6 4 .1 5.7-.5 8-1.9 1.2-.7 2.2.9 5.1-.2.8-.3 2.3 3.2 7.9 4.6 1.7.4 2.8 1.9 2.9 6.6.1 4.4 1.2 5.3 5.4 8.7 6 4.8 3.8 27.5-23.3 26.2 4.4 1.3 9.3 1.7 14.6.8C84.8 61.3 88 51 88 51s2.5 2.4 4.8-1z"/><path class="st1" d="M86 49.5c-.4.8-5 14.8-27.8 14.4 3 .6 6.8.7 10.6 0C84.8 61.3 88 51 88 51s0-.1.1-.2c-1.2-1.4-1.7-2.1-2.1-1.3zm7.3-4.6c.1.3.3 1.3.4 2.5.1-.9 0-1.8-.4-2.5zm-4.6-.7s-1.1-27.5-21.1-32.5c-3.2-.3-6.6-.4-10-.5-6.4 1-9.1 4.8-9.1 4.8-1.8.8-4 2.1-6 4.2l.2.3c2.4-1.8 2.9-2 4.2-1.9 1.3.2 4.3.4 6.8-.8 2.5-1.3 2.4-1.7 3.6-1 1.2.7 2.9.2 3.8-.2.9-.4 1.2.7 2.8 1.6 1.5.8 4.1 2.5 6.8 2.8 2.7.3 2.9 2.7 3.4 5.1.5 2.5 1.5 3.5 3.5 4.7 1.8 1 1.8 4.2 4.6 6.2 3.7 2.7 3.7 5.9 3.8 9.1.1 3.9 4.7-3.9 7.1-1.1-.8-1.5-2.4-2.3-4.4-.8z"/><path class="st3" d="M62.9 64.8c-14.6 0-25.7-9.8-27.1-23.9-.6-6.7.6-12.6 3.6-17.4 3.2-5 7.2-7.1 8.9-7.8.5-.6 4.2-5.1 12.6-5.1h.1c6.1 0 11.4 1.8 15.6 5.3 3.4 2.8 6.2 6.7 8.4 11.5 3.1 7.1 3.8 14.3 3.9 16.2.7-.4 1.3-.6 2-.6 1.1 0 2 .6 2.6 1.7.8 1.6.6 3.7-.5 5.4-.9 1.3-1.9 1.9-3 1.9-.8 0-1.5-.4-1.9-.7-.3.8-1.3 2.9-3.5 5.2-2.6 2.7-7.4 6.2-15.8 7.6-2 .5-4 .7-5.9.7zM61 11.2c-8.7 0-12.3 4.9-12.3 4.9v.1h-.1c-1.6.6-5.5 2.7-8.7 7.6-3 4.7-4.2 10.4-3.5 17 1.3 13.8 12.2 23.4 26.5 23.4 1.9 0 3.9-.2 5.8-.5 8.2-1.4 12.9-4.8 15.4-7.4 2.7-2.8 3.5-5.4 3.5-5.4l.1-.5.3.3s.8.8 1.8.8c.9 0 1.8-.6 2.5-1.7 1-1.5 1.2-3.4.5-4.8-.5-.9-1.2-1.4-2.1-1.4-.7 0-1.3.3-2 .8l-.4.3v-.6c0-.1-.4-8.4-3.9-16.5C79.8 16.8 71.9 11.2 61 11.2z"/><path class="st4" d="M68.4 27.3c0-.6 1-1.8 2.6 0 1.4 1.6.8 1.8-.2 1.2-1.1-.6-2.4-.5-2.4-1.2z"/><path class="st20" d="M70.4 28c.8.4 1.4.4.8-.4 1.1 1.3.5 1.5-.5.9s-2.2-.5-2.4-1c.6.1 1.4.2 2.1.5z"/><path class="st21" d="M71.4 28.9c-.2 0-.4-.2-.7-.3-.4-.3-.9-.4-1.3-.5-.6-.2-1.2-.3-1.2-.8 0-.3.2-.6.4-.8.2-.2.5-.3 1-.2.4.1.9.4 1.4 1 .7.8 1 1.3.8 1.5.1.1-.1.2-.4.1zm-1.7-2.4c-.4-.1-.7 0-.9.2-.3.2-.4.5-.4.7 0 .3.4.5 1 .6.4.1.9.3 1.4.5.3.1.5.2.6.3h.3s.1-.3-.8-1.4c-.4-.5-.8-.8-1.2-.9z"/><path class="st22" d="M70.4 27c-.3-.3-1-.6-1.5-.3-.4.3 0 .5.7.5s1.1.1.8-.2z"/><path class="st2" d="M67.9 35.8c-1.5-.4-3.4-1.2-1.6-2.8 1.8-1.6 4.7-.3 4.5 2.1-.2 1.9-1.4 1.2-2.9.7z"/><path class="st23" d="M67.8 34.9c-.9-.3-2.2-.7-1-1.8 1.1-1 2.9-.2 2.8 1.3-.1 1.2-.9.8-1.8.5z"/><path class="st24" d="M67.1 34.8c-.6-.2-.9-.5-.9-.8 0-.3.1-.6.5-.9.5-.5 1.2-.6 1.9-.3s1.1 1 1.1 1.7c0 .4-.1.6-.3.7-.3.2-.7.1-1.2-.1-.1 0-.3-.1-.4-.1-.3-.1-.5-.1-.7-.2zm1.4-1.9c-.6-.2-1.2-.1-1.7.3-.3.3-.4.5-.4.7 0 .2.3.5.8.7.2.1.4.1.6.2.1 0 .3.1.4.1.4.1.8.3 1 .1.1-.1.2-.3.2-.6.1-.8-.4-1.3-.9-1.5z"/><path class="st25" d="M67.6 34c-.4 0-1-.1-.6-.7.4-.5 1.2-.3 1.3.3.1.6-.3.4-.7.4z"/><path class="st26" d="M67.5 33.6c-.2 0-.4-.1-.2-.3.2-.2.5-.1.5.1s-.1.2-.3.2z"/><path class="st4" d="M44.1 27.1c0-.6-1.1-1.7-2.6.1-1.4 1.7-.7 1.8.3 1.2 1-.7 2.3-.6 2.3-1.3z"/><path class="st20" d="M42.1 27.9c-.8.4-1.4.4-.9-.4-1 1.4-.4 1.5.5.9 1-.6 2.2-.6 2.3-1.1-.4.1-1.2.2-1.9.6z"/><path class="st21" d="M40.6 28.7c-.2-.2.1-.7.8-1.6.4-.6.9-.9 1.3-1 .5-.1.8 0 1 .2.3.2.5.5.5.8 0 .5-.5.6-1.1.8-.4.1-.9.3-1.3.5-.3.2-.5.3-.7.3-.3.2-.5.1-.5 0zm.9-1.5c-.9 1.1-.8 1.4-.8 1.4 0 .1.1.1.3 0 .2 0 .4-.2.6-.3.4-.3.9-.4 1.4-.6.7-.2 1-.3 1-.7 0-.2-.1-.5-.4-.7-.2-.1-.5-.3-.9-.1-.4.2-.8.5-1.2 1z"/><path class="st22" d="M42 26.9c.3-.4 1-.7 1.5-.4.4.3 0 .5-.7.5-.6 0-1.1.2-.8-.1z"/><path class="st2" d="M44 35.8c1.4-.3 3.3-1 1.7-2.6-1.6-1.5-4.4-.5-4.3 1.8 0 1.7 1.2 1.1 2.6.8z"/><path class="st23" d="M43.7 35.1c.9-.2 2.2-.7 1.1-1.7s-2.9-.3-2.9 1.2c0 1.1.8.7 1.8.5z"/><path class="st24" d="M43.7 35.2c-.1 0-.3.1-.4.1-.5.1-.9.3-1.2 0-.2-.1-.3-.4-.3-.7 0-.8.4-1.4 1.2-1.7.7-.2 1.4-.1 1.9.4.3.3.5.6.4.9-.1.3-.4.6-1 .8-.2.1-.4.1-.6.2zm-1.7-.6c0 .3.1.5.2.6.2.2.6 0 1-.1.1 0 .3-.1.4-.1.2-.1.4-.1.6-.2.5-.2.8-.4.8-.6 0-.2-.1-.5-.4-.8-.4-.4-1.1-.6-1.7-.4-.4.3-.9.8-.9 1.6z"/><path class="st25" d="M43.5 33.7c-.5-.5-1.2-.1-1.2.5 0 .5.4.3.8.2.4-.1.9-.3.4-.7z"/><path class="st26" d="M43.1 33.7c-.2-.2-.5 0-.5.2s.1.1.3.1c.2 0 .4-.1.2-.3z"/><path class="st2" d="M49.9 36.9c-.1 1.4 1.1 3.6 3.9 2.6 1.9-.7 1.8-3.1 1.3-3.8-.1.9-.9 2-2.2 2.3-1.4.2-2.6-.3-3-1.1z"/><path class="st27" d="M52.1 33.9c-.5.1-.9.4-1.2.7-.3.3-.6.7-.8 1.2-.1.4-.2.9-.1 1.4.1.4.3.9.6 1.2.5.7 1.5 1.1 2.4 1 .5 0 .9-.2 1.3-.4s.8-.6 1-1c-.1.5-.5.9-.9 1.2-.4.3-.9.5-1.4.6-.5.1-1.1 0-1.6-.2s-.9-.5-1.3-1c-.3-.4-.5-.9-.6-1.4-.1-.5 0-1.1.2-1.6s.5-.9.9-1.2c.5-.2 1-.4 1.5-.5z"/><path class="st2" d="M54.1 47.4c-2.6.1-7-.6-9.9-2.5 0 0 .4 1.9 1.8 5.7 1.5 4 3.3 5.5 6 5.7 4.6.3 10.1.7 12.9-4.9 2.9-5.7 1.9-7.9 1.9-7.9s-4.4 3.6-12.7 3.9z"/><path class="st28" d="M54.1 47.4c-2.4.1-7.1-.4-9.8-2.4 0 0 1 2.9 2.2 5.4 1 2.2 2.4 4.4 5.2 4.8 2.4.3 9.2 1.3 11.8-4.2 2.5-5.4 2.4-6.7 2.4-6.7s-4.6 2.8-11.8 3.1z"/><path class="st29" d="M63.4 51c2.5-5.4 2.4-6.7 2.4-6.7s-4.6 2.8-11.8 3.1c-2.4.1-6.9-.8-9.6-2.2 0 0 .6 1.6 1.5 3.7l.7 1.3c-1.6-4-1.4-4.2-.4-3.8.4.1 4.1 2 10 1.6 5-.4 6.5-1.5 7.4-1.5.5 0 .2 2.2-.9 4.3-1.1 2.2-3.3 4.3-9.6 4.1 0 0 .3.2 1.3.2 3.1.4 7.1 0 9-4.1z"/><path class="st30" d="M54.1 47.8c-.9 0-1.7 0-2.6-.1-.8-.1-1.7-.3-2.5-.5s-1.6-.5-2.4-.8c-.8-.3-1.6-.7-2.3-1.2l.2-.1c.5 1.3 1 2.6 1.6 3.9.3.6.6 1.3.9 1.9.3.6.7 1.2 1.1 1.8.4.5.9 1 1.4 1.4.5.4 1.2.7 1.8.8.2 0 .3.1.5.1h.5c.3 0 .7 0 1 .1.7 0 1.4.1 2.1.1.7 0 1.4-.1 2.1-.2.7-.1 1.3-.3 2-.5.6-.2 1.2-.6 1.8-1 .5-.4 1-.9 1.4-1.5.2-.3.4-.6.5-.9.2-.3.3-.6.5-.9.3-.6.6-1.3.9-1.9.3-.6.5-1.3.7-2 .1-.3.2-.7.3-1 .1-.3.2-.7.2-1l.2.1c-.4.3-.9.5-1.4.8-.5.2-.9.4-1.4.7-1 .4-1.9.7-2.9 1-1 .3-2 .5-3 .7-1.1.1-2.2.2-3.2.2zm0-.7c1 0 2-.1 3-.3 1-.1 2-.3 3-.6 1-.2 2-.5 2.9-.9 1-.3 1.9-.7 2.8-1.2l.2-.1v.3c-.1.7-.3 1.4-.5 2.1-.2.7-.4 1.3-.7 2-.3.7-.5 1.3-.8 1.9-.1.3-.3.6-.5 1-.2.3-.3.6-.5.9-.4.6-.9 1.2-1.4 1.6-.6.5-1.2.8-1.9 1.1-.7.3-1.4.5-2.1.6-.7.1-1.4.2-2.1.2-.7 0-1.4 0-2.1-.1-.4 0-.7-.1-1.1-.1l-.5-.1c-.2 0-.4-.1-.6-.1-.7-.2-1.4-.5-2-1-.6-.5-1.1-1-1.5-1.6-.8-1.2-1.4-2.5-1.9-3.8L44.3 45l-.1-.3.3.1c.8.4 1.5.6 2.3.9.8.3 1.6.5 2.4.6.8.2 1.6.3 2.5.4.7.3 1.6.4 2.4.4z"/><path class="st31" d="M48.2 51.9c-1-1.5-2.7-5.2-1.1-4.6 2.1.8 4.8 1.8 9.7 1.5 5.2-.3 6.4-1.5 5.7 1-.8 2.8-3.4 5-8.3 5-3.9-.1-4.9-1.2-6-2.9z"/><ellipse transform="rotate(-17.936 51.93 35.746)" class="st19" cx="51.9" cy="35.7" rx="1.2" ry=".9"/><path class="st1" d="M89.1 49.1c1.4.1 2.5-.8 2.5-1.8 0-.9-1.4-1.1-1.7.1-.2 1.1-1.7 1.6-.8 1.7z"/><path class="st4" d="M36.2 41.9c-1.6-2.3-4.4-8.5-1.7-14.1 0 0 .7 2.2 2.5 3.2-1.4 4.4-.8 10.9-.8 10.9z"/><path class="st7" d="M36.6 43l-.6-1c-1.8-2.5-4.4-8.8-1.7-14.4l.3-.7.2.7s.7 2.1 2.3 3.1l.2.1-.1.2c-1.4 4.7-.8 10.6-.8 10.7l.2 1.3zm-2.1-14.4c-1.9 4.6-.2 9.5 1.3 12.2-.1-2-.2-6.1.8-9.5-1.1-.8-1.8-2-2.1-2.7z"/><path class="st4" d="M37 31c-2.2-1-4.5-5.9-2-11.6 2.9-6.7 9.3-8.8 12-9.7 0 0-1.4 6.6-.2 7.5 0 0-4.5 2.7-7 6.9C37.4 28 37 31 37 31z"/><path class="st5" d="M46.9 9.7c-.4.1-.8.3-1.4.5-1.6 1.1-2.4 2.9-2.9 6-.4 2.4-1.5 3.1-3.2 6-1.3 2.3-2.6 5.1-2.8 8.6.1 0 .3.1.4.2.1-.6.6-3.4 2.8-6.9 2.5-4.2 7-6.9 7-6.9-1.3-.9.1-7.5.1-7.5z"/><path class="st7" d="M37.2 31.5l-.3-.2c-2.2-1-4.8-5.9-2.2-12 2.8-6.6 8.9-8.8 11.9-9.8l.8-.3-.1.5c-.6 2.7-1 6.7-.3 7.2l.4.3-.4.2s-4.5 2.7-6.9 6.8c-1.9 3.2-2.7 6.9-2.7 6.9l-.2.4zm9.3-21.4c-2.9 1-8.7 3.2-11.3 9.4-1.4 3.2-1.1 5.8-.7 7.4.4 1.7 1.3 3.1 2.3 3.7.3-1 1.1-4 2.7-6.7 2.2-3.6 5.8-6.1 6.8-6.8-.7-1.4-.1-5.4.2-7z"/><path class="st4" d="M62.6 2.6c-3.4 0-12.1 1.6-16.5 8-3.1 4.5-.7 7.4 2.2 7.4 3.4 0 9.3-1.9 9.5-5.1-.1-.8 4.8-10.3 4.8-10.3z"/><path class="st5" d="M58.5 3.1c-1.5.5-3.3 2.9-4.2 6.1-.9 3.2-1.2 5.6-3.3 7-1.4 1-3.7 1.5-5.3.8.7.6 1.6 1 2.6 1 3.4 0 9.3-1.9 9.5-5.1 0-.7 4.9-10.3 4.9-10.3-.7 0-3.5.3-4.2.5z"/><path class="st7" d="M48.2 18.2c-1.5 0-2.9-.8-3.5-2-.5-.9-1-2.9 1.1-5.8 2-2.8 5-5.1 8.8-6.5 3.1-1.2 6.1-1.6 7.9-1.6h.5l-.2.4C61 6.3 58 12.3 57.9 12.9c-.1 3.4-6.5 5.3-9.7 5.3zM62.1 2.9c-3.4.1-11.6 1.8-15.8 7.8-1.4 2-1.8 3.9-1.1 5.2.5 1 1.7 1.7 3 1.7v.3-.3c3.1 0 9-1.8 9.2-4.8 0-.6 3.5-7.6 4.7-9.9z"/><path class="st4" d="M77.2 9.8c-13.5.2-11.2 5-16.5 6.1-4.2.9-6.1-1.7-3.9-6.9 3.3-7.9 12-9.1 15.4-8.6 11.3 1.4 15 9.2 23.1 9.2 4.6 0 8.3-4.1 12.8-3 3.8.9 3 3.3 7.8 3.5 0 0-1.6 1.6-4.4.6-3.1-1.1-5.9-.3-7.5 1.6-1.6 1.9-2.5 6.3-11.9 4-9.5-2.4-14.9-6.5-14.9-6.5z"/><path class="st5" d="M115.9 10c-4.8-.2-4.1-2.6-7.8-3.5-4.4-1-8.1 3-12.8 3-3.4 0-6-1.4-8.7-3.1 2.2 2.5 8.4 5.9 3.9 4.4-5.1-1.7-8.9-4.8-16.4-5.6-10.9-1-13.2 5.8-15.6 7.4-1.2.8-2.3.1-2.2-1.2-1 3.3 1 5.3 4.5 4.5 5.3-1.2 2.9-5.9 16.5-6.1 0 0 5.4 4.1 14.9 6.4 9.4 2.3 10.3-2.1 11.9-4 1.7-1.9 4.4-2.7 7.5-1.6 2.7 1.1 4.3-.6 4.3-.6z"/><path class="st7" d="M96.7 17.1c-1.4 0-3-.2-4.8-.7-8.7-2.1-14.2-5.9-14.9-6.4-8.5.1-10.6 2.1-12.4 3.8-1 1-2 1.9-3.9 2.3-.6.1-1.1.2-1.6.2-1.4 0-2.4-.5-3-1.4-.9-1.3-.7-3.4.4-6.1C59.3 2.3 66 0 70.9 0c.5 0 1 0 1.4.1 5.8.7 9.7 3.2 13.1 5.4 3.3 2.1 6.1 3.9 10 3.9 2.1 0 3.9-.8 5.8-1.6 1.8-.8 3.6-1.6 5.5-1.6.5 0 1 .1 1.5.2 1.7.4 2.5 1.1 3.3 1.8.9.8 1.8 1.6 4.5 1.7h.6l-.4.5s-1 1.1-2.8 1.1c-.6 0-1.3-.1-1.9-.4-.9-.3-1.8-.5-2.7-.5-1.8 0-3.4.7-4.5 2-.2.3-.5.6-.7 1-1.2 1.4-2.6 3.5-6.9 3.5zM77.3 9.5c.1.1 5.6 4.2 14.8 6.4 1.8.4 3.3.6 4.6.6 3.9 0 5.2-1.9 6.2-3.5.3-.4.5-.8.8-1.1 1.2-1.4 3-2.2 4.9-2.2.9 0 1.9.2 2.9.5.6.2 1.2.3 1.7.3.8 0 1.4-.2 1.8-.4-2.2-.2-3.1-1-4-1.8-.8-.7-1.5-1.3-3-1.6-.5-.1-.9-.2-1.4-.2-1.8 0-3.5.7-5.3 1.5-1.9.8-3.8 1.7-6 1.7-4 0-7.1-1.9-10.3-4-3.4-2.1-7.2-4.5-12.9-5.3-.4 0-.8-.1-1.3-.1C66.1.3 59.7 2.5 57 8.8c-1 2.4-1.2 4.4-.4 5.5.5.7 1.4 1.1 2.5 1.1.5 0 1-.1 1.5-.2 1.8-.4 2.7-1.2 3.6-2.2 2-1.4 4.1-3.4 13.1-3.5z"/><path class="st4" d="M73.6 18.8c.1 2.6 1.1 9.6 11 9.5 10 0 15.6 1.8 23.1 5.8 2.7-.8 5.6-.8 7.5 1.8 2.3 3.1 6.9 4.4 10.5 2.3 3.4-2 3.9-5.7 6.6-6 1.6-.2.9-1-2.6-.1-2.2.5-4.4 1.9-7 1.3-2.9-.6-3.8-3-6.6-9.4-2.6-5.9-9.2-8.7-15.3-8.8-6.3 0-27.2 3.6-27.2 3.6z"/><path class="st5" d="M129.7 32.1c-2.2.5-4.4 1.9-7 1.3-2.9-.6-3.8-3-6.6-9.4-2.4-5.4-8.1-8.3-13.1-8.4 7.9 2.6 10.5 8.8 10.7 11 .2 2.4-.6 5.1-4.6 1.7-4.1-3.4-7-5.1-18.4-3.6-12.4 1.6-12.4-3.6-12.5-5.8l-4.4-.1c.1 2.6 1.1 9.6 11 9.5 10 0 15.6 1.8 23.1 5.8 2.7-.8 5.6-.8 7.5 1.8 2.3 3.1 6.9 4.4 10.5 2.3 3.4-2 3.9-5.7 6.6-6 1.4-.1.7-.9-2.8-.1z"/><path class="st7" d="M121.8 39.5c-2.7 0-5.3-1.3-6.8-3.4-1-1.4-2.5-2.2-4.4-2.2-.9 0-1.8.2-2.8.5h-.1l-.1-.1c-7.1-3.8-12.6-5.7-22.6-5.7h-.4c-4.3 0-7.5-1.3-9.3-3.9-1.1-1.6-1.7-3.5-1.9-5.9v-.3h.3c.2 0 19.9-3.8 27-3.8h1c.9.1 4.2.4 7.7 2.1 3.4 1.7 5.8 4 7.1 7l.4.9c2.5 5.7 3.4 7.8 6 8.3.4.1.8.1 1.2.1 1.3 0 2.6-.4 3.9-.9.7-.2 1.3-.4 1.9-.6 1.3-.3 2.2-.4 2.7-.4.3 0 1.1 0 1.1.5 0 .3-.3.5-1.1.6-1.3.1-2 1.2-3 2.4-.9 1.2-1.9 2.5-3.5 3.5-1.5 1-2.9 1.3-4.3 1.3zm-11.2-6.1c2.1 0 3.7.8 4.9 2.4 1.4 2 3.9 3.2 6.4 3.2 1.3 0 2.6-.3 3.8-1 1.6-.9 2.5-2.2 3.4-3.3.9-1.2 1.6-2.2 2.8-2.6-.5 0-1.1.1-2 .3-.6.1-1.2.4-1.8.6-1.3.4-2.6.9-4 .9-.4 0-.9 0-1.3-.1-2.9-.6-3.9-2.8-6.4-8.6l-.4-.9c-2.8-6.4-10.5-8.5-14.2-8.8h-.9c-6.6 0-24.3 3.3-26.6 3.7.3 4.2 2.4 9 10.6 9h.4c10.1 0 15.6 1.9 22.8 5.7.6-.4 1.6-.5 2.5-.5z"/><path class="st4" d="M76.3 6.8c-5.7-1.2-14.5 1.5-14.5 6.4 0 5.1 8.2 7.5 17.7 5.9 10.5-1.7 21.3-4.8 26.8-2.9-3.8-3-7.5-.7-14.5-3.2-5.4-1.9-8.6-4.7-15.5-6.2z"/><path class="st5" d="M106.2 16.2c-3.7-3.3-8.1-1.3-14.5-3.2-1.3-.4-2.4-.9-3.4-1.4 1 1.9-4.5 4.3-14.2 4.7-5.1.1-12.7-.2-11.1-6.1-.8.9-1.3 1.9-1.3 3 0 5.1 8.2 7.5 17.7 5.9 10.5-1.7 21.4-4.8 26.8-2.9z"/><path class="st7" d="M73.9 19.9c-4.9 0-8.9-1.2-10.9-3.2-1-1-1.5-2.2-1.5-3.5 0-2 1.4-3.8 3.9-5.1 2.2-1.2 5.1-1.8 7.9-1.8 1.1 0 2.1.1 3 .3 4.3.9 7.2 2.3 10 3.7 1.8.9 3.5 1.7 5.5 2.5 3.2 1.1 5.5 1.2 7.5 1.2 2.4 0 4.5.1 7.1 1.9l1.9 1.3-2.1-.7c-1.1-.4-2.4-.6-4.1-.6-3.9 0-9.1 1-14.5 2.1-2.7.5-5.4 1.1-8.1 1.5-1.9.2-3.8.4-5.6.4zm-.6-13.1C67.9 6.8 62 9.4 62 13.2c0 1.2.4 2.2 1.3 3.1 1.9 1.9 5.7 3 10.5 3 1.8 0 3.6-.2 5.5-.5 2.7-.4 5.4-1 8.1-1.5 5.5-1.1 10.6-2.1 14.6-2.1.8 0 1.6 0 2.3.1-1.7-.7-3.2-.8-5-.8-2.1 0-4.4-.1-7.7-1.2-2.1-.7-3.9-1.6-5.6-2.5-2.8-1.4-5.6-2.8-9.9-3.7-.8-.2-1.7-.3-2.8-.3z"/><path class="st4" d="M97.2 25.9c6-.5 10 2.7 11.7 6.7 1.5 3.7.6 6.4 3.6 7 5.2 1.2 5.5 1.8 6.6 3.4 1.1 1.6.5 3.5.1 2.3-.4-1.2-1.5-1.8-7-1.9-5.5-.1-5.1-3.5-6.4-6.2-1.3-2.7-3.9-4.5-9-2.9s-7.9 3.3-11.7 1.8c-3.8-1.5-4.2-6.1-3.7-8.2 0 0 1.6.7 6.7-.3 6-1.1 9.1-1.7 9.1-1.7z"/><path class="st5" d="M92.5 32.8c-6.8 1.1-7.8-2.7-7.6-4.6l-3.7-.2c-.5 2.1-.1 6.7 3.7 8.2 3.7 1.5 6.6-.1 11.7-1.8 3.6-1.2 5.9-.6 7.5.8-1.7-2.6-5.1-3.4-11.6-2.4z"/><path class="st7" d="M93.4 26.4c1.8-.4 3.6-.7 5.5-.7 1.8 0 3.7.3 5.4 1.2.8.4 1.6 1 2.3 1.6.7.7 1.2 1.4 1.7 2.2.5.8.9 1.7 1.2 2.5.3.9.5 1.8.7 2.7.1.4.2.9.3 1.3.1.4.3.8.5 1.1.2.3.6.6.9.7.2.1.4.1.6.2l.7.2c.9.2 1.8.4 2.7.7.4.1.9.3 1.3.5s.8.5 1.2.8c.3.4.6.7.9 1.1.1.2.3.4.4.6.1.2.2.4.3.7.1.2.1.5.1.7v.8c0 .1 0 .1-.1.2l-.1.1c-.1 0-.1.1-.3.1-.1 0-.2-.1-.3-.1-.1 0-.1-.1-.1-.1-.1-.1-.1-.1-.1-.2s0-.1-.1-.2c0 0 0-.1-.1-.1 0-.1-.1-.2-.1-.2-.2-.3-.6-.5-1-.7-.4-.1-.8-.2-1.3-.3-.9-.1-1.8-.2-2.7-.2h-2.1c-.2 0-.5 0-.7-.1-.9-.1-1.9-.4-2.7-.9-.4-.3-.7-.6-1-1-.3-.4-.5-.8-.7-1.3-.4-.9-.6-1.8-.9-2.6-.3-.8-.8-1.6-1.4-2.2-.6-.6-1.4-1.1-2.2-1.3-.8-.3-1.7-.3-2.6-.2-.9.1-1.8.3-2.6.5-1.7.5-3.4 1.2-5.2 1.8-.9.3-1.8.5-2.7.6-.9.1-1.9.1-2.8-.1-.5-.1-.9-.3-1.3-.4-.4-.2-.9-.4-1.3-.7-.8-.6-1.4-1.3-1.8-2.2-.4-.8-.7-1.8-.8-2.7-.1-.9-.1-1.9.1-2.8l.6.1c-.2.8-.2 1.7-.1 2.6.1.9.4 1.7.8 2.5s1 1.5 1.7 2c.3.3.7.5 1.1.6.4.2.8.3 1.3.4.9.2 1.7.2 2.6.1.9-.1 1.7-.3 2.6-.6 1.7-.5 3.4-1.2 5.2-1.8.9-.3 1.8-.5 2.7-.6.9-.1 1.9 0 2.8.3.9.3 1.8.8 2.4 1.5.7.7 1.2 1.5 1.5 2.4.4.9.6 1.8.9 2.6.2.4.4.8.6 1.1.2.3.5.7.9.9.7.5 1.6.7 2.4.8.2 0 .4 0 .7.1h2.1c.9 0 1.8.1 2.8.3.5.1.9.2 1.4.3.2.1.5.2.7.3.2.1.4.3.6.5.1.1.1.2.2.3 0 .1.1.1.1.2s0 .1.1.1v.1h-.2v-.7c0-.2-.1-.4-.1-.6-.1-.2-.1-.4-.2-.6l-.3-.6c-.3-.4-.5-.7-.8-1-.6-.6-1.4-.9-2.3-1.2-.8-.3-1.7-.5-2.6-.7l-.7-.2c-.2-.1-.5-.1-.7-.2-.5-.2-.9-.5-1.2-.9-.3-.4-.5-.9-.6-1.3-.1-.5-.2-.9-.3-1.4-.2-.9-.4-1.8-.7-2.6-.3-.8-.7-1.7-1.1-2.4-.5-.8-1-1.5-1.6-2.1-.6-.6-1.3-1.1-2.1-1.6-1.6-.8-3.4-1.2-5.2-1.2-1.8 0-3.6.2-5.4.6h-.3z"/><path class="st7" d="M80.8 27.7c1 .2 2.1.3 3.1.3 1.1 0 2.1-.1 3.2-.3 1.1-.1 2.1-.3 3.1-.5s2.1-.4 3.1-.7l.1.3c-1 .3-2.1.6-3.1.8-1 .2-2.1.5-3.2.6-1.1.2-2.1.3-3.2.3s-2.2 0-3.3-.3l.2-.5z"/></svg>