<?xml version="1.0" encoding="utf-8"?>
<!-- Generator: Adobe Illustrator 21.0.2, SVG Export Plug-In . SVG Version: 6.00 Build 0)  -->
<svg version="1.1" id="Layer_1" xmlns="http://www.w3.org/2000/svg" xmlns:xlink="http://www.w3.org/1999/xlink" x="0px" y="0px"
	 viewBox="0 0 133.4 126.4" style="enable-background:new 0 0 133.4 126.4;" xml:space="preserve">
<style type="text/css">
	.st0{fill:#FFE0B5;}
	.st1{fill:#EAB282;}
	.st2{fill:#F7CC9E;}
	.st3{fill:#A8421F;}
	.st4{fill:#91381C;}
	.st5{fill:#822612;}
	.st6{fill:#6E1200;}
	.st7{fill:#4A0000;}
	.st8{fill:#FFD624;}
	.st9{fill:#FAC200;}
	.st10{fill:#F0A300;}
	.st11{fill:#BD4000;}
	.st12{fill:#FF5447;}
	.st13{fill:#FF6E5C;}
	.st14{fill:#ED3D3B;}
	.st15{fill:#DB2630;}
	.st16{fill:#A8001F;}
	.st17{fill:#BF0D21;}
	.st18{fill:#820014;}
	.st19{fill:#FFEDC7;}
	.st20{fill:#691408;}
	.st21{fill:#3C0000;}
	.st22{fill:#AB4D21;}
	.st23{fill:#666666;}
	.st24{fill:#111111;}
	.st25{fill:#919191;}
	.st26{fill:#E6E6E6;}
	.st27{fill:#D6805C;}
	.st28{fill:#EAEAEA;}
	.st29{fill:#C4C4C4;}
	.st30{fill:#D48057;}
	.st31{fill:#FFFFFF;}
</style>
<g>
	<g>
		<g>
			<path class="st0" d="M37.2,45.6c-1-2.9-2.2-4.2-3.7-3.4c-1.5,0.7-1,3.1,1.5,7.2c2.4,4.1-0.2,4.9-1.8,5.5
				c-1.5,0.6-4.6,1.2-4.3,3.4c0.2,1.7,3,1.8,5.5,0.1c2.5-1.8,4.4-0.5,6.1,0.5c2.2,1.3,7.6,6.9,12.3,9.6l2.9-6L37.2,45.6z"/>
			<path class="st1" d="M37.1,56.8c-2.1-0.1-3.2,1-4.9,1.6c-1.6,0.6-2.8,0.2-3-0.6c0,0-0.3,0.1-0.2,0.7c0.1,1.7,3,1.8,5.5,0.1
				c2.5-1.8,4.7-0.5,6.5,0.8c0.6,0.4,2.2,1.9,3.7,2.8C43,59.8,39.4,56.9,37.1,56.8z"/>
			<path class="st2" d="M55.7,62.7L37.2,45.6c-0.7-2.1-1.5-3.3-2.4-3.6c-0.4,3.1,2.4,9.6,7.1,14.6c4.1,4.3,9.7,8.1,9.1,10.7
				c0.7,0.6,1.1,0.9,1.9,1.6L55.7,62.7z"/>
			<path class="st1" d="M52.6,68.6l3.1-5.8c0,0-7.6-5.8-8.8-6.1l-4-0.1c2.4,3,5.8,5.1,8,6.9c1.3,1,1.4,3.1,0.9,4.5L52.6,68.6z"/>
			<path class="st3" d="M54,69.8l-0.3-0.2c-2.9-1.7-5.2-3.8-7.8-5.9c-1.6-1.4-3.3-2.9-5.1-4.2c-0.9-0.7-2.3-1.5-3.7-1.5
				c-0.8,0-1.6,0.3-2.4,0.8C33.5,59.5,32.2,60,31,60c-1.3,0-2.2-0.6-2.3-1.6c-0.3-2.1,2-2.9,3.6-3.4c0.3-0.1,0.6-0.2,0.8-0.3
				l0.2-0.1c0.9-0.3,1.9-0.8,2.3-1.7c0.3-0.8,0-1.9-0.8-3.3c-1.9-3.2-2.6-5.3-2.3-6.6c0.1-0.5,0.4-0.8,0.9-1.1
				c0.3-0.2,0.6-0.2,0.9-0.2c1.2,0,2.2,1.2,3.1,3.8l18.6,17.1L54,69.8z M37,57.3c1.7,0,3.1,0.9,4.1,1.7c1.8,1.3,3.5,2.8,5.1,4.2
				c2.4,2.1,4.7,4.1,7.4,5.7l1.9-6.2L37,45.8l0-0.1c-0.8-2.3-1.7-3.5-2.6-3.5c-0.2,0-0.4,0.1-0.7,0.2c-0.3,0.2-0.5,0.4-0.6,0.7
				c-0.3,1.1,0.4,3.1,2.2,6.1c0.9,1.6,1.2,2.8,0.9,3.8c-0.4,1.2-1.7,1.7-2.6,2.1l-0.2,0.1c-0.3,0.1-0.6,0.2-0.9,0.3
				c-1.5,0.5-3.5,1.2-3.3,2.8c0.1,0.7,0.7,1.1,1.7,1.1c1,0,2.2-0.4,3.3-1.2C35.2,57.6,36.1,57.3,37,57.3z"/>
		</g>
		<path class="st4" d="M86.6,35.9c0.8,2.6,6.9,19.2-14.1,26.4c0,0,6.3,6.6,22,2.8c15.2-3.7,14.7-18.6,21.7-18.2
			c2.4,0.1,2-0.8-1.5-1.7c-4.1-1.1-5.4-2.7-6.1-4.6c-1-2.8-1.8-8.2-8-8.3C94.5,32.3,86.6,35.9,86.6,35.9z"/>
		<path class="st5" d="M113.7,47.6c1.8-1.1,4.1-0.4,4.1-1c0.1-0.7-4.3-1.4-6.8-2.9c-2.6-1.6-5.5-2.2-8.1-1.4
			c-3.9,1.2-6.3,0.9-6.8-1.4c-0.5-2-2.6-0.7-4.6-1.1c-2.7-0.5-1.7-3.2,0.1-3.9l-5-0.1c0.8,2.6,6.9,19.2-14.1,26.4
			c0,0,6.3,6.6,22,2.8C107.7,62,109.1,50.6,113.7,47.6z"/>
		<path class="st6" d="M95.1,60.1c-3.4-3.1-0.4-7.2,0.6-10.4c0.8-2.5,0.6-5.4-1.4-6.9c-2-1.5-3.6-1.4-4.6-2c-1.8-1.2,0.6-4.2-0.7-4
			c0,0-1.4,0.2-2.2,0.2c1.4,4.8,4.4,19-14.2,25.4c0,0,3.8,6.3,21.5,1.4C95.2,63.5,96.3,61.2,95.1,60.1z"/>
		<path class="st7" d="M85.4,66.7c-9.1,0-12.9-3.9-13-4.1l-0.3-0.3l0.4-0.1c9-3.1,18.8-10.1,14-25.7c0-0.2-0.1-0.3-0.1-0.4l-0.1-0.2
			l0.2-0.1c0.1,0,8-3.7,14.2-3.6c5.6,0.1,7,4.4,7.9,7.3c0.1,0.4,0.3,0.8,0.4,1.2c0.6,1.6,1.7,3.3,5.9,4.4c3.4,0.9,3.3,1.5,3.3,1.7
			c-0.1,0.5-0.8,0.5-1.4,0.5l0,0c-0.1,0-0.3,0-0.5,0c-2.9-0.2-4.5,2.4-6.5,5.7c-2.8,4.6-6.4,10.4-15.2,12.5
			C91.4,66.2,88.3,66.7,85.4,66.7z M73.1,62.5c1.1,0.9,5,3.6,12.3,3.6c2.8,0,5.9-0.4,9.1-1.2c8.6-2.1,12-7.7,14.8-12.2
			c2.1-3.4,3.7-6,6.7-6c0.1,0,0.2,0,0.3,0c0.2,0,0.3,0,0.4,0l0,0c0.4,0,0.6,0,0.7-0.1c-0.2-0.2-1-0.6-2.8-1c-4.5-1.2-5.7-3-6.3-4.8
			c-0.1-0.4-0.3-0.8-0.4-1.2c-0.9-2.9-2.2-6.9-7.3-6.9c-0.1,0-0.1,0-0.2,0c-5.4,0-12.2,2.9-13.6,3.5c0,0.1,0,0.1,0,0.2
			c0.6,1.8,2,6.6,0.8,11.9C86.4,54.7,81.5,59.5,73.1,62.5z"/>
		<path class="st8" d="M54.9,63.1c-1.2,0.4-2.9,3.5-2.6,8c0.3,4.6,2.7,0.8,5.2,3c0,0,3.7-3.5,5.4-10.6L54.9,63.1z"/>
		<path class="st9" d="M61.5,63.4l-6.6-0.3c-0.5,0.2-1,0.7-1.5,1.6l0,0c1.6,0,4.4,1.2,4.4,3.6c0,2-1.1,4-2.6,5c0.7,0,1.5,0,2.3,0.7
			C57.6,74.1,61.8,64.6,61.5,63.4z"/>
		<path class="st10" d="M61.5,63.4l-6.6-0.3c-0.3,0.1-0.7,0.4-1,0.9c3.3,0.4,5.3,1.2,5.2,3.6c0,2-1.2,4.4-2.8,5.6
			c0.4,0.1,0.9,0.5,1.2,0.8C57.6,74.1,61.8,64.6,61.5,63.4z"/>
		<path class="st11" d="M57.6,74.5l-0.2-0.2c-0.5-0.5-1.1-0.7-1.8-0.7c-0.3,0-0.6,0-0.9,0.1c-0.3,0-0.5,0.1-0.8,0.1
			c-1.1,0-1.6-0.8-1.8-2.7c-0.3-4.5,1.4-7.8,2.7-8.3l0.1,0l8.4,0.4l-0.1,0.3c-1.6,7.1-5.3,10.6-5.5,10.7L57.6,74.5z M55.6,73
			c0.8,0,1.4,0.2,2,0.6c0.7-0.8,3.6-4.1,5-9.9L55,63.4c-1,0.5-2.6,3.4-2.3,7.7c0.2,2.2,0.8,2.2,1.2,2.2c0.2,0,0.5,0,0.7-0.1
			C54.9,73.1,55.2,73,55.6,73z"/>
		<path class="st9" d="M78.5,75.4c-1.2-0.1-3.6-0.4-3.2,1.1c0.3,1.5,1.4,3.2,3.5,3.3c2.1,0,3.2-1.7,2.9-3.7
			C81.6,75.6,79.7,75.4,78.5,75.4z"/>
		<path class="st10" d="M75.2,76.4c0.3,1.2,1.1,2.7,2.5,3.1c0.4,0.1,0.6,0,0.3-0.4c-1.5-1.6,1.4-2.3,3.1-2l0.3-1.4
			c-0.6-0.2-1.9-0.4-2.9-0.4C77.2,75.3,74.9,74.9,75.2,76.4z"/>
		<path class="st9" d="M89.3,74.5c0,1-0.6,4.3-2.2,3.8c-2-0.7-3.2-4-3.2-4L89.3,74.5z"/>
		<path class="st10" d="M85.9,77.5l0.4-0.1c-0.4-1.2,0.5-2.1,2.9-2c0.1-0.4,0.1-0.7,0.1-1l-5.4-0.2C83.9,74.3,84.6,76.3,85.9,77.5z"
			/>
		<path class="st11" d="M87.4,78.6c-0.1,0-0.3,0-0.5-0.1c-2.1-0.7-3.3-4-3.3-4.2l-0.1-0.4l6.1,0.2l0,0.3c0,0.7-0.3,2.8-1.2,3.7
			C88.1,78.4,87.8,78.6,87.4,78.6z M84.3,74.6c0.4,0.9,1.4,2.9,2.8,3.4c0.3,0.1,0.6,0,0.8-0.2c0.6-0.6,1-2.1,1-3L84.3,74.6z"/>
		<g>
			<path class="st0" d="M84.7,64.9c2.6-0.2,6.1-1.2,10.3-2.9c0,0,1.7-2,4.2,0c2.5,2.1,4.3,2.6,7.4,0.7c3.1-1.9,2.8,0.4,2.8,0.4
				s-1.7,6.7-11.9,9.7c-10.4,3.1-15.9,1-15.9,1L84.7,64.9z"/>
			<path class="st2" d="M101.6,64.1c-3.2,7.1-11.8,7.8-14.4,5.8c-1.4-1-1.9-3.3-1-5.2c-0.6,0.1-1.2,0.1-1.5,0.1l-3,8.9
				c0,0,5.5,2.1,15.9-1c10.2-3,11.9-9.7,11.9-9.7L101.6,64.1z"/>
			<path class="st1" d="M106.5,64.1c-1,3-5,6.4-10,8c-4.3,1.3-10,1.3-11.3-1.1c-1.1-2-0.3-4.8,0.4-6.2c-0.4,0-0.7,0.1-0.9,0.1
				l-3,8.9c0,0,5.2,2.1,15.6-1c10.2-3,12.2-9.8,12.2-9.8L106.5,64.1z"/>
			<path class="st3" d="M87,74.8c-3.5,0-5.4-0.7-5.4-0.7L81.3,74l3.2-9.4l0.2,0c2.1-0.1,6-1.2,10.1-2.9c0.2-0.2,1-0.9,2.2-0.9
				c0.8,0,1.6,0.3,2.4,1c1.5,1.3,2.6,1.8,3.8,1.8c1,0,2-0.4,3.3-1.1c0.9-0.5,1.6-0.8,2.1-0.8c0.4,0,0.7,0.2,0.9,0.3
				c0.4,0.4,0.3,1,0.3,1.1l0,0c0,0.1-0.5,1.8-2.2,3.8c-1.6,1.9-4.6,4.5-9.9,6.1C93.9,74.2,90.3,74.8,87,74.8z M82.1,73.6
				c0.6,0.2,2.3,0.6,5,0.6c3.2,0,6.7-0.6,10.5-1.7c9.6-2.9,11.5-9.1,11.7-9.5c0-0.1,0-0.5-0.2-0.6c-0.1-0.1-0.2-0.2-0.4-0.2
				c-0.3,0-0.8,0.1-1.8,0.7c-1.3,0.8-2.5,1.2-3.6,1.2c-1.3,0-2.6-0.6-4.2-1.9c-0.7-0.6-1.4-0.9-2-0.9c-1.1,0-1.8,0.8-1.8,0.8l0,0.1
				l-0.1,0c-4,1.7-7.9,2.8-10.1,2.9L82.1,73.6z"/>
			<path class="st0" d="M110,43.8c-1.2-0.5-4.3-0.1-6.7,4.1c-2.3,3.8-3.4,8.9-5.8,9.9c-5.1,2-7.6-0.4-9,1.6c-0.7,1,0.4,3.2,3.1,3.5
				c2.6,0.3,4.1-1.1,5.4-0.7c1.6,0.4,3.2,2.8,5.9,3c2.6,0.2,4-1.9,5.8-1.2c1.3,0.5,3.4,0.9,4.9-1.2c1.1-1.6,2.1-3.7,3.3-4.4
				c0.5,0.1,3.9,0.5,4.7-1.4c0.5-1.3-0.7-7.2-8.7-6.7c-5.4,0.3-7.1,3-7.3,1.9c-0.1-0.4,1.2-1.9,3.2-3.4C110.7,47,112,44.6,110,43.8z
				"/>
			<path class="st2" d="M105.7,51.9c-0.1-0.4,1.2-1.9,3.2-3.4c1.9-1.5,3.1-3.8,1.2-4.6c-1-0.4-2,0.2-2,0.2c1.6-0.1,1.8,1.4-0.4,3.5
				c-2.5,2.3-2.9,3.6-3,4.2c-0.1,0.8,0.9,1.2,2.5,0C107.1,51.8,105.8,52.5,105.7,51.9z"/>
			<path class="st2" d="M121.6,55.7c-2.6,1.8-5.4-0.8-8.3-1.5c-2.7-0.6-4.7,1.6-6.5,4.1c-1.8,2.5-5,3.2-7.2,1.8
				c-2.2-1.3-4.1,0.3-6.8,0.8c-2.3,0.4-3.9-0.1-4.1-1.2c-0.3,1.1,0.6,2.8,3,3.1c2.6,0.3,4.1-1.1,5.4-0.7c1.6,0.4,3.2,2.8,5.9,3
				c2.6,0.2,4-1.9,5.8-1.2c1.3,0.5,3.4,0.9,4.9-1.2c1.1-1.6,2.1-3.7,3.3-4.4C117.5,58.3,122,58.9,121.6,55.7z"/>
			<path class="st1" d="M114.3,61.3c-1.4,1.6-2.9,1.4-4.4,0.8c-1.4-0.6-1.5-1-4.1,0.7c-2.6,1.7-5,1.2-7.1,0c0,0,1.8,2.2,4.3,2.3
				c2.6,0.2,4-1.9,5.8-1.2c1.3,0.5,3.5,0.9,4.9-1.3C114,62,114.3,61.3,114.3,61.3z"/>
			<path class="st3" d="M103.3,65.4c-0.1,0-0.2,0-0.3,0c-1.8-0.1-3.1-1.1-4.2-1.9c-0.7-0.5-1.3-0.9-1.8-1.1c-0.1,0-0.2,0-0.3,0
				c-0.4,0-0.9,0.1-1.4,0.3c-0.8,0.2-1.7,0.5-2.9,0.5c-0.2,0-0.5,0-0.7,0c-1.5-0.2-2.8-0.9-3.3-2.1c-0.3-0.7-0.3-1.4,0-1.8
				c0.6-0.9,1.4-1,2.1-1c0.3,0,0.7,0,1.1,0.1c0.5,0,1,0.1,1.6,0.1c1.5,0,2.9-0.3,4.3-0.8c1.4-0.6,2.4-2.9,3.5-5.4
				c0.6-1.5,1.3-3,2.1-4.3c2.4-4.1,5.2-4.4,6-4.4c0.4,0,0.8,0.1,1.1,0.2c0.8,0.3,1.1,0.9,1.1,1.3c0.2,1.3-1,2.8-2.3,3.8
				c-1.9,1.5-3,2.8-3,3.1c0.1,0,0.4-0.2,0.7-0.3c1-0.6,3-1.6,6.3-1.8c0.3,0,0.6,0,0.8,0c4.2,0,6.3,1.8,7.3,3.2
				c1.1,1.6,1.2,3.3,0.9,3.9c-0.6,1.4-2.3,1.7-3.6,1.7c-0.5,0-1-0.1-1.3-0.1c-0.7,0.5-1.4,1.6-2.1,2.7c-0.3,0.5-0.6,1.1-1,1.5
				c-0.8,1.2-1.9,1.8-3.2,1.8c-0.6,0-1.3-0.1-2-0.4c-0.2-0.1-0.4-0.1-0.7-0.1c-0.6,0-1.1,0.3-1.8,0.6
				C105.4,64.9,104.4,65.4,103.3,65.4z M96.6,61.7c0.2,0,0.3,0,0.5,0.1c0.7,0.2,1.3,0.7,2,1.2c1.1,0.8,2.3,1.7,3.9,1.8
				c1.2,0.1,2.1-0.3,3-0.7c0.7-0.3,1.3-0.6,2.1-0.6c0.3,0,0.6,0.1,0.9,0.2c0.6,0.3,1.3,0.4,1.8,0.4c1.1,0,2-0.5,2.8-1.5
				c0.3-0.5,0.7-1,1-1.5c0.8-1.2,1.5-2.4,2.4-3l0.1-0.1l0.1,0c0.2,0,0.7,0.1,1.3,0.1c1,0,2.6-0.2,3.1-1.4c0.2-0.5,0.1-1.9-0.9-3.4
				c-0.9-1.4-2.8-3-6.8-3c-0.3,0-0.5,0-0.8,0c-3.2,0.2-5,1.2-6.1,1.7c-0.5,0.3-0.7,0.4-1,0.4c-0.1,0-0.4,0-0.5-0.5
				c-0.1-0.7,1.9-2.6,3.3-3.7c1.3-1,2.2-2.4,2-3.3c-0.1-0.4-0.3-0.7-0.8-0.9c-0.2-0.1-0.5-0.1-0.8-0.1c-0.7,0-3.3,0.3-5.5,4.1
				c-0.8,1.3-1.4,2.8-2.1,4.3c-1.2,2.7-2.2,5.1-3.8,5.7c-1.5,0.6-2.9,0.9-4.5,0.9c-0.6,0-1.1,0-1.6-0.1c-0.4,0-0.7-0.1-1.1-0.1
				c-0.8,0-1.3,0.2-1.7,0.7c-0.2,0.3-0.2,0.8,0,1.3c0.2,0.4,0.9,1.5,2.8,1.7c0.2,0,0.4,0,0.6,0c1.1,0,1.9-0.3,2.7-0.5
				C95.6,61.9,96.1,61.7,96.6,61.7z"/>
			<path class="st3" d="M112.3,55.7c0.3,0.3,0.7,0.6,1,0.8c0.4,0.2,0.8,0.4,1.2,0.6c0.8,0.3,1.7,0.6,2.5,0.7l-0.1,0.6
				c-0.9-0.2-1.8-0.5-2.6-0.9c-0.4-0.2-0.8-0.4-1.2-0.7c-0.4-0.3-0.7-0.6-1-0.9L112.3,55.7z"/>
		</g>
		<path class="st8" d="M78.4,64.4c1.9,0.3,3.8,0.3,6.2,0c1.7-0.3,0.6,0.3-0.1,2.4c-1.4,4.3-0.2,9.6,2.6,11.5c0,0-6.8-2.9-12.2-2.3
			C74.9,75.9,73.3,71.4,78.4,64.4z"/>
		<path class="st9" d="M77.9,71.2c0-3,1.5-5.5,2.9-6.6c-0.8,0-1.6-0.1-2.4-0.2c-5.1,7.1-3.4,11.6-3.4,11.6c2-0.2,4.3,0,6.2,0.5
			l0.1-0.2C79.1,75.6,77.9,73.6,77.9,71.2z"/>
		<path class="st10" d="M76.6,71.1c0.2-2.4,1.7-5.5,3-6.5c-0.4,0-0.9-0.1-1.3-0.2c-5.1,7.1-3.4,11.6-3.4,11.6
			c1.3-0.1,2.5-0.1,3.9,0.1l0.1-0.2C77,75.2,76.5,73.3,76.6,71.1z"/>
		<path class="st11" d="M87,78.5c-0.1,0-5.6-2.4-10.5-2.4c-0.5,0-1,0-1.5,0.1l-0.2,0L74.6,76c-0.1-0.2-1.6-4.7,3.5-11.8l0.1-0.1
			l0.2,0c1.9,0.3,3.8,0.3,6.1,0c0.3,0,0.5-0.1,0.6-0.1c0.1,0,0.4,0,0.5,0.2c0.2,0.3,0,0.5-0.2,1c-0.2,0.4-0.5,0.9-0.7,1.6
			c-1.4,4.2-0.2,9.4,2.5,11.1L87,78.5z M76.5,75.6c3.5,0,7.2,1.1,9.3,1.9c-2.1-2.4-2.8-6.9-1.6-10.7c0.3-0.8,0.5-1.3,0.8-1.7
			c0.1-0.1,0.1-0.3,0.2-0.4c-0.1,0-0.3,0-0.5,0.1c-2.3,0.3-4.2,0.4-6.1,0.1c-4.2,5.9-3.6,10-3.3,10.9C75.6,75.6,76,75.6,76.5,75.6z"
			/>
		<path class="st8" d="M63.7,65.4c-1-0.2-1.3,1-2,2.6c-0.7,1.6-3.3,6.3,1.7,7.4c3.9,0.8,7.2-1.5,8.4-3.9c1.1-2,3.5-6.3,4.9-7.3
			c0.3-0.2-2.7-0.9-2.9-0.9C73,63,63.7,65.4,63.7,65.4z"/>
		<path class="st9" d="M76.7,64.1c0.3-0.2-2.7-0.9-2.9-0.9c-0.2-0.1-4.6,4.8-4.6,4.8c-0.6,1.7-1.6,4.3-4.3,4.4
			c-1.9,0.1-3.3-1-3.3-2.4c0-0.3-0.7,0.3-1.1,1c-0.4,1.8-0.1,3.7,2.9,4.3c3.9,0.8,7.2-1.5,8.4-3.9C72.9,69.5,75.3,65.2,76.7,64.1z"
			/>
		<path class="st10" d="M73.9,63.2c-0.1,0-1.9,3-1.9,3c-1.3,2.8-2.2,6.3-5.1,7.3c-2.4,0.8-5,0.1-5.4-2.3c0,0-1,2.3,1.9,3.6
			c3.5,1.5,7.2-0.9,8.4-3.3c1-1.9,4.8-7.4,4.9-7.4C76.3,63.8,74,63.2,73.9,63.2z"/>
		<path class="st12" d="M63.1,65.4c-1.2,3.8-2.7,5.9-1.2,8.1c1.4,2.1,6.9,2.3,9.5-1.9c1.8-3,3.5-6.9,4.8-7.8c0.4-0.3,1,0,1.3,0.2
			c0.5,0.2,1.5,0.1,1.2,0.4c-0.4,0.3-3.1,3.2-3.7,7.8c-0.5,4.1,1,7.2,4.1,7.1c1.1,0,2.2-1.3,2.1-2.6c0.8,0.2,1.5,0.4,1.5,0.4
			s-2.4,4.7-1.3,10.4c1.1,5.7,5.1,14.9-1.6,21.8c-6.7,6.8-15.2,3.1-18.9,1.2c1.8-4.6-26.6,0.9-40.2-18.3c-1.5-7.6,2.1-7.6,5-7.5
			c3.7,0.2,16.8,2.1,24.9-3.8c8.1-5.9,9.3-12.4,10.9-16.5l1.7,0.1L63.1,65.4z"/>
		<path class="st13" d="M59,71c-1.5,3.1-3.8,6.5-8.3,9.8c-8.1,5.9-21.2,3.9-24.9,3.8c-2.9-0.1-6.4-0.2-5,7.5
			c0.4,0.6,13.6,5.3,12.3,3.8c-2.3-2.7-3.2-5.5-1.4-7.5c1.8-2,5.6,0.4,15-3.5c9-3.8,11.8-11.2,13.6-16.2L59,71z"/>
		<path class="st14" d="M55,98.5c-6,3.3,2.4-4.6-1.8-2.1c-9.3,5.5-15.1,2.5-21.7-3.2l-2,1.6c0,0,1.3,6.5,11.3,10.5
			c1.6,0.5,3.2,0.8,4.7,1.2C54.5,106.9,59.6,96,55,98.5z"/>
		<path class="st14" d="M81.4,87.4C80.4,81.8,82.8,77,82.8,77s-0.7-0.2-1.5-0.4c0.1,1.3-0.9,2.6-2.1,2.6c-3.1,0.1-4.6-3-4.1-7.1
			c0.6-4.7,3.2-7.5,3.7-7.8c0.4-0.3-0.6-0.2-1.2-0.4c-3,4-6.7,10.6-5.2,16.7c1.1,4.9,2.7,12.3-6.9,14.1c0,0,2.6,11.9-0.1,17.6
			c4.2,1.3,9.7,1.7,14.4-3.1C86.5,102.3,82.5,93.1,81.4,87.4z"/>
		<path class="st15" d="M81.4,87.4C80.4,81.8,82.8,77,82.8,77s-0.7-0.2-1.5-0.4c0.1,1.3-0.9,2.6-2.1,2.6c-3.1,0.1-4.6-3-4.1-7.1
			c0.6-4.7,3.2-7.5,3.7-7.8c0.2-0.1-0.3-0.2-0.3-0.2c-1.3,1-4.5,5-4.4,10.6c0.1,5.3,4.1,9.1,4.4,14.7c0.4,5.6-2.3,9.7-4.2,10.7
			c-0.8,0.4-4.6,3.5-7.7,7c-0.1,1.9-0.5,3.7-1.1,5.1c4.2,1.3,9.7,1.7,14.4-3.1C86.5,102.3,82.5,93.1,81.4,87.4z"/>
		<path class="st16" d="M70.7,113.4c-2.5,0-5.2-0.6-8.1-1.9l0.2-0.5c4.7,2.1,11.5,3.5,16.8-2c5.2-5.3,3.7-11.7,2.4-17.3
			c-0.3-1.5-0.7-2.9-0.9-4.3c-0.9-6,1.2-10.4,1.3-10.5l0.5,0.3c0,0-2.1,4.4-1.3,10.2c0.2,1.3,0.5,2.7,0.9,4.2
			c1.3,5.8,2.8,12.3-2.6,17.8C77.5,112.1,74.3,113.4,70.7,113.4z"/>
		<path class="st16" d="M21.1,87.1L20.5,87c0.5-2.9,3.6-2.8,5.3-2.7c0.5,0,1.1,0.1,1.8,0.1c5.2,0.4,15.9,1.2,22.9-3.8
			c6.8-4.9,8.7-10.3,10-14.3c0.3-0.7,0.5-1.4,0.7-2.1l0.1-0.2l2.2,0.1l-0.2,1.4c-0.3,0.9-0.6,1.6-0.8,2.3c-0.9,2.4-1.5,3.9-0.4,5.5
			c0.6,0.8,1.9,1.4,3.4,1.3c2.3,0,4.4-1.3,5.6-3.3c0.6-1,1.3-2.2,1.9-3.3c1.1-2.1,2.1-3.9,3-4.6c0.5-0.4,1.1-0.1,1.5,0.1
			c0,0,0.1,0,0.1,0.1c0.2,0.1,0.5,0.1,0.7,0.1c0.4,0.1,0.7,0.1,0.7,0.3c0,0.1,0,0.3-0.2,0.4c-0.5,0.4-3,3.1-3.6,7.6
			c-0.3,2.4,0.1,4.4,1.2,5.6c0.7,0.7,1.5,1.1,2.5,1.1c0.5,0,1-0.2,1.3-0.5c0.4-0.4,0.6-1,0.6-1.8l0.6,0c0,0.9-0.2,1.7-0.7,2.2
			c-0.4,0.5-1,0.7-1.7,0.7c0,0,0,0-0.1,0c-1.2,0-2.2-0.4-2.9-1.3c-1.2-1.3-1.7-3.5-1.3-6.1c0.5-4.1,2.6-6.9,3.5-7.8
			c-0.3,0-0.6-0.1-0.8-0.2c0,0-0.1,0-0.1-0.1c-0.3-0.2-0.7-0.3-0.9-0.2c-0.8,0.6-1.8,2.4-2.9,4.4c-0.6,1.1-1.2,2.3-1.9,3.4
			c-1.3,2.2-3.6,3.5-6.1,3.5c-1.7,0-3.2-0.6-3.9-1.6c-1.2-1.8-0.6-3.6,0.3-6c0.3-0.7,0.5-1.4,0.8-2.3l0.1-0.7l-1.2,0
			c-0.2,0.6-0.4,1.2-0.7,1.9c-1.4,4-3.3,9.6-10.3,14.6c-7.2,5.2-18.1,4.3-23.3,3.9c-0.7-0.1-1.3-0.1-1.8-0.1
			C23.6,84.8,21.5,84.9,21.1,87.1z"/>
		<path class="st14" d="M70.3,95c-9.3-1.6-18,5.6-21.6,7.8c-3.4,2-6.1,0.7-10.1-2.5c-4.7-3.8-10.9-11.7-14.2-13.1
			c-1.8-0.8-2.9-0.7-3.6-0.1c-0.3,1.1-0.3,2.7,0.1,5c2.4,12.5,14.5,16.8,20,17.5c10.9,1.3,16.8-0.9,20.1,0.9c1,0.5,2.2,1.1,3.7,1.7
			c7.2,1.9,12.1-1.6,13.2-3.6C79.8,104.8,79.6,96.6,70.3,95z"/>
		<path class="st15" d="M70.3,95c-0.5-0.1-1-0.1-1.6-0.2c3.6,1.6,6.9,10.6-1,13.3c-6.7,2.3-10.5-2.6-22-1.4
			c-11,1.2-20-6.6-18.8-17.8c-1-0.9-1.9-1.5-2.6-1.9c-1.8-0.8-2.9-0.7-3.6-0.1c-0.3,1.1-0.3,2.7,0.1,5c2.4,12.5,14.5,16.8,20,17.5
			c10.9,1.3,16.8-0.9,20.1,0.9c1,0.5,2.2,1.1,3.7,1.7c7.2,1.9,12.1-1.6,13.2-3.6C79.8,104.8,79.6,96.6,70.3,95z"/>
		<path class="st16" d="M68.7,112.8c-1.2,0-2.6-0.1-4.1-0.5l0,0c-1.2-0.4-2.4-1-3.8-1.7c-1.6-0.9-4-0.7-7.2-0.6
			c-3.3,0.2-7.4,0.4-12.8-0.3c-1.4-0.2-6.2-0.9-11-4.1C25,102.5,22,98.2,20.7,93l0.6-0.1c2.7,11.5,14,15.7,19.6,16.4
			c5.4,0.6,9.4,0.4,12.7,0.3c3.3-0.2,5.7-0.3,7.5,0.6c1.3,0.7,2.5,1.2,3.7,1.6c3.5,0.9,6.4,0.4,7.8,0l0.2,0.6
			C71.9,112.5,70.5,112.8,68.7,112.8z"/>
		<g>
			<path class="st0" d="M31.2,92.9c-4,1-11.5,7.4-16.3,16.2l6.9,7.6c0,0,9.6-10.2,22.3-13.1C44.1,103.6,39.4,102.3,31.2,92.9z"/>
			<path class="st2" d="M21.8,116.7c0,0,9.6-10.2,22.3-13.1c0,0-4.7-1.3-13-10.7c-0.6,0.1-0.9,0.3-1.6,0.6c0.6,1.8,3.6,5.8,5.6,7.8
				c1.7,1.7-6.1,6.8-9.6,8c-3.2,1.1-6.6-0.1-9.1-2.8c-0.5,0.8-1.1,1.7-1.5,2.6L21.8,116.7z"/>
			<path class="st1" d="M14.9,109.1l6.9,7.6c0,0,9.6-10.2,22.3-13.1c0,0-4.7-1.3-13-10.7c-0.3,0.1-0.5,0.1-0.8,0.2
				c1.7,3,4,5.8,6.5,7.7c2.8,2-0.4,3.8-4.5,6.4c-4.1,2.6-8.9,5.7-10.4,4.8c-1.3-0.7-4.3-2.4-5.9-5C15.7,107.7,15.3,108.4,14.9,109.1
				z"/>
			<path class="st3" d="M21.8,117.1l-7.3-8l0.1-0.2c4.7-8.6,12.2-15.2,16.4-16.3l0.2,0.6c-4.1,1.1-11.3,7.5-15.9,15.9l6.6,7.2
				c1.5-1.5,10.6-10.3,22.3-13l0,0.2l0.1-0.2c0,0,0,0,0.1,0l1.1,0.3l-1.1,0.3c-12.5,2.9-22.1,13-22.2,13.1L21.8,117.1z"/>
			<path class="st8" d="M15.1,108.3c0.5-0.9,1.8-3,2.1-3.3c0.3-0.2,3.4,1.7,5.1,3.7c1.7,2.1,3.4,4.8,3.1,5.1
				c-0.2,0.3-3.8,3.1-3.8,3.1L15.1,108.3z"/>
			<path class="st9" d="M16.2,106.3c-0.4,0.7-0.8,1.4-1.2,2.1l4,5.3l2.8,3.1c0,0,1.3-1,3.5-2.8c-0.3-0.7-1.3-2.7-2.4-4.2
				C20.6,109.7,18,108.3,16.2,106.3z"/>
			<path class="st10" d="M22,112c-1.3-0.7-4.8-3.4-6.1-5.3c-0.3,0.5-0.6,1.1-0.9,1.6l4,5.3l2.8,3.1c0,0,1.3-1,3.5-2.8
				c-0.1-0.4-0.5-1.2-1-2.1C23.3,112.2,22.5,112.3,22,112z"/>
			<path class="st11" d="M21.5,117.4l-6.9-9l0.1-0.2c0.1-0.2,0.3-0.5,0.5-0.8c1-1.7,1.4-2.4,1.7-2.6c0.1,0,0.1-0.1,0.2-0.1
				c0.7,0,3.7,2,5.4,3.8c0.8,0.9,1.7,2.1,2.4,3.3c1.1,1.9,0.9,2.1,0.7,2.3c-0.3,0.3-3.3,2.6-3.9,3.1L21.5,117.4z M15.3,108.3
				l6.3,8.3c1.3-1,3.1-2.5,3.5-2.8c-0.1-0.5-1.4-3-3.1-4.8c-1.6-1.8-4.3-3.5-4.9-3.6c-0.3,0.3-1,1.6-1.5,2.4
				C15.5,107.9,15.4,108.2,15.3,108.3z"/>
			<path class="st12" d="M19.9,112.3c-3.1-3.6-7.6-7-13.2-7c-5.4,0-6.1,4.5-6.1,4.5l16.6,13c0,0,6.2-2.3,4.7-7.2
				C21.5,114.6,21,113.5,19.9,112.3z"/>
			<path class="st14" d="M21.8,115.6c-0.3-0.9-0.8-2.1-1.9-3.3c-0.8-0.9-1.6-1.8-2.5-2.6c-0.2,1.7-2.1,1.9-5.1,0.1
				c-4.5-2.7-10-2.1-11.7-0.1l16.6,13C17.1,122.8,23.4,120.5,21.8,115.6z"/>
			<path class="st15" d="M21.8,115.6c-0.2-0.7-0.5-1.4-1.1-2.2c0,2.3-3.1,3.3-6.2,1.2c-4.9-3.4-7.7-4.3-9.8-4.7l12.5,13
				C17.1,122.8,23.4,120.5,21.8,115.6z"/>
			<path class="st16" d="M17.1,123.1L0.3,109.9l0-0.2c0,0,0.8-4.8,6.4-4.8h0.1c6.1,0,10.7,3.9,13.4,7.2c0.9,1.1,1.6,2.3,2,3.4
				c1.6,5.1-4.8,7.5-4.9,7.5L17.1,123.1z M0.9,109.6l16.3,12.8c0.9-0.4,5.7-2.5,4.4-6.8c-0.3-1.1-1-2.2-1.8-3.2
				c-2.7-3.1-7.1-6.9-13-6.9H6.7C2.2,105.5,1.1,108.9,0.9,109.6z"/>
			<path class="st15" d="M1.7,109.2c-1,0.1-1.7,0.7-1.3,2.2c0.5,1.9,3.3,4.1,7.5,6.9c4.1,2.9,8.8,5.5,9.7,4c0.9-1.4-2.8-5.2-6.4-8.2
				C7.7,111.2,3.8,109.1,1.7,109.2z"/>
			<path class="st17" d="M11.2,114.2c-2.9-2.4-5.9-4.3-8.1-4.8c1.4,0.8,3,1.9,4.5,3.2c3.1,2.5,6.2,5.6,5.6,6.6
				c-0.7,1.2-5.3-1.4-9.5-4.2c-0.6-0.4-1.2-0.8-1.8-1.2c1.3,1.3,3.4,2.9,6,4.6c4.1,2.9,8.8,5.5,9.7,4
				C18.5,121,14.8,117.2,11.2,114.2z"/>
			<path class="st18" d="M16.6,123.1L16.6,123.1c-1.6,0-4.6-1.5-8.9-4.5c-4.4-3-7.1-5.2-7.6-7.1c-0.2-0.8-0.2-1.4,0.2-1.9
				c0.3-0.4,0.8-0.6,1.4-0.7c2.1-0.1,5.9,1.8,9.7,5c3.6,3,7.6,6.9,6.4,8.6C17.6,123,17.2,123.1,16.6,123.1z M1.9,109.5
				c-0.1,0-0.1,0-0.2,0c-0.3,0-0.7,0.1-0.9,0.4c-0.2,0.3-0.3,0.8-0.1,1.4c0.5,1.7,3.2,3.9,7.4,6.8c4.2,2.9,7.1,4.4,8.6,4.4
				c0.4,0,0.6-0.1,0.7-0.3c0.6-1-1.8-4.1-6.3-7.8C7.5,111.4,3.9,109.5,1.9,109.5z"/>
		</g>
		<g>
			<path class="st0" d="M50.3,101.7c1,0.3,1.3,2.3-2.5,13L59,116c0,0,7-8.5,8.8-14.2c1.5-5,0.1-7.2-1.6-7.1
				C58.8,95.2,50.3,101.7,50.3,101.7z"/>
			<path class="st2" d="M67.7,101.8c1.5-5,0.1-7.2-1.6-7.1c-7.3,0.5-15.9,6.9-15.9,6.9c0.4,0.1,0.7,0.6,0.6,1.9
				c3.8-1.7,9.2-3.8,10.7-2.7c1.6,1.2-1.4,9.2-4,10.3c-2,0.9-5.6,0.3-9,1.3c-0.2,0.7-0.5,1.4-0.8,2.2L59,116
				C59,116,66,107.5,67.7,101.8z"/>
			<path class="st1" d="M67.7,101.8c1.5-5,0.1-7.2-1.6-7.1c-7.3,0.5-15.9,6.9-15.9,6.9c0.3,0.1,0.5,0.3,0.6,0.8
				c4.2-2.3,10.9-5.8,13.4-4.1c2.7,1.9-1.8,10.1-4.1,13.7c-1.3,2-3.5,0.3-7.4,0.7c-2.1,0.2-3.5,0.6-4.6,1.1
				c-0.1,0.3-0.2,0.6-0.3,0.9L59,116C59,116,66,107.5,67.7,101.8z"/>
			<path class="st3" d="M59.1,116.3l-11.7-1.4l0.1-0.3c2.8-8,3.7-12.1,2.8-12.6l0.3-0.5c1.1,0.6,1.2,2.9-2.3,13l10.7,1.3
				c0.9-1.1,7-8.8,8.6-14c1.1-3.5,0.6-5.1,0.2-5.8c-0.2-0.4-0.6-0.7-1-0.8l0.2-0.6c0.6,0.2,1,0.5,1.3,1.1c0.7,1.3,0.7,3.5-0.2,6.3
				c-1.7,5.7-8.5,14-8.8,14.3L59.1,116.3z"/>
			<path class="st8" d="M56.5,110.3c-1.8-0.1-6.5-0.2-7.5,0.5c-0.6,0.4-1.1,2.5-1.8,5l12.1,0.4c0,0,3.4-3.9,3.2-4.2
				C62,111.5,60,110.5,56.5,110.3z"/>
			<path class="st9" d="M58.4,110.5c-0.3,0.3-0.6,0.5-0.9,0.6c-2.1,1-5.8,0.2-9.4,1.5c-0.3,0.9-0.6,2-1,3.2l12.1,0.4
				c0,0,3.4-3.9,3.2-4.2C62.1,111.6,60.7,110.9,58.4,110.5z"/>
			<path class="st10" d="M52.7,112.7c-2.4,0.3-3.8,0.7-5,1.2c-0.2,0.6-0.4,1.2-0.5,1.9l12.1,0.4c0,0,3.4-3.9,3.2-4.2
				c-0.2-0.2-0.7-0.6-1.7-0.9c-0.2,0.3-0.4,0.6-0.6,0.9C58.8,114,56.6,112.3,52.7,112.7z"/>
			<path class="st11" d="M59.3,116.5l-12.6-0.4l0.1-0.4c0.1-0.3,0.2-0.6,0.2-0.8c0.7-2.5,1.2-4,1.7-4.3c0.8-0.5,3.2-0.6,5.2-0.6
				c0.9,0,1.8,0,2.5,0.1c3.4,0.2,5.6,1.2,6.1,1.8c0.2,0.2,0.4,0.5-3.2,4.5L59.3,116.5z M47.5,115.5l11.5,0.3c1.3-1.6,2.7-3.3,3-3.8
				c-0.5-0.4-2.3-1.3-5.6-1.5c-0.7,0-1.6-0.1-2.5-0.1c-2.5,0-4.3,0.2-4.8,0.5c-0.4,0.3-1,2.2-1.5,4
				C47.6,115.2,47.6,115.4,47.5,115.5z"/>
			<path class="st12" d="M55.3,113.7c-2.7-0.4-7.6,0-9.4,3.2c-0.8,1.4-1.6,5.2,1.9,6.8c4.9,2.2,11.1,3.9,13.2,0
				C63.5,119.2,59.4,114.3,55.3,113.7z"/>
			<path class="st14" d="M55.3,113.7c-2.1-0.3-6.2,0-8.3,2c3.5-1.5,7.3-1,8.8,0.8c1.4,1.7-1.3,4.3-5.6,3c0,0,2,4.1,4.9,6.5
				c2.6,0.3,4.8-0.2,5.9-2.3C63.5,119.2,59.4,114.3,55.3,113.7z"/>
			<path class="st15" d="M55.3,113.7c-1.8-0.3-5-0.1-7.2,1.2h0c2.3-0.7,7.1-1.1,9.9,1.3c3.2,2.8,0.8,5.5-1.4,5.8
				c-1.3,0.2-0.2,2.5,1.4,3.9c1.3-0.3,2.4-1,3.1-2.2C63.5,119.2,59.4,114.3,55.3,113.7z"/>
			<path class="st16" d="M56.4,126.4C56.4,126.4,56.4,126.4,56.4,126.4c-2.9,0-6.3-1.3-8.7-2.4c-1.2-0.6-2.1-1.4-2.5-2.6
				c-0.6-1.8,0-3.7,0.5-4.6c1.7-3.2,6-3.5,7.8-3.5c0.7,0,1.3,0,1.9,0.1c2.4,0.4,4.8,2.2,6,4.5c1,2,1,4.1,0,5.9
				C60.4,125.5,58.8,126.4,56.4,126.4z M53.5,113.9c-1.3,0-5.7,0.2-7.3,3.2c-0.4,0.7-1,2.5-0.4,4.1c0.3,1,1.1,1.8,2.2,2.3
				c2.3,1.1,5.7,2.3,8.5,2.3c2.1,0,3.6-0.7,4.4-2.2c0.9-1.7,0.9-3.6,0-5.4c-1.1-2.2-3.3-3.8-5.5-4.2
				C54.7,113.9,54.1,113.9,53.5,113.9z"/>
			<path class="st15" d="M54.5,119.6c-4.6-1.5-8.2,0.3-8.9,1.9c0.4,0.9,1,1.6,2.2,2.2c4,1.8,8.9,3.3,11.7,1.6
				C59.6,123.3,57.8,120.7,54.5,119.6z"/>
			<path class="st17" d="M59.5,125.3c0.1-2-1.8-4.6-5.1-5.7c-1.5-0.5-2.9-0.6-4.1-0.5l0,0.2c2.9,0.1,5.2,2.1,4.5,3.9
				c-0.7,1.7-5.8,1.1-8.3-0.6c0.4,0.4,0.7,0.9,1.3,1.1C51.8,125.5,56.7,127,59.5,125.3z"/>
			<path class="st18" d="M56.4,126.3L56.4,126.3c-2.9,0-6.3-1.3-8.7-2.4c-1.1-0.5-1.9-1.3-2.4-2.3l0-0.1l0.1-0.1
				c0.6-1.3,2.8-2.6,5.7-2.6c1.1,0,2.3,0.2,3.5,0.6c3.5,1.1,5.3,3.9,5.3,6l0,0.2l-0.1,0.1C58.8,126.1,57.7,126.3,56.4,126.3z
				 M45.9,121.5c0.4,0.8,1.1,1.5,2,1.9c2.3,1.1,5.7,2.3,8.5,2.3c1.1,0,2.1-0.2,2.8-0.6c0-1.8-1.7-4.2-4.9-5.2
				c-1.1-0.4-2.2-0.5-3.3-0.5C48.5,119.4,46.5,120.5,45.9,121.5z"/>
		</g>
		<path class="st16" d="M72.8,112.3l-0.2-0.6c3.1-0.9,4.6-2.9,5-3.5c1.1-1.6,1.5-4.7,0.3-7.5c-0.9-2-2.9-4.6-7.7-5.4
			c-7.7-1.3-15,3.5-19.4,6.4c-0.8,0.5-1.5,1-2,1.3c-3.6,2.1-6.4,0.7-10.5-2.6c-2.1-1.7-4.5-4.1-6.8-6.4c-2.9-3-5.6-5.8-7.4-6.7
			c-1.2-0.6-2.2-0.9-2.8-0.7c-0.2,0.1-0.3,0.2-0.4,0.4c-0.3,1-0.4,3.2,0.2,5.9L20.7,93c-0.6-2.8-0.5-5-0.2-6.2l0,0
			c0.1-0.3,0.4-0.6,0.7-0.7c0.7-0.3,1.9,0,3.2,0.7c1.8,0.9,4.6,3.8,7.5,6.8c2.3,2.3,4.6,4.7,6.7,6.4c3.9,3.2,6.5,4.5,9.8,2.5
			c0.5-0.3,1.2-0.8,2-1.3c4.4-2.9,11.9-7.9,19.8-6.5c5,0.8,7.2,3.6,8.1,5.8c1.3,3,0.8,6.4-0.3,8.1C77.7,109.2,76.1,111.3,72.8,112.3
			z"/>
	</g>
	<g>
		<path class="st0" d="M62.9,63.7c-0.1,1.5-0.1,5,3.5,5.1c3.6,0.1,8.2-4.3,8.2-7.6L62.9,63.7z"/>
		<path class="st2" d="M74.6,61.2l-11.7,3.4c0,0.2,0.1,0.5,0.2,0.7c2.4,0.4,5.6-0.3,6.3,1c0.6,1.1-1.9,2.5-3.8,2.2
			c0.3,0.2,0.8,0.2,1.1,0.2C70.2,68.8,74.6,64.5,74.6,61.2z"/>
		<path class="st1" d="M74.5,62.1l-11.6,2.5c0,0.1,0,0.2,0.1,0.3c1.6,0.3,5.8,0,7.8-0.3c1.8-0.3,0.3,2.7-2.6,3.7
			c-0.2,0.1-0.3,0.2-0.4,0.3C70.8,68,73.9,64.9,74.5,62.1z"/>
		<path class="st11" d="M66.5,69.1L66.5,69.1c-0.1,0-0.1,0-0.2,0c-1.2,0-2.1-0.4-2.7-1.1c-1.2-1.4-1.1-3.6-1-4.3l0-0.2l12.3-2.6
			l0,0.4C74.9,64.8,70.2,69.1,66.5,69.1z M63.2,63.9c0,0.8-0.1,2.6,0.9,3.7c0.5,0.6,1.3,0.9,2.3,0.9c0,0,0.1,0,0.1,0
			c3.3,0,7.4-3.8,7.8-7L63.2,63.9z"/>
		<path class="st0" d="M48.5,16C43,18.3,34.7,26,36.1,40.9C37.6,56.3,51.2,67,68.8,64C84.8,61.3,88,51,88,51s2.5,2.4,4.8-1
			c2.6-3.8-0.3-8.6-4.1-5.8c0,0-1.3-33.3-27.8-33.3C52.1,11,48.5,16,48.5,16z"/>
		<path class="st19" d="M65.9,64.4c-0.1-0.1-0.3-0.2-0.5-0.2c-4.2-0.6-15.5-0.5-23.4-12.9c-6.9-10.8-3.3-25.1,0.6-30.5l-0.9,0.6
			c-3.4,4.1-6.3,10.5-5.5,19.4C37.5,55.5,49.7,65.8,65.9,64.4z"/>
		<path class="st2" d="M92.8,50c2.6-3.8-0.3-8.6-4.1-5.8c0,0-1.3-33.3-27.8-33.3c-8.9,0-12.5,5-12.5,5c-2.3,0.9-5.1,2.8-7.4,5.8
			l0.6,0c2.1-1.9,3.3-2.7,6.7-2.6c4,0.1,5.7-0.5,8-1.9c1.2-0.7,2.2,0.9,5.1-0.2c0.8-0.3,2.3,3.2,7.9,4.6c1.7,0.4,2.8,1.9,2.9,6.6
			c0.1,4.4,1.2,5.3,5.4,8.7c6,4.8,3.8,27.5-23.3,26.2c4.4,1.3,9.3,1.7,14.6,0.8C84.8,61.3,88,51,88,51S90.5,53.4,92.8,50z"/>
		<path class="st1" d="M86,49.5c-0.4,0.8-5,14.8-27.8,14.4c3,0.6,6.8,0.7,10.6,0C84.8,61.3,88,51,88,51s0-0.1,0.1-0.2
			C86.9,49.4,86.4,48.7,86,49.5z M93.3,44.9c0.1,0.3,0.3,1.3,0.4,2.5C93.8,46.5,93.7,45.6,93.3,44.9z M88.7,44.2
			c0,0-1.1-27.5-21.1-32.5c-3.2-0.3-6.6-0.4-10-0.5c-6.4,1-9.1,4.8-9.1,4.8c-1.8,0.8-4,2.1-6,4.2l0.2,0.3c2.4-1.8,2.9-2,4.2-1.9
			c1.3,0.2,4.3,0.4,6.8-0.8c2.5-1.3,2.4-1.7,3.6-1c1.2,0.7,2.9,0.2,3.8-0.2c0.9-0.4,1.2,0.7,2.8,1.6c1.5,0.8,4.1,2.5,6.8,2.8
			c2.7,0.3,2.9,2.7,3.4,5.1c0.5,2.5,1.5,3.5,3.5,4.7c1.8,1,1.8,4.2,4.6,6.2c3.7,2.7,3.7,5.9,3.8,9.1c0.1,3.9,4.7-3.9,7.1-1.1
			C92.3,43.5,90.7,42.7,88.7,44.2z"/>
		<path class="st3" d="M62.9,64.8C62.9,64.8,62.9,64.8,62.9,64.8c-14.6,0-25.7-9.8-27.1-23.9c-0.6-6.7,0.6-12.6,3.6-17.4
			c3.2-5,7.2-7.1,8.9-7.8c0.5-0.6,4.2-5.1,12.6-5.1H61c6.1,0,11.4,1.8,15.6,5.3c3.4,2.8,6.2,6.7,8.4,11.5c3.1,7.1,3.8,14.3,3.9,16.2
			c0.7-0.4,1.3-0.6,2-0.6c1.1,0,2,0.6,2.6,1.7c0.8,1.6,0.6,3.7-0.5,5.4c-0.9,1.3-1.9,1.9-3,1.9c-0.8,0-1.5-0.4-1.9-0.7
			c-0.3,0.8-1.3,2.9-3.5,5.2c-2.6,2.7-7.4,6.2-15.8,7.6C66.8,64.6,64.8,64.8,62.9,64.8z M61,11.2L61,11.2c-8.7,0-12.3,4.9-12.3,4.9
			l0,0.1l-0.1,0c-1.6,0.6-5.5,2.7-8.7,7.6c-3,4.7-4.2,10.4-3.5,17c1.3,13.8,12.2,23.4,26.5,23.4c0,0,0,0,0,0c1.9,0,3.9-0.2,5.8-0.5
			c8.2-1.4,12.9-4.8,15.4-7.4c2.7-2.8,3.5-5.4,3.5-5.4l0.1-0.5l0.3,0.3c0,0,0.8,0.8,1.8,0.8c0.9,0,1.8-0.6,2.5-1.7
			c1-1.5,1.2-3.4,0.5-4.8c-0.5-0.9-1.2-1.4-2.1-1.4c-0.7,0-1.3,0.3-2,0.8l-0.4,0.3l0-0.6c0-0.1-0.4-8.4-3.9-16.5
			C79.8,16.8,71.9,11.2,61,11.2z"/>
		<g>
			<g>
				<path class="st4" d="M68.4,27.3c0-0.6,1-1.8,2.6,0c1.4,1.6,0.8,1.8-0.2,1.2C69.7,27.9,68.4,28,68.4,27.3z"/>
				<path class="st20" d="M70.4,28c0.8,0.4,1.4,0.4,0.8-0.4c1.1,1.3,0.5,1.5-0.5,0.9c-1-0.6-2.2-0.5-2.4-1
					C68.9,27.6,69.7,27.7,70.4,28z"/>
				<path class="st21" d="M71.4,28.9c-0.2,0-0.4-0.2-0.7-0.3c-0.4-0.3-0.9-0.4-1.3-0.5c-0.6-0.2-1.2-0.3-1.2-0.8
					c0-0.3,0.2-0.6,0.4-0.8c0.2-0.2,0.5-0.3,1-0.2c0.4,0.1,0.9,0.4,1.4,1c0.7,0.8,1,1.3,0.8,1.5C71.9,28.9,71.7,29,71.4,28.9z
					 M69.7,26.5c-0.4-0.1-0.7,0-0.9,0.2c-0.3,0.2-0.4,0.5-0.4,0.7c0,0.3,0.4,0.5,1,0.6c0.4,0.1,0.9,0.3,1.4,0.5
					c0.3,0.1,0.5,0.2,0.6,0.3c0.2,0,0.3,0,0.3,0c0,0,0.1-0.3-0.8-1.4C70.5,26.9,70.1,26.6,69.7,26.5z"/>
				<path class="st22" d="M70.4,27c-0.3-0.3-1-0.6-1.5-0.3c-0.4,0.3,0,0.5,0.7,0.5C70.3,27.2,70.7,27.3,70.4,27z"/>
			</g>
			<g>
				<path class="st2" d="M67.9,35.8c-1.5-0.4-3.4-1.2-1.6-2.8c1.8-1.6,4.7-0.3,4.5,2.1C70.6,37,69.4,36.3,67.9,35.8z"/>
				<path class="st23" d="M67.8,34.9c-0.9-0.3-2.2-0.7-1-1.8c1.1-1,2.9-0.2,2.8,1.3C69.5,35.6,68.7,35.2,67.8,34.9z"/>
				<path class="st24" d="M67.1,34.8c-0.6-0.2-0.9-0.5-0.9-0.8c0-0.3,0.1-0.6,0.5-0.9c0.5-0.5,1.2-0.6,1.9-0.3
					c0.7,0.3,1.1,1,1.1,1.7c0,0.4-0.1,0.6-0.3,0.7c-0.3,0.2-0.7,0.1-1.2-0.1c-0.1,0-0.3-0.1-0.4-0.1C67.5,34.9,67.3,34.9,67.1,34.8z
					 M68.5,32.9c-0.6-0.2-1.2-0.1-1.7,0.3c-0.3,0.3-0.4,0.5-0.4,0.7c0,0.2,0.3,0.5,0.8,0.7c0.2,0.1,0.4,0.1,0.6,0.2
					c0.1,0,0.3,0.1,0.4,0.1c0.4,0.1,0.8,0.3,1,0.1c0.1-0.1,0.2-0.3,0.2-0.6C69.5,33.6,69,33.1,68.5,32.9z"/>
				<path class="st25" d="M67.6,34c-0.4,0-1-0.1-0.6-0.7c0.4-0.5,1.2-0.3,1.3,0.3C68.4,34.2,68,34,67.6,34z"/>
				<path class="st26" d="M67.5,33.6c-0.2,0-0.4-0.1-0.2-0.3c0.2-0.2,0.5-0.1,0.5,0.1C67.8,33.6,67.7,33.6,67.5,33.6z"/>
			</g>
			<g>
				<path class="st4" d="M44.1,27.1c0-0.6-1.1-1.7-2.6,0.1c-1.4,1.7-0.7,1.8,0.3,1.2C42.8,27.7,44.1,27.8,44.1,27.1z"/>
				<path class="st20" d="M42.1,27.9c-0.8,0.4-1.4,0.4-0.9-0.4c-1,1.4-0.4,1.5,0.5,0.9c1-0.6,2.2-0.6,2.3-1.1
					C43.6,27.4,42.8,27.5,42.1,27.9z"/>
				<path class="st21" d="M40.6,28.7c-0.2-0.2,0.1-0.7,0.8-1.6c0.4-0.6,0.9-0.9,1.3-1c0.5-0.1,0.8,0,1,0.2c0.3,0.2,0.5,0.5,0.5,0.8
					c0,0.5-0.5,0.6-1.1,0.8c-0.4,0.1-0.9,0.3-1.3,0.5c-0.3,0.2-0.5,0.3-0.7,0.3C40.8,28.9,40.6,28.8,40.6,28.7z M41.5,27.2
					c-0.9,1.1-0.8,1.4-0.8,1.4c0,0.1,0.1,0.1,0.3,0c0.2,0,0.4-0.2,0.6-0.3c0.4-0.3,0.9-0.4,1.4-0.6c0.7-0.2,1-0.3,1-0.7
					c0-0.2-0.1-0.5-0.4-0.7c-0.2-0.1-0.5-0.3-0.9-0.1C42.3,26.4,41.9,26.7,41.5,27.2z"/>
				<path class="st22" d="M42,26.9c0.3-0.4,1-0.7,1.5-0.4c0.4,0.3,0,0.5-0.7,0.5C42.2,27,41.7,27.2,42,26.9z"/>
			</g>
			<g>
				<path class="st2" d="M44,35.8c1.4-0.3,3.3-1,1.7-2.6c-1.6-1.5-4.4-0.5-4.3,1.8C41.4,36.7,42.6,36.1,44,35.8z"/>
				<path class="st23" d="M43.7,35.1c0.9-0.2,2.2-0.7,1.1-1.7c-1.1-1-2.9-0.3-2.9,1.2C41.9,35.7,42.7,35.3,43.7,35.1z"/>
				<path class="st24" d="M43.7,35.2c-0.1,0-0.3,0.1-0.4,0.1c-0.5,0.1-0.9,0.3-1.2,0c-0.2-0.1-0.3-0.4-0.3-0.7
					c0-0.8,0.4-1.4,1.2-1.7c0.7-0.2,1.4-0.1,1.9,0.4c0.3,0.3,0.5,0.6,0.4,0.9c-0.1,0.3-0.4,0.6-1,0.8C44.1,35.1,43.9,35.1,43.7,35.2
					z M42,34.6c0,0.3,0.1,0.5,0.2,0.6c0.2,0.2,0.6,0,1-0.1c0.1,0,0.3-0.1,0.4-0.1c0.2-0.1,0.4-0.1,0.6-0.2c0.5-0.2,0.8-0.4,0.8-0.6
					c0-0.2-0.1-0.5-0.4-0.8c-0.4-0.4-1.1-0.6-1.7-0.4C42.5,33.3,42,33.8,42,34.6z"/>
				<path class="st25" d="M43.5,33.7c-0.5-0.5-1.2-0.1-1.2,0.5c0,0.5,0.4,0.3,0.8,0.2C43.5,34.3,44,34.1,43.5,33.7z"/>
				<path class="st26" d="M43.1,33.7c-0.2-0.2-0.5,0-0.5,0.2c0,0.2,0.1,0.1,0.3,0.1C43.1,34,43.3,33.9,43.1,33.7z"/>
			</g>
			<path class="st2" d="M49.9,36.9c-0.1,1.4,1.1,3.6,3.9,2.6c1.9-0.7,1.8-3.1,1.3-3.8c-0.1,0.9-0.9,2-2.2,2.3
				C51.5,38.2,50.3,37.7,49.9,36.9z"/>
			<path class="st27" d="M52.1,33.9c-0.5,0.1-0.9,0.4-1.2,0.7c-0.3,0.3-0.6,0.7-0.8,1.2c-0.1,0.4-0.2,0.9-0.1,1.4
				c0.1,0.4,0.3,0.9,0.6,1.2c0.5,0.7,1.5,1.1,2.4,1c0.5,0,0.9-0.2,1.3-0.4c0.4-0.2,0.8-0.6,1-1c-0.1,0.5-0.5,0.9-0.9,1.2
				c-0.4,0.3-0.9,0.5-1.4,0.6c-0.5,0.1-1.1,0-1.6-0.2c-0.5-0.2-0.9-0.5-1.3-1c-0.3-0.4-0.5-0.9-0.6-1.4c-0.1-0.5,0-1.1,0.2-1.6
				c0.2-0.5,0.5-0.9,0.9-1.2C51.1,34.2,51.6,34,52.1,33.9z"/>
			<g>
				<path class="st2" d="M54.1,47.4c-2.6,0.1-7-0.6-9.9-2.5c0,0,0.4,1.9,1.8,5.7c1.5,4,3.3,5.5,6,5.7c4.6,0.3,10.1,0.7,12.9-4.9
					c2.9-5.7,1.9-7.9,1.9-7.9S62.4,47.1,54.1,47.4z"/>
				<path class="st28" d="M54.1,47.4C51.7,47.5,47,47,44.3,45c0,0,1,2.9,2.2,5.4c1,2.2,2.4,4.4,5.2,4.8c2.4,0.3,9.2,1.3,11.8-4.2
					c2.5-5.4,2.4-6.7,2.4-6.7S61.3,47.1,54.1,47.4z"/>
				<path class="st29" d="M63.4,51c2.5-5.4,2.4-6.7,2.4-6.7s-4.6,2.8-11.8,3.1c-2.4,0.1-6.9-0.8-9.6-2.2c0,0,0.6,1.6,1.5,3.7
					l0.7,1.3c-1.6-4-1.4-4.2-0.4-3.8c0.4,0.1,4.1,2,10,1.6c5-0.4,6.5-1.5,7.4-1.5c0.5,0,0.2,2.2-0.9,4.3c-1.1,2.2-3.3,4.3-9.6,4.1
					c0,0,0.3,0.2,1.3,0.2C57.5,55.5,61.5,55.1,63.4,51z"/>
				<path class="st30" d="M54.1,47.8c-0.9,0-1.7,0-2.6-0.1c-0.8-0.1-1.7-0.3-2.5-0.5c-0.8-0.2-1.6-0.5-2.4-0.8
					c-0.8-0.3-1.6-0.7-2.3-1.2l0.2-0.1l0,0c0.5,1.3,1,2.6,1.6,3.9c0.3,0.6,0.6,1.3,0.9,1.9c0.3,0.6,0.7,1.2,1.1,1.8
					c0.4,0.5,0.9,1,1.4,1.4c0.5,0.4,1.2,0.7,1.8,0.8c0.2,0,0.3,0.1,0.5,0.1l0.5,0c0.3,0,0.7,0,1,0.1c0.7,0,1.4,0.1,2.1,0.1
					c0.7,0,1.4-0.1,2.1-0.2c0.7-0.1,1.3-0.3,2-0.5c0.6-0.2,1.2-0.6,1.8-1c0.5-0.4,1-0.9,1.4-1.5c0.2-0.3,0.4-0.6,0.5-0.9
					c0.2-0.3,0.3-0.6,0.5-0.9c0.3-0.6,0.6-1.3,0.9-1.9c0.3-0.6,0.5-1.3,0.7-2c0.1-0.3,0.2-0.7,0.3-1c0.1-0.3,0.2-0.7,0.2-1l0,0
					l0.2,0.1c-0.4,0.3-0.9,0.5-1.4,0.8c-0.5,0.2-0.9,0.4-1.4,0.7c-1,0.4-1.9,0.7-2.9,1c-1,0.3-2,0.5-3,0.7
					C56.2,47.7,55.1,47.8,54.1,47.8L54.1,47.8L54.1,47.8z M54.1,47.1c1,0,2-0.1,3-0.3c1-0.1,2-0.3,3-0.6c1-0.2,2-0.5,2.9-0.9
					c1-0.3,1.9-0.7,2.8-1.2l0.2-0.1l0,0.3l0,0c-0.1,0.7-0.3,1.4-0.5,2.1c-0.2,0.7-0.4,1.3-0.7,2c-0.3,0.7-0.5,1.3-0.8,1.9
					c-0.1,0.3-0.3,0.6-0.5,1c-0.2,0.3-0.3,0.6-0.5,0.9c-0.4,0.6-0.9,1.2-1.4,1.6c-0.6,0.5-1.2,0.8-1.9,1.1c-0.7,0.3-1.4,0.5-2.1,0.6
					c-0.7,0.1-1.4,0.2-2.1,0.2c-0.7,0-1.4,0-2.1-0.1c-0.4,0-0.7-0.1-1.1-0.1l-0.5-0.1c-0.2,0-0.4-0.1-0.6-0.1c-0.7-0.2-1.4-0.5-2-1
					c-0.6-0.5-1.1-1-1.5-1.6c-0.8-1.2-1.4-2.5-1.9-3.8c-0.5-1.3-1-2.6-1.5-3.9l0,0l-0.1-0.3l0.3,0.1c0.8,0.4,1.5,0.6,2.3,0.9
					c0.8,0.3,1.6,0.5,2.4,0.6c0.8,0.2,1.6,0.3,2.5,0.4C52.4,47,53.3,47.1,54.1,47.1z"/>
				<path class="st31" d="M48.2,51.9c-1-1.5-2.7-5.2-1.1-4.6c2.1,0.8,4.8,1.8,9.7,1.5c5.2-0.3,6.4-1.5,5.7,1c-0.8,2.8-3.4,5-8.3,5
					C50.3,54.7,49.3,53.6,48.2,51.9z"/>
			</g>
			
				<ellipse transform="matrix(0.9514 -0.3079 0.3079 0.9514 -8.4825 17.7268)" class="st19" cx="51.9" cy="35.7" rx="1.2" ry="0.9"/>
		</g>
		<path class="st1" d="M89.1,49.1c1.4,0.1,2.5-0.8,2.5-1.8c0-0.9-1.4-1.1-1.7,0.1C89.7,48.5,88.2,49,89.1,49.1z"/>
	</g>
	<g>
		<path class="st4" d="M36.2,41.9c-1.6-2.3-4.4-8.5-1.7-14.1c0,0,0.7,2.2,2.5,3.2C35.6,35.4,36.2,41.9,36.2,41.9z"/>
		<path class="st7" d="M36.6,43L36,42c-1.8-2.5-4.4-8.8-1.7-14.4l0.3-0.7l0.2,0.7c0,0,0.7,2.1,2.3,3.1l0.2,0.1l-0.1,0.2
			c-1.4,4.7-0.8,10.6-0.8,10.7L36.6,43z M34.5,28.6c-1.9,4.6-0.2,9.5,1.3,12.2c-0.1-2-0.2-6.1,0.8-9.5
			C35.5,30.5,34.8,29.3,34.5,28.6z"/>
		<path class="st4" d="M37,31c-2.2-1-4.5-5.9-2-11.6c2.9-6.7,9.3-8.8,12-9.7c0,0-1.4,6.6-0.2,7.5c0,0-4.5,2.7-7,6.9
			C37.4,28,37,31,37,31z"/>
		<path class="st5" d="M46.9,9.7c-0.4,0.1-0.8,0.3-1.4,0.5c-1.6,1.1-2.4,2.9-2.9,6c-0.4,2.4-1.5,3.1-3.2,6c-1.3,2.3-2.6,5.1-2.8,8.6
			c0.1,0,0.3,0.1,0.4,0.2c0.1-0.6,0.6-3.4,2.8-6.9c2.5-4.2,7-6.9,7-6.9C45.5,16.3,46.9,9.7,46.9,9.7z"/>
		<path class="st7" d="M37.2,31.5l-0.3-0.2c-2.2-1-4.8-5.9-2.2-12c2.8-6.6,8.9-8.8,11.9-9.8l0.8-0.3l-0.1,0.5
			c-0.6,2.7-1,6.7-0.3,7.2l0.4,0.3l-0.4,0.2c0,0-4.5,2.7-6.9,6.8c-1.9,3.2-2.7,6.9-2.7,6.9L37.2,31.5z M46.5,10.1
			c-2.9,1-8.7,3.2-11.3,9.4c-1.4,3.2-1.1,5.8-0.7,7.4c0.4,1.7,1.3,3.1,2.3,3.7c0.3-1,1.1-4,2.7-6.7c2.2-3.6,5.8-6.1,6.8-6.8
			C45.6,15.7,46.2,11.7,46.5,10.1z"/>
		<path class="st4" d="M62.6,2.6c-3.4,0-12.1,1.6-16.5,8c-3.1,4.5-0.7,7.4,2.2,7.4c3.4,0,9.3-1.9,9.5-5.1
			C57.7,12.1,62.6,2.6,62.6,2.6z"/>
		<path class="st5" d="M58.5,3.1C57,3.6,55.2,6,54.3,9.2c-0.9,3.2-1.2,5.6-3.3,7c-1.4,1-3.7,1.5-5.3,0.8c0.7,0.6,1.6,1,2.6,1
			c3.4,0,9.3-1.9,9.5-5.1c0-0.7,4.9-10.3,4.9-10.3C62,2.6,59.2,2.9,58.5,3.1z"/>
		<path class="st7" d="M48.2,18.2L48.2,18.2L48.2,18.2c-1.5,0-2.9-0.8-3.5-2c-0.5-0.9-1-2.9,1.1-5.8c2-2.8,5-5.1,8.8-6.5
			c3.1-1.2,6.1-1.6,7.9-1.6l0.5,0l-0.2,0.4C61,6.3,58,12.3,57.9,12.9C57.8,16.3,51.4,18.2,48.2,18.2z M62.1,2.9
			C58.7,3,50.5,4.7,46.3,10.7c-1.4,2-1.8,3.9-1.1,5.2c0.5,1,1.7,1.7,3,1.7l0,0.3v-0.3c3.1,0,9-1.8,9.2-4.8
			C57.4,12.2,60.9,5.2,62.1,2.9z"/>
		<path class="st4" d="M77.2,9.8c-13.5,0.2-11.2,5-16.5,6.1c-4.2,0.9-6.1-1.7-3.9-6.9c3.3-7.9,12-9.1,15.4-8.6
			c11.3,1.4,15,9.2,23.1,9.2c4.6,0,8.3-4.1,12.8-3c3.8,0.9,3,3.3,7.8,3.5c0,0-1.6,1.6-4.4,0.6c-3.1-1.1-5.9-0.3-7.5,1.6
			c-1.6,1.9-2.5,6.3-11.9,4C82.6,13.9,77.2,9.8,77.2,9.8z"/>
		<path class="st5" d="M115.9,10c-4.8-0.2-4.1-2.6-7.8-3.5c-4.4-1-8.1,3-12.8,3c-3.4,0-6-1.4-8.7-3.1c2.2,2.5,8.4,5.9,3.9,4.4
			c-5.1-1.7-8.9-4.8-16.4-5.6C63.2,4.2,60.9,11,58.5,12.6c-1.2,0.8-2.3,0.1-2.2-1.2c-1,3.3,1,5.3,4.5,4.5c5.3-1.2,2.9-5.9,16.5-6.1
			c0,0,5.4,4.1,14.9,6.4c9.4,2.3,10.3-2.1,11.9-4c1.7-1.9,4.4-2.7,7.5-1.6C114.3,11.7,115.9,10,115.9,10z"/>
		<path class="st7" d="M96.7,17.1c-1.4,0-3-0.2-4.8-0.7c-8.7-2.1-14.2-5.9-14.9-6.4c-8.5,0.1-10.6,2.1-12.4,3.8c-1,1-2,1.9-3.9,2.3
			c-0.6,0.1-1.1,0.2-1.6,0.2c-1.4,0-2.4-0.5-3-1.4c-0.9-1.3-0.7-3.4,0.4-6.1C59.3,2.3,66,0,70.9,0c0.5,0,1,0,1.4,0.1
			c5.8,0.7,9.7,3.2,13.1,5.4c3.3,2.1,6.1,3.9,10,3.9c2.1,0,3.9-0.8,5.8-1.6c1.8-0.8,3.6-1.6,5.5-1.6c0.5,0,1,0.1,1.5,0.2
			c1.7,0.4,2.5,1.1,3.3,1.8c0.9,0.8,1.8,1.6,4.5,1.7l0.6,0l-0.4,0.5c0,0-1,1.1-2.8,1.1c-0.6,0-1.3-0.1-1.9-0.4
			c-0.9-0.3-1.8-0.5-2.7-0.5c-1.8,0-3.4,0.7-4.5,2c-0.2,0.3-0.5,0.6-0.7,1C102.4,15,101,17.1,96.7,17.1z M77.3,9.5L77.3,9.5
			c0.1,0.1,5.6,4.2,14.8,6.4c1.8,0.4,3.3,0.6,4.6,0.6c3.9,0,5.2-1.9,6.2-3.5c0.3-0.4,0.5-0.8,0.8-1.1c1.2-1.4,3-2.2,4.9-2.2
			c0.9,0,1.9,0.2,2.9,0.5c0.6,0.2,1.2,0.3,1.7,0.3c0.8,0,1.4-0.2,1.8-0.4c-2.2-0.2-3.1-1-4-1.8c-0.8-0.7-1.5-1.3-3-1.6
			c-0.5-0.1-0.9-0.2-1.4-0.2c-1.8,0-3.5,0.7-5.3,1.5c-1.9,0.8-3.8,1.7-6,1.7c-4,0-7.1-1.9-10.3-4c-3.4-2.1-7.2-4.5-12.9-5.3
			c-0.4,0-0.8-0.1-1.3-0.1c-4.7,0-11.1,2.2-13.8,8.5c-1,2.4-1.2,4.4-0.4,5.5c0.5,0.7,1.4,1.1,2.5,1.1c0.5,0,1-0.1,1.5-0.2
			c1.8-0.4,2.7-1.2,3.6-2.2C66.2,11.6,68.3,9.6,77.3,9.5L77.3,9.5z"/>
		<path class="st4" d="M73.6,18.8c0.1,2.6,1.1,9.6,11,9.5c10,0,15.6,1.8,23.1,5.8c2.7-0.8,5.6-0.8,7.5,1.8c2.3,3.1,6.9,4.4,10.5,2.3
			c3.4-2,3.9-5.7,6.6-6c1.6-0.2,0.9-1-2.6-0.1c-2.2,0.5-4.4,1.9-7,1.3c-2.9-0.6-3.8-3-6.6-9.4c-2.6-5.9-9.2-8.7-15.3-8.8
			C94.5,15.2,73.6,18.8,73.6,18.8z"/>
		<path class="st5" d="M129.7,32.1c-2.2,0.5-4.4,1.9-7,1.3c-2.9-0.6-3.8-3-6.6-9.4c-2.4-5.4-8.1-8.3-13.1-8.4
			c7.9,2.6,10.5,8.8,10.7,11c0.2,2.4-0.6,5.1-4.6,1.7c-4.1-3.4-7-5.1-18.4-3.6c-12.4,1.6-12.4-3.6-12.5-5.8l-4.4-0.1
			c0.1,2.6,1.1,9.6,11,9.5c10,0,15.6,1.8,23.1,5.8c2.7-0.8,5.6-0.8,7.5,1.8c2.3,3.1,6.9,4.4,10.5,2.3c3.4-2,3.9-5.7,6.6-6
			C133.9,32.1,133.2,31.3,129.7,32.1z"/>
		<path class="st7" d="M121.8,39.5c-2.7,0-5.3-1.3-6.8-3.4c-1-1.4-2.5-2.2-4.4-2.2c-0.9,0-1.8,0.2-2.8,0.5l-0.1,0l-0.1-0.1
			c-7.1-3.8-12.6-5.7-22.6-5.7l-0.4,0c-4.3,0-7.5-1.3-9.3-3.9c-1.1-1.6-1.7-3.5-1.9-5.9l0-0.3l0.3,0c0.2,0,19.9-3.8,27-3.8
			c0.4,0,0.7,0,1,0c0.9,0.1,4.2,0.4,7.7,2.1c3.4,1.7,5.8,4,7.1,7l0.4,0.9c2.5,5.7,3.4,7.8,6,8.3c0.4,0.1,0.8,0.1,1.2,0.1
			c1.3,0,2.6-0.4,3.9-0.9c0.7-0.2,1.3-0.4,1.9-0.6c1.3-0.3,2.2-0.4,2.7-0.4c0.3,0,1.1,0,1.1,0.5c0,0.3-0.3,0.5-1.1,0.6
			c-1.3,0.1-2,1.2-3,2.4c-0.9,1.2-1.9,2.5-3.5,3.5C124.6,39.2,123.2,39.5,121.8,39.5z M110.6,33.4c2.1,0,3.7,0.8,4.9,2.4
			c1.4,2,3.9,3.2,6.4,3.2c1.3,0,2.6-0.3,3.8-1c1.6-0.9,2.5-2.2,3.4-3.3c0.9-1.2,1.6-2.2,2.8-2.6c-0.5,0-1.1,0.1-2,0.3
			c-0.6,0.1-1.2,0.4-1.8,0.6c-1.3,0.4-2.6,0.9-4,0.9c-0.4,0-0.9,0-1.3-0.1c-2.9-0.6-3.9-2.8-6.4-8.6l-0.4-0.9
			c-2.8-6.4-10.5-8.5-14.2-8.8c-0.3,0-0.6,0-0.9,0c-6.6,0-24.3,3.3-26.6,3.7c0.3,4.2,2.4,9,10.6,9l0.4,0c10.1,0,15.6,1.9,22.8,5.7
			C108.7,33.5,109.7,33.4,110.6,33.4z"/>
		<path class="st4" d="M76.3,6.8c-5.7-1.2-14.5,1.5-14.5,6.4c0,5.1,8.2,7.5,17.7,5.9c10.5-1.7,21.3-4.8,26.8-2.9
			c-3.8-3-7.5-0.7-14.5-3.2C86.4,11.1,83.2,8.3,76.3,6.8z"/>
		<path class="st5" d="M106.2,16.2c-3.7-3.3-8.1-1.3-14.5-3.2c-1.3-0.4-2.4-0.9-3.4-1.4c1,1.9-4.5,4.3-14.2,4.7
			C69,16.4,61.4,16.1,63,10.2c-0.8,0.9-1.3,1.9-1.3,3c0,5.1,8.2,7.5,17.7,5.9C89.9,17.4,100.8,14.3,106.2,16.2z"/>
		<path class="st7" d="M73.9,19.9c-4.9,0-8.9-1.2-10.9-3.2c-1-1-1.5-2.2-1.5-3.5c0-2,1.4-3.8,3.9-5.1c2.2-1.2,5.1-1.8,7.9-1.8
			c1.1,0,2.1,0.1,3,0.3c4.3,0.9,7.2,2.3,10,3.7c1.8,0.9,3.5,1.7,5.5,2.5c3.2,1.1,5.5,1.2,7.5,1.2c2.4,0,4.5,0.1,7.1,1.9l1.9,1.3
			l-2.1-0.7c-1.1-0.4-2.4-0.6-4.1-0.6c-3.9,0-9.1,1-14.5,2.1c-2.7,0.5-5.4,1.1-8.1,1.5C77.6,19.7,75.7,19.9,73.9,19.9z M73.3,6.8
			c-5.4,0-11.3,2.6-11.3,6.4c0,1.2,0.4,2.2,1.3,3.1c1.9,1.9,5.7,3,10.5,3c1.8,0,3.6-0.2,5.5-0.5c2.7-0.4,5.4-1,8.1-1.5
			c5.5-1.1,10.6-2.1,14.6-2.1c0.8,0,1.6,0,2.3,0.1c-1.7-0.7-3.2-0.8-5-0.8c-2.1,0-4.4-0.1-7.7-1.2c-2.1-0.7-3.9-1.6-5.6-2.5
			c-2.8-1.4-5.6-2.8-9.9-3.7C75.3,6.9,74.4,6.8,73.3,6.8z"/>
		<path class="st4" d="M97.2,25.9c6-0.5,10,2.7,11.7,6.7c1.5,3.7,0.6,6.4,3.6,7c5.2,1.2,5.5,1.8,6.6,3.4c1.1,1.6,0.5,3.5,0.1,2.3
			c-0.4-1.2-1.5-1.8-7-1.9c-5.5-0.1-5.1-3.5-6.4-6.2c-1.3-2.7-3.9-4.5-9-2.9c-5.1,1.6-7.9,3.3-11.7,1.8c-3.8-1.5-4.2-6.1-3.7-8.2
			c0,0,1.6,0.7,6.7-0.3C94.1,26.5,97.2,25.9,97.2,25.9z"/>
		<path class="st5" d="M92.5,32.8c-6.8,1.1-7.8-2.7-7.6-4.6L81.2,28c-0.5,2.1-0.1,6.7,3.7,8.2c3.7,1.5,6.6-0.1,11.7-1.8
			c3.6-1.2,5.9-0.6,7.5,0.8c0,0,0,0,0,0C102.4,32.6,99,31.8,92.5,32.8z"/>
		<path class="st7" d="M93.4,26.4c1.8-0.4,3.6-0.7,5.5-0.7c1.8,0,3.7,0.3,5.4,1.2c0.8,0.4,1.6,1,2.3,1.6c0.7,0.7,1.2,1.4,1.7,2.2
			c0.5,0.8,0.9,1.7,1.2,2.5c0.3,0.9,0.5,1.8,0.7,2.7c0.1,0.4,0.2,0.9,0.3,1.3c0.1,0.4,0.3,0.8,0.5,1.1c0.2,0.3,0.6,0.6,0.9,0.7
			c0.2,0.1,0.4,0.1,0.6,0.2l0.7,0.2c0.9,0.2,1.8,0.4,2.7,0.7c0.4,0.1,0.9,0.3,1.3,0.5c0.4,0.2,0.8,0.5,1.2,0.8
			c0.3,0.4,0.6,0.7,0.9,1.1c0.1,0.2,0.3,0.4,0.4,0.6c0.1,0.2,0.2,0.4,0.3,0.7c0.1,0.2,0.1,0.5,0.1,0.7c0,0.3,0,0.5,0,0.8
			c0,0.1,0,0.1-0.1,0.2c0,0-0.1,0.1-0.1,0.1c-0.1,0-0.1,0.1-0.3,0.1c-0.1,0-0.2-0.1-0.3-0.1c-0.1,0-0.1-0.1-0.1-0.1
			c-0.1-0.1-0.1-0.1-0.1-0.2c0-0.1,0-0.1-0.1-0.2c0,0,0-0.1-0.1-0.1c0-0.1-0.1-0.2-0.1-0.2c-0.2-0.3-0.6-0.5-1-0.7
			c-0.4-0.1-0.8-0.2-1.3-0.3c-0.9-0.1-1.8-0.2-2.7-0.2c-0.5,0-0.9,0-1.4,0c-0.2,0-0.5,0-0.7,0c-0.2,0-0.5,0-0.7-0.1
			c-0.9-0.1-1.9-0.4-2.7-0.9c-0.4-0.3-0.7-0.6-1-1c-0.3-0.4-0.5-0.8-0.7-1.3c-0.4-0.9-0.6-1.8-0.9-2.6c-0.3-0.8-0.8-1.6-1.4-2.2
			c-0.6-0.6-1.4-1.1-2.2-1.3c-0.8-0.3-1.7-0.3-2.6-0.2c-0.9,0.1-1.8,0.3-2.6,0.5c-1.7,0.5-3.4,1.2-5.2,1.8c-0.9,0.3-1.8,0.5-2.7,0.6
			c-0.9,0.1-1.9,0.1-2.8-0.1c-0.5-0.1-0.9-0.3-1.3-0.4c-0.4-0.2-0.9-0.4-1.3-0.7c-0.8-0.6-1.4-1.3-1.8-2.2c-0.4-0.8-0.7-1.8-0.8-2.7
			c-0.1-0.9-0.1-1.9,0.1-2.8l0.6,0.1c-0.2,0.8-0.2,1.7-0.1,2.6c0.1,0.9,0.4,1.7,0.8,2.5c0.4,0.8,1,1.5,1.7,2
			c0.3,0.3,0.7,0.5,1.1,0.6c0.4,0.2,0.8,0.3,1.3,0.4c0.9,0.2,1.7,0.2,2.6,0.1c0.9-0.1,1.7-0.3,2.6-0.6c1.7-0.5,3.4-1.2,5.2-1.8
			c0.9-0.3,1.8-0.5,2.7-0.6c0.9-0.1,1.9,0,2.8,0.3c0.9,0.3,1.8,0.8,2.4,1.5c0.7,0.7,1.2,1.5,1.5,2.4c0.4,0.9,0.6,1.8,0.9,2.6
			c0.2,0.4,0.4,0.8,0.6,1.1c0.2,0.3,0.5,0.7,0.9,0.9c0.7,0.5,1.6,0.7,2.4,0.8c0.2,0,0.4,0,0.7,0.1c0.2,0,0.4,0,0.7,0
			c0.5,0,0.9,0,1.4,0c0.9,0,1.8,0.1,2.8,0.3c0.5,0.1,0.9,0.2,1.4,0.3c0.2,0.1,0.5,0.2,0.7,0.3c0.2,0.1,0.4,0.3,0.6,0.5
			c0.1,0.1,0.1,0.2,0.2,0.3c0,0.1,0.1,0.1,0.1,0.2c0,0.1,0,0.1,0.1,0.1c0,0,0,0.1,0,0.1c0,0,0,0,0,0c0,0,0,0-0.1,0
			c-0.1,0-0.1,0-0.1,0c0,0,0,0,0,0c0,0,0-0.1,0-0.1c0-0.2,0-0.4,0-0.6c0-0.2-0.1-0.4-0.1-0.6c-0.1-0.2-0.1-0.4-0.2-0.6
			c-0.1-0.2-0.2-0.4-0.3-0.6c-0.3-0.4-0.5-0.7-0.8-1c-0.6-0.6-1.4-0.9-2.3-1.2c-0.8-0.3-1.7-0.5-2.6-0.7l-0.7-0.2
			c-0.2-0.1-0.5-0.1-0.7-0.2c-0.5-0.2-0.9-0.5-1.2-0.9c-0.3-0.4-0.5-0.9-0.6-1.3c-0.1-0.5-0.2-0.9-0.3-1.4c-0.2-0.9-0.4-1.8-0.7-2.6
			c-0.3-0.8-0.7-1.7-1.1-2.4c-0.5-0.8-1-1.5-1.6-2.1c-0.6-0.6-1.3-1.1-2.1-1.6c-1.6-0.8-3.4-1.2-5.2-1.2c-1.8,0-3.6,0.2-5.4,0.6
			L93.4,26.4z"/>
		<path class="st7" d="M80.8,27.7c1,0.2,2.1,0.3,3.1,0.3c1.1,0,2.1-0.1,3.2-0.3c1.1-0.1,2.1-0.3,3.1-0.5c1-0.2,2.1-0.4,3.1-0.7
			l0.1,0.3c-1,0.3-2.1,0.6-3.1,0.8c-1,0.2-2.1,0.5-3.2,0.6c-1.1,0.2-2.1,0.3-3.2,0.3c-1.1,0-2.2,0-3.3-0.3L80.8,27.7z"/>
	</g>
</g>
</svg>
