<svg xmlns="http://www.w3.org/2000/svg" width="68.312" height="50" viewBox="0 0 68.312 50">
  <metadata><?xpacket begin="﻿" id="W5M0MpCehiHzreSzNTczkc9d"?>
<x:xmpmeta xmlns:x="adobe:ns:meta/" x:xmptk="Adobe XMP Core 5.6-c138 79.159824, 2016/09/14-01:09:01        ">
   <rdf:RDF xmlns:rdf="http://www.w3.org/1999/02/22-rdf-syntax-ns#">
      <rdf:Description rdf:about=""/>
   </rdf:RDF>
</x:xmpmeta>
                                                                                                    
                                                                                                    
                                                                                                    
                                                                                                    
                                                                                                    
                                                                                                    
                                                                                                    
                                                                                                    
                                                                                                    
                                                                                                    
                                                                                                    
                                                                                                    
                                                                                                    
                                                                                                    
                                                                                                    
                                                                                                    
                                                                                                    
                                                                                                    
                                                                                                    
                                                                                                    
                           
<?xpacket end="w"?></metadata>
<defs>
    <style>
      .cls-1 {
        fill: #9edbdf;
        fill-rule: evenodd;
      }
    </style>
  </defs>
  <path class="cls-1" d="M919.428,1012.3a2.1,2.1,0,0,0,1.295-1.71c0.234-2.58-3-6.36-4.115-6.82a2.443,2.443,0,0,0-.588-0.16,2.33,2.33,0,0,0-.264-0.01,2.563,2.563,0,0,0-1.337.39l-10.269,6.54v8.44l0.531-.57Zm-62.068,20.29H878.4l-0.343-.8a2.8,2.8,0,0,1,.128-2.44c0.052-.09.109-0.18,0.17-0.27H857.36v-26.6h16.376v8.81a0.882,0.882,0,0,0,.888.88h6.73a0.881,0.881,0,0,0,.887-0.88v-8.81h16.377v20.02a9.305,9.305,0,0,0,1.044.14c0.243,0.02.48,0.06,0.711,0.1a1.681,1.681,0,0,1,.221.05c0.015,0,.03.01,0.045,0.01l0.271,0.06c0.226,0.07.441,0.15,0.651,0.23a5.544,5.544,0,0,1,.568.28V999.446a3.537,3.537,0,0,0-1.811-3.071l-0.56-.439-5.524-4.337a2.827,2.827,0,0,0-1.747-.6h-29a2.827,2.827,0,0,0-1.747.6l-6.084,4.776a3.508,3.508,0,0,0-1.811,3.071v29.634A3.51,3.51,0,0,0,857.36,1032.59Zm41.258-33.952H857.36l1.206-.947,1.028-.807h36.79l1.028,0.807Zm-36.633-3.631,1.506-1.183h29l1.506,1.183H861.985Zm39.7,30.243a3.174,3.174,0,0,0-.557-0.35,2.91,2.91,0,0,0-.488-0.2,1.9,1.9,0,0,0-.226-0.08,0.061,0.061,0,0,1-.04-0.01c-0.061-.01-0.124-0.03-0.187-0.04a5.105,5.105,0,0,0-.675-0.11c-0.143-.01-0.287-0.03-0.43-0.04s-0.308-.04-0.463-0.07a12.244,12.244,0,0,1-1.535-.33,13.848,13.848,0,0,1-7.337-5.14,1.156,1.156,0,0,0-.584-0.4,1.313,1.313,0,0,0-.278-0.04,0.911,0.911,0,0,0-.7.33c-2.408,2.87-.464,6.9,2.478,8.19l-2.251.94-0.87.36-0.852.36-0.517.21-1.538.25-4.166.68a0.952,0.952,0,0,0-.792,1.08,1.02,1.02,0,0,0,.065.24l0.645,1.51,0.062,0.15a1.273,1.273,0,0,0,1.143.76,1.816,1.816,0,0,0,.231-0.02l1.585-.37a0.163,0.163,0,0,1,.068-0.01,0.309,0.309,0,0,1,.3.24,0.3,0.3,0,0,1-.227.36l-1.48.35,0.5,1.28a1.519,1.519,0,0,0,1,.9,1.406,1.406,0,0,0,.41.05,1.927,1.927,0,0,0,.24-0.01l1-.24h0.069a0.3,0.3,0,0,1,.3.23,0.306,0.306,0,0,1-.228.37l-0.913.21,0.365,1.04a1.4,1.4,0,0,0,.942.88c0.042,0.01.087,0.01,0.13,0.02l1.43-.33a0.166,0.166,0,0,1,.069-0.01,0.309,0.309,0,0,1,.3.24,0.3,0.3,0,0,1-.227.36l-0.481.11,0.253,0.78a1.584,1.584,0,0,0,1.066,1.02,1.964,1.964,0,0,0,.422.05h0.109l5.776-.39a4.021,4.021,0,0,0,2.176-.84l8.157-6.37,15.523-3.7a2.083,2.083,0,0,0,1.548-1.48,7.432,7.432,0,0,0-2.99-7.39,2.308,2.308,0,0,0-.555-0.24,2.256,2.256,0,0,0-.632-0.09,2.72,2.72,0,0,0-1.009.21l-12.651,5.48-0.808.35-0.948-.74-0.265-.2Zm-41.8-8.23a0.937,0.937,0,0,0-.5.15,0.891,0.891,0,0,0-.387.74v8.54a0.887,0.887,0,0,0,.387.73,0.858,0.858,0,0,0,.5.15h6.929a0.881,0.881,0,0,0,.888-0.88v-8.54a0.89,0.89,0,0,0-.888-0.89h-6.929Zm5.42,1.4,1.508,2.61h-1v2.34h-1.009v-2.34h-1.012Zm-3.948,0,1.508,2.61h-1v2.34h-1.009v-2.34h-1.012Zm5.571,7.35h-7.146v-1h7.146v1Zm11.9-4.99v-2.87a0.887,0.887,0,0,0-.887-0.89h-6.93a0.889,0.889,0,0,0-.887.89v8.54a0.881,0.881,0,0,0,.887.88h6.93a0.881,0.881,0,0,0,.887-0.88v-5.67Zm-3.635.56v3.61a1.179,1.179,0,0,1-2.357,0v-1.18h1.009v1.18a0.17,0.17,0,0,0,.339,0v-3.61h-2.412a2.917,2.917,0,0,1,5.834,0h-2.413Z" transform="translate(-853.844 -991)"/>
</svg>
