<svg xmlns="http://www.w3.org/2000/svg" width="52.38" height="50" viewBox="0 0 52.38 50">
  <metadata><?xpacket begin="﻿" id="W5M0MpCehiHzreSzNTczkc9d"?>
<x:xmpmeta xmlns:x="adobe:ns:meta/" x:xmptk="Adobe XMP Core 5.6-c138 79.159824, 2016/09/14-01:09:01        ">
   <rdf:RDF xmlns:rdf="http://www.w3.org/1999/02/22-rdf-syntax-ns#">
      <rdf:Description rdf:about=""/>
   </rdf:RDF>
</x:xmpmeta>
                                                                                                    
                                                                                                    
                                                                                                    
                                                                                                    
                                                                                                    
                                                                                                    
                                                                                                    
                                                                                                    
                                                                                                    
                                                                                                    
                                                                                                    
                                                                                                    
                                                                                                    
                                                                                                    
                                                                                                    
                                                                                                    
                                                                                                    
                                                                                                    
                                                                                                    
                                                                                                    
                           
<?xpacket end="w"?></metadata>
<defs>
    <style>
      .cls-1 {
        fill: #9edbdf;
        fill-rule: evenodd;
      }
    </style>
  </defs>
  <path class="cls-1" d="M1053.08,1012.14l6.28,14.95c-0.16.06-.33,0.12-0.5,0.18a7.145,7.145,0,1,0,9.35,3.83,8.453,8.453,0,0,0-.52-0.99l1.75-.73a0.188,0.188,0,0,0,.02.08,0.757,0.757,0,0,0,.71.47,0.645,0.645,0,0,0,.3-0.06l10.28-4.3a0.765,0.765,0,0,0,.41-1c-0.01-.03-0.03-0.05-0.04-0.08l1.26-.52,0.85,2.01a1.587,1.587,0,0,0,1.47.99,1.5,1.5,0,0,0,.62-0.13,1.6,1.6,0,0,0,.86-2.09l-0.85-2.02,0.98-.41a1.6,1.6,0,0,0-1.23-2.95l-19.88,8.32c-0.05-.03-0.09-0.05-0.14-0.08l-13.27-31.631a1.609,1.609,0,0,0-2.1-.856l-6.73,2.816a1.6,1.6,0,0,0-.87,2.061C1042.27,1000.45,1046.25,1010.36,1053.08,1012.14Zm9.81,24.76a3.295,3.295,0,0,1-2.54-6.08,3.332,3.332,0,0,1,.51-0.16,3.186,3.186,0,0,1,1.44-.02,3.074,3.074,0,0,1,.79.27,3.413,3.413,0,0,1,.63.41,3.251,3.251,0,0,1,.94,1.27A3.294,3.294,0,0,1,1062.89,1036.9Zm-13.44-38.208,4.34,10.338c-3.62-1.01-6.63-5.77-8.08-8.77Zm30.12-7.258a0.712,0.712,0,0,0-.93-0.382l-2.01.841-6.94,2.9,2.57,6.125a0.338,0.338,0,0,1-.18.44l-3.53,1.48a0.338,0.338,0,0,1-.44-0.18l-2.57-6.128-6.47,2.711-2.01.837a0.7,0.7,0,0,0-.38.93l0.84,2.01,7.88,18.68,0.84,2.01a0.713,0.713,0,0,0,.93.38l2.01-.84,17.56-7.35,2.01-.84a0.705,0.705,0,0,0,.38-0.93l-0.84-2.01-7.88-18.676Zm-39.85,39.1a1.6,1.6,0,0,0,1.6,1.6h11.43a1.6,1.6,0,0,0,0-3.2h-11.43A1.6,1.6,0,0,0,1039.72,1030.53Zm13.03-3.02a1.6,1.6,0,0,0,0-3.2h-5.99a1.6,1.6,0,0,0,0,3.2h5.99Zm-14.34-4.66h14.34a1.6,1.6,0,0,0,0-3.2h-14.34A1.6,1.6,0,0,0,1038.41,1022.85Z" transform="translate(-1036.81 -991)"/>
</svg>
