<svg xmlns="http://www.w3.org/2000/svg" width="44.906" height="52.5" viewBox="0 0 44.906 52.5">
  <metadata><?xpacket begin="﻿" id="W5M0MpCehiHzreSzNTczkc9d"?>
<x:xmpmeta xmlns:x="adobe:ns:meta/" x:xmptk="Adobe XMP Core 5.6-c138 79.159824, 2016/09/14-01:09:01        ">
   <rdf:RDF xmlns:rdf="http://www.w3.org/1999/02/22-rdf-syntax-ns#">
      <rdf:Description rdf:about=""/>
   </rdf:RDF>
</x:xmpmeta>
                                                                                                    
                                                                                                    
                                                                                                    
                                                                                                    
                                                                                                    
                                                                                                    
                                                                                                    
                                                                                                    
                                                                                                    
                                                                                                    
                                                                                                    
                                                                                                    
                                                                                                    
                                                                                                    
                                                                                                    
                                                                                                    
                                                                                                    
                                                                                                    
                                                                                                    
                                                                                                    
                           
<?xpacket end="w"?></metadata>
<defs>
    <style>
      .cls-1 {
        fill: #9edbdf;
        fill-rule: evenodd;
      }
    </style>
  </defs>
  <path class="cls-1" d="M898.09,1156.76c0,2.76-1.813,5.01-4.05,5.01s-4.052-2.25-4.052-5.01,1.814-5,4.052-5S898.09,1153.99,898.09,1156.76Zm-5.2,32.31a16.393,16.393,0,0,1,15.155-16.35c0.09-1.69.228-4.24,0.2-3.73h-0.008l-0.121-.09-0.484-.36-0.971-.72-1.941-1.44-3.881-2.87a2.564,2.564,0,0,0-1.335-.5,0.22,0.22,0,0,0-.077-0.02c-0.664-.08-1.322-0.13-1.98-0.18l-0.015.05,1.736,1.47-2.075,1.04,0.959,1.65-2.645,5.84-0.423-8.04,0.382-.33-0.505-1.81h-1.639l-0.5,1.81,0.38,0.33-0.422,8.04-2.646-5.84,0.963-1.65-2.074-1.04,1.734-1.47-0.015-.05c-0.658.05-1.316,0.1-1.98,0.18a0.421,0.421,0,0,0-.185.05,2.651,2.651,0,0,0-1.759.86l-6.787,7.32-0.026.03-0.007.01c-0.652,5.84-.179,1.62-0.325,2.92l0,0.01,0.009,0.01,0.035,0.07,0.07,0.14,0.142,0.28,0.282,0.56,0.564,1.11,1.128,2.23,2.258,4.45c1.032-.51,2.05-1.05,3.059-1.61-0.017.94-.048,1.89-0.06,2.84,0,0.04.014,0.07,0.016,0.12h0.535l0.607,19.34h5.517c0.075-2.52.1-5.9,0.092-9.2A16.375,16.375,0,0,1,892.888,1189.07Zm7.8-18.41c-0.016-.45-0.038-0.9-0.055-1.35l1.078,0.9,0.517,0.43-4.852,2.84-0.458-.68Zm-13.484,6.46-0.645-1.11-1.25-2.16-0.365-.64,2.474-2.98C887.337,1172.53,887.262,1174.82,887.206,1177.12Zm7.48,19.41,0.227,7.2h5.516c0.008-.27.015-0.56,0.022-0.85A16.532,16.532,0,0,1,894.686,1196.53Zm15.652-8.69c-1.573-.56-2.214-0.97-2.214-1.55,0-.51.385-1.04,1.573-1.04a5.7,5.7,0,0,1,2.635.64l0.548-2.07a6.567,6.567,0,0,0-2.669-.6v-1.61h-1.792v1.73c-1.958.37-3.093,1.63-3.093,3.26,0,1.78,1.336,2.69,3.293,3.35,1.371,0.45,1.957.89,1.957,1.59s-0.714,1.13-1.775,1.13a6.471,6.471,0,0,1-3.036-.8l-0.55,2.14a7.649,7.649,0,0,0,3.111.78v1.74h1.81v-1.88a3.464,3.464,0,0,0,3.238-3.37C913.374,1189.62,912.514,1188.61,910.338,1187.84Zm13.815,2.57a0.674,0.674,0,0,1-.642-0.7c0.011-.21.016-0.43,0.016-0.64a0.67,0.67,0,0,1,.672-0.67,0.772,0.772,0,0,1,.266.05c-0.016-.38-0.034-0.76-0.078-1.14a0.51,0.51,0,0,1-.262.11c-0.036,0-.07.01-0.107,0.01a0.676,0.676,0,0,1-.661-0.57c-0.034-.21-0.07-0.42-0.113-0.63a0.665,0.665,0,0,1,.525-0.79,0.615,0.615,0,0,1,.27,0q-0.18-.735-0.429-1.44a0.83,0.83,0,0,1-.227.15,0.732,0.732,0,0,1-.25.05,0.677,0.677,0,0,1-.624-0.42c-0.079-.2-0.162-0.4-0.252-0.59a0.673,0.673,0,0,1,.334-0.89,0.623,0.623,0,0,1,.264-0.06c-0.227-.45-0.474-0.89-0.741-1.31a0.624,0.624,0,0,1-.189.2,0.669,0.669,0,0,1-.934-0.17c-0.12-.18-0.247-0.35-0.375-0.52a0.67,0.67,0,0,1,.128-0.94,0.646,0.646,0,0,1,.256-0.12,13.867,13.867,0,0,0-1.028-1.11,0.712,0.712,0,0,1-.138.24,0.693,0.693,0,0,1-.5.22,0.663,0.663,0,0,1-.453-0.18c-0.158-.14-0.321-0.28-0.486-0.42a0.666,0.666,0,0,1-.085-0.94,0.584,0.584,0,0,1,.208-0.17,13.071,13.071,0,0,0-1.23-.85,0.707,0.707,0,0,1-.085.25,0.665,0.665,0,0,1-.914.25c-0.187-.1-0.374-0.2-0.566-0.3a0.669,0.669,0,0,1-.3-0.9,0.706,0.706,0,0,1,.168-0.22c-0.452-.2-0.918-0.39-1.394-0.55a0.624,0.624,0,0,1-.024.26,0.669,0.669,0,0,1-.642.49,0.638,0.638,0,0,1-.19-0.03c-0.2-.06-0.411-0.12-0.62-0.17a0.67,0.67,0,0,1-.492-0.81,0.709,0.709,0,0,1,.131-0.26,14.972,14.972,0,0,0-1.508-.23,0.638,0.638,0,0,1,.048.29,0.676,0.676,0,0,1-.67.63c-0.014,0-.029-0.01-0.042-0.01-0.213-.01-0.427-0.02-0.641-0.02a0.676,0.676,0,0,1-.659-0.68,0.612,0.612,0,0,1,.067-0.27,15.011,15.011,0,0,0-1.508.1,0.689,0.689,0,0,1,.1.26,0.675,0.675,0,0,1-.556.77c-0.213.04-.424,0.07-0.632,0.12a0.646,0.646,0,0,1-.137.01,0.673,0.673,0,0,1-.657-0.53,0.647,0.647,0,0,1,0-.27,13.949,13.949,0,0,0-1.432.44,0.691,0.691,0,0,1,.149.22,0.675,0.675,0,0,1-.371.88c-0.2.08-.392,0.16-0.583,0.25a0.72,0.72,0,0,1-.283.06,0.663,0.663,0,0,1-.61-0.39,0.614,0.614,0,0,1-.062-0.26c-0.447.23-.878,0.48-1.3,0.75a0.871,0.871,0,0,1,.2.18,0.678,0.678,0,0,1-.164.94c-0.176.12-.348,0.25-0.516,0.38a0.639,0.639,0,0,1-.41.14,0.676,0.676,0,0,1-.533-0.26,0.6,0.6,0,0,1-.118-0.25,14.342,14.342,0,0,0-1.106,1.03,0.769,0.769,0,0,1,.24.13,0.673,0.673,0,0,1,.045.95c-0.142.16-.28,0.32-0.417,0.49a0.666,0.666,0,0,1-.519.24,0.623,0.623,0,0,1-.425-0.15,0.783,0.783,0,0,1-.169-0.2q-0.452.6-.842,1.23a0.772,0.772,0,0,1,.252.08,0.667,0.667,0,0,1,.258.91c-0.1.19-.2,0.38-0.3,0.57a0.674,0.674,0,0,1-.6.38,0.658,0.658,0,0,1-.3-0.08,0.749,0.749,0,0,1-.212-0.16,14.032,14.032,0,0,0-.55,1.4,0.631,0.631,0,0,1,.272.02,0.669,0.669,0,0,1,.46.83c-0.06.2-.115,0.41-0.167,0.62a0.672,0.672,0,0,1-.652.52,0.91,0.91,0,0,1-.159-0.02,0.746,0.746,0,0,1-.254-0.13,15.18,15.18,0,0,0-.224,1.52,0.889,0.889,0,0,1,.286-0.07,0.68,0.68,0,0,1,.631.72q-0.018.315-.021,0.63a0.677,0.677,0,0,1-.672.67h-0.009a0.6,0.6,0,0,1-.266-0.06,14.692,14.692,0,0,0,.114,1.5,0.739,0.739,0,0,1,.255-0.1,0.667,0.667,0,0,1,.773.55c0.038,0.21.077,0.42,0.123,0.63a0.676,0.676,0,0,1-.515.8,0.7,0.7,0,0,1-.143.01,0.568,0.568,0,0,1-.129-0.02,14.942,14.942,0,0,0,.451,1.44,0.763,0.763,0,0,1,.22-0.15,0.675,0.675,0,0,1,.878.36c0.082,0.2.168,0.4,0.26,0.59a0.667,0.667,0,0,1-.322.89,0.641,0.641,0,0,1-.268.06c0.233,0.45.485,0.88,0.76,1.31a0.726,0.726,0,0,1,.186-0.21,0.681,0.681,0,0,1,.939.16c0.122,0.17.251,0.35,0.381,0.51a0.68,0.68,0,0,1-.115.95,0.79,0.79,0,0,1-.249.11c0.326,0.39.671,0.75,1.036,1.11a0.646,0.646,0,0,1,.134-0.24,0.67,0.67,0,0,1,.951-0.06c0.158,0.15.319,0.28,0.487,0.42a0.666,0.666,0,0,1,.1.94,0.565,0.565,0,0,1-.21.17q0.6,0.45,1.246.84a0.606,0.606,0,0,1,.079-0.25,0.667,0.667,0,0,1,.911-0.27c0.187,0.1.379,0.2,0.572,0.3a0.669,0.669,0,0,1,.3.9,0.624,0.624,0,0,1-.189.2,14.344,14.344,0,0,0,1.426.56,0.7,0.7,0,0,1,.017-0.28,0.682,0.682,0,0,1,.828-0.47c0.208,0.06.414,0.12,0.624,0.17a0.668,0.668,0,0,1,.5.81,0.743,0.743,0,0,1-.128.25c0.5,0.09,1,.16,1.509.21a0.667,0.667,0,0,1,.657-0.92c0.211,0.02.424,0.02,0.64,0.02a0.669,0.669,0,0,1,.61.94,12.449,12.449,0,0,0,1.5-.12,0.634,0.634,0,0,1-.105-0.25,0.676,0.676,0,0,1,.543-0.78c0.212-.04.421-0.08,0.631-0.13a0.676,0.676,0,0,1,.8.51,0.716,0.716,0,0,1,0,.28c0.494-.14.978-0.29,1.452-0.47a0.622,0.622,0,0,1-.176-0.21,0.671,0.671,0,0,1,.357-0.88c0.2-.09.392-0.17,0.583-0.27a0.685,0.685,0,0,1,.9.32,0.649,0.649,0,0,1,.063.27c0.45-.24.886-0.49,1.307-0.77a0.935,0.935,0,0,1-.215-0.18,0.679,0.679,0,0,1,.152-0.94c0.174-.13.344-0.26,0.513-0.39a0.673,0.673,0,0,1,.944.11,0.734,0.734,0,0,1,.121.24c0.379-.33.743-0.67,1.09-1.03a0.745,0.745,0,0,1-.235-0.13,0.676,0.676,0,0,1-.065-0.95c0.143-.16.282-0.33,0.416-0.49a0.662,0.662,0,0,1,1.114.1q0.448-.615.835-1.26a0.613,0.613,0,0,1-.26-0.07,0.671,0.671,0,0,1-.271-0.91c0.1-.19.2-0.38,0.293-0.57a0.66,0.66,0,0,1,.9-0.31,0.635,0.635,0,0,1,.219.17c0.2-.46.384-0.94,0.54-1.42-0.035,0-.07.01-0.106,0.01a0.551,0.551,0,0,1-.179-0.02,0.678,0.678,0,0,1-.47-0.83c0.057-.2.11-0.41,0.16-0.62a0.676,0.676,0,0,1,.8-0.51,0.933,0.933,0,0,1,.254.12q0.136-.735.2-1.5a0.677,0.677,0,0,1-.248.05h-0.03Zm-14.857,10a11.34,11.34,0,1,1,11.342-11.34A11.355,11.355,0,0,1,909.3,1200.41Z" transform="translate(-879.563 -1151.75)"/>
</svg>
