<svg xmlns="http://www.w3.org/2000/svg" width="49.34" height="44" viewBox="0 0 49.34 44">
  <metadata><?xpacket begin="﻿" id="W5M0MpCehiHzreSzNTczkc9d"?>
<x:xmpmeta xmlns:x="adobe:ns:meta/" x:xmptk="Adobe XMP Core 5.6-c138 79.159824, 2016/09/14-01:09:01        ">
   <rdf:RDF xmlns:rdf="http://www.w3.org/1999/02/22-rdf-syntax-ns#">
      <rdf:Description rdf:about=""/>
   </rdf:RDF>
</x:xmpmeta>
                                                                                                    
                                                                                                    
                                                                                                    
                                                                                                    
                                                                                                    
                                                                                                    
                                                                                                    
                                                                                                    
                                                                                                    
                                                                                                    
                                                                                                    
                                                                                                    
                                                                                                    
                                                                                                    
                                                                                                    
                                                                                                    
                                                                                                    
                                                                                                    
                                                                                                    
                                                                                                    
                           
<?xpacket end="w"?></metadata>
<defs>
    <style>
      .cls-1 {
        fill: #9edbdf;
        fill-rule: evenodd;
      }
    </style>
  </defs>
  <path id="Forma_1" data-name="Forma 1" class="cls-1" d="M1120.09,1166.13l-30.21-6.39a2.383,2.383,0,0,0-2.82,1.83l-0.57,3.69,34.86,7.38,0.57-3.69A2.388,2.388,0,0,0,1120.09,1166.13Zm-12.7,7.3a2.4,2.4,0,0,0-2.95-1.67l-5.74,1.59-13.52-2.86-1.49,7.03-9.29,2.58a2.4,2.4,0,0,0-1.67,2.95l5.24,18.89a2.4,2.4,0,0,0,2.95,1.67l30.03-8.34a2.412,2.412,0,0,0,1.67-2.96l-0.9-3.24,3.37,0.71a2.383,2.383,0,0,0,2.82-1.83l2.13-10.08-12.13-2.57Zm3.47,9.6,0.74-3.52a0.982,0.982,0,0,1,1.16-.75l3.51,0.74a0.982,0.982,0,0,1,.75,1.16l-0.74,3.51a0.981,0.981,0,0,1-1.16.76l-3.51-.74A0.977,0.977,0,0,1,1110.86,1183.03Zm-35.94-1.05,8.32-2.3,19.61-5.45,2.11-.59a0.41,0.41,0,0,1,.11-0.01,0.452,0.452,0,0,1,.43.32l0.25,0.89,0.78,2.8-30.89,8.58-1.02-3.69A0.449,0.449,0,0,1,1074.92,1181.98Zm35.82,10.85a0.447,0.447,0,0,1-.04.34,0.5,0.5,0,0,1-.27.21l-30.03,8.34a0.5,0.5,0,0,1-.12.02,0.449,0.449,0,0,1-.43-0.33l-3.05-11.01,30.89-8.58,1.88,6.79Zm-25.49.76a0.968,0.968,0,0,0-1.2-.68l-3.51.97a0.986,0.986,0,0,0-.68,1.21l0.97,3.51a1,1,0,0,0,1.21.68l3.5-.98a0.968,0.968,0,0,0,.68-1.2Z" transform="translate(-1072.63 -1159.69)"/>
</svg>
